STARTFONT 2.1
COMMENT
COMMENT Shinonome 12dot font for JISX 0208, 1983/1990, Marumoji Style
COMMENT
COMMENT The original is designed by
COMMENT   Yasuyuki Furukawa <Furukawa.Yasuyuki@fujixerox.co.jp>, 2000.
COMMENT   (Public Domain)
COMMENT
COMMENT Modified and Maintained by /efont/.
COMMENT
COMMENT (c) /efont/ -- Efont Open Laboratory 2001
COMMENT http://openlab.ring.gr.jp/efont/
COMMENT
FONT -Shinonome-Marumoji-Medium-R-Normal--12-110-75-75-C-120-JISX0208.1990-0
SIZE 12 75 75
FONTBOUNDINGBOX 12 12 0 -2
STARTPROPERTIES 20
FONTNAME_REGISTRY ""
FOUNDRY "Shinonome"
FAMILY_NAME "Marumoji"
WEIGHT_NAME "Medium"
SLANT "R"
SETWIDTH_NAME "Normal"
ADD_STYLE_NAME ""
PIXEL_SIZE 12
POINT_SIZE 110
RESOLUTION_X 75
RESOLUTION_Y 75
SPACING "C"
AVERAGE_WIDTH 120
CHARSET_REGISTRY "JISX0208.1990"
CHARSET_ENCODING "0"
COPYRIGHT "Public Domain"
DEFAULT_CHAR 8481
FONT_ASCENT 10
FONT_DESCENT 2
_XMBDFED_INFO "Edited with xmbdfed 4.4."
ENDPROPERTIES
CHARS 6879
STARTCHAR 2121
ENCODING 8481
SWIDTH 960 0
DWIDTH 12 0
BBX 12 12 0 -2
BITMAP
0000
0000
0000
0000
0000
0000
0000
0000
0000
0000
0000
0000
ENDCHAR
STARTCHAR 2122
ENCODING 8482
SWIDTH 960 0
DWIDTH 12 0
BBX 12 12 0 -2
BITMAP
0000
0000
0000
0000
0000
0000
0000
0000
0000
4000
2000
2000
ENDCHAR
STARTCHAR 2123
ENCODING 8483
SWIDTH 960 0
DWIDTH 12 0
BBX 12 12 0 -2
BITMAP
0000
0000
0000
0000
0000
0000
0000
0000
3000
4800
4800
3000
ENDCHAR
STARTCHAR 2124
ENCODING 8484
SWIDTH 960 0
DWIDTH 12 0
BBX 12 12 0 -2
BITMAP
0000
0000
0000
0000
0000
0000
0000
0000
0000
2000
2000
4000
ENDCHAR
STARTCHAR 2125
ENCODING 8485
SWIDTH 960 0
DWIDTH 12 0
BBX 12 12 0 -2
BITMAP
0000
0000
0000
0000
0000
0000
0000
0000
0000
6000
6000
0000
ENDCHAR
STARTCHAR 2126
ENCODING 8486
SWIDTH 960 0
DWIDTH 12 0
BBX 12 12 0 -2
BITMAP
0000
0000
0000
0000
0000
0600
0600
0000
0000
0000
0000
0000
ENDCHAR
STARTCHAR 2127
ENCODING 8487
SWIDTH 960 0
DWIDTH 12 0
BBX 12 12 0 -2
BITMAP
0000
0000
0000
0400
0400
0000
0000
0000
0400
0400
0000
0000
ENDCHAR
STARTCHAR 2128
ENCODING 8488
SWIDTH 960 0
DWIDTH 12 0
BBX 12 12 0 -2
BITMAP
0000
0000
0000
0400
0400
0000
0000
0000
0400
0400
0800
0000
ENDCHAR
STARTCHAR 2129
ENCODING 8489
SWIDTH 960 0
DWIDTH 12 0
BBX 12 12 0 -2
BITMAP
0000
1f00
2080
2080
1100
0200
0400
0400
0c00
1200
0c00
0000
ENDCHAR
STARTCHAR 212a
ENCODING 8490
SWIDTH 960 0
DWIDTH 12 0
BBX 12 12 0 -2
BITMAP
0000
0100
0100
0200
0200
0400
0400
0000
0c00
1200
0c00
0000
ENDCHAR
STARTCHAR 212b
ENCODING 8491
SWIDTH 960 0
DWIDTH 12 0
BBX 12 12 0 -2
BITMAP
2000
9000
5000
4000
0000
0000
0000
0000
0000
0000
0000
0000
ENDCHAR
STARTCHAR 212c
ENCODING 8492
SWIDTH 960 0
DWIDTH 12 0
BBX 12 12 0 -2
BITMAP
0000
4000
a000
a000
4000
0000
0000
0000
0000
0000
0000
0000
ENDCHAR
STARTCHAR 212d
ENCODING 8493
SWIDTH 960 0
DWIDTH 12 0
BBX 12 12 0 -2
BITMAP
0200
0400
0800
0000
0000
0000
0000
0000
0000
0000
0000
0000
ENDCHAR
STARTCHAR 212e
ENCODING 8494
SWIDTH 960 0
DWIDTH 12 0
BBX 12 12 0 -2
BITMAP
0800
0400
0200
0000
0000
0000
0000
0000
0000
0000
0000
0000
ENDCHAR
STARTCHAR 212f
ENCODING 8495
SWIDTH 960 0
DWIDTH 12 0
BBX 12 12 0 -2
BITMAP
1980
1980
0000
0000
0000
0000
0000
0000
0000
0000
0000
0000
ENDCHAR
STARTCHAR 2130
ENCODING 8496
SWIDTH 960 0
DWIDTH 12 0
BBX 12 12 0 -2
BITMAP
0200
0500
0880
0000
0000
0000
0000
0000
0000
0000
0000
0000
ENDCHAR
STARTCHAR 2131
ENCODING 8497
SWIDTH 960 0
DWIDTH 12 0
BBX 12 12 0 -2
BITMAP
fff0
0000
0000
0000
0000
0000
0000
0000
0000
0000
0000
0000
ENDCHAR
STARTCHAR 2132
ENCODING 8498
SWIDTH 960 0
DWIDTH 12 0
BBX 12 12 0 -2
BITMAP
0000
0000
0000
0000
0000
0000
0000
0000
0000
0000
0000
fff0
ENDCHAR
STARTCHAR 2133
ENCODING 8499
SWIDTH 960 0
DWIDTH 12 0
BBX 12 12 0 -2
BITMAP
0000
0000
0000
0000
0000
3000
0c00
0200
0100
0000
0000
0000
ENDCHAR
STARTCHAR 2134
ENCODING 8500
SWIDTH 960 0
DWIDTH 12 0
BBX 12 12 0 -2
BITMAP
0000
0000
0100
0480
0200
3000
0c00
0200
0100
0000
0000
0000
ENDCHAR
STARTCHAR 2135
ENCODING 8501
SWIDTH 960 0
DWIDTH 12 0
BBX 12 12 0 -2
BITMAP
0000
0000
0000
0000
1800
0600
0100
0380
0400
0000
0000
0000
ENDCHAR
STARTCHAR 2136
ENCODING 8502
SWIDTH 960 0
DWIDTH 12 0
BBX 12 12 0 -2
BITMAP
0000
0100
0480
0200
3000
0c00
0200
0700
0800
0000
0000
0000
ENDCHAR
STARTCHAR 2137
ENCODING 8503
SWIDTH 960 0
DWIDTH 12 0
BBX 12 12 0 -2
BITMAP
0000
0000
0000
0900
0900
0900
1200
1200
2400
0000
0000
0000
ENDCHAR
STARTCHAR 2138
ENCODING 8504
SWIDTH 960 0
DWIDTH 12 0
BBX 12 12 0 -2
BITMAP
0400
0400
0a00
1100
2080
c060
3f80
0400
0400
0400
0400
ffe0
ENDCHAR
STARTCHAR 2139
ENCODING 8505
SWIDTH 960 0
DWIDTH 12 0
BBX 12 12 0 -2
BITMAP
0000
0000
0800
0f80
0880
1100
2100
4a00
0600
0100
0080
0000
ENDCHAR
STARTCHAR 213a
ENCODING 8506
SWIDTH 960 0
DWIDTH 12 0
BBX 12 12 0 -2
BITMAP
0000
0040
0040
0080
0100
1a00
2600
4900
5000
6000
0000
0000
ENDCHAR
STARTCHAR 213b
ENCODING 8507
SWIDTH 960 0
DWIDTH 12 0
BBX 12 12 0 -2
BITMAP
0000
0e00
3180
4040
4040
8020
8020
8020
4040
4040
3180
0e00
ENDCHAR
STARTCHAR 213c
ENCODING 8508
SWIDTH 960 0
DWIDTH 12 0
BBX 12 12 0 -2
BITMAP
0000
0000
0000
0000
0000
1cc0
6300
0000
0000
0000
0000
0000
ENDCHAR
STARTCHAR 213d
ENCODING 8509
SWIDTH 960 0
DWIDTH 12 0
BBX 12 12 0 -2
BITMAP
0000
0000
0000
0000
0000
0000
fff0
0000
0000
0000
0000
0000
ENDCHAR
STARTCHAR 213e
ENCODING 8510
SWIDTH 960 0
DWIDTH 12 0
BBX 12 12 0 -2
BITMAP
0000
0000
0000
0000
0000
0000
0f00
0000
0000
0000
0000
0000
ENDCHAR
STARTCHAR 213f
ENCODING 8511
SWIDTH 960 0
DWIDTH 12 0
BBX 12 12 0 -2
BITMAP
0010
0020
0040
0080
0100
0200
0400
0800
1000
2000
4000
8000
ENDCHAR
STARTCHAR 2140
ENCODING 8512
SWIDTH 960 0
DWIDTH 12 0
BBX 12 12 0 -2
BITMAP
8000
4000
2000
1000
0800
0400
0200
0100
0080
0040
0020
0010
ENDCHAR
STARTCHAR 2141
ENCODING 8513
SWIDTH 960 0
DWIDTH 12 0
BBX 12 12 0 -2
BITMAP
0000
0000
0000
0000
0000
6660
1980
0000
0000
0000
0000
0000
ENDCHAR
STARTCHAR 2142
ENCODING 8514
SWIDTH 960 0
DWIDTH 12 0
BBX 12 12 0 -2
BITMAP
0900
0900
0900
0900
0900
0900
0900
0900
0900
0900
0900
0900
ENDCHAR
STARTCHAR 2143
ENCODING 8515
SWIDTH 960 0
DWIDTH 12 0
BBX 12 12 0 -2
BITMAP
0200
0200
0200
0200
0200
0200
0200
0200
0200
0200
0200
0200
ENDCHAR
STARTCHAR 2144
ENCODING 8516
SWIDTH 960 0
DWIDTH 12 0
BBX 12 12 0 -2
BITMAP
0000
0000
0000
0000
0000
4440
4440
0000
0000
0000
0000
0000
ENDCHAR
STARTCHAR 2145
ENCODING 8517
SWIDTH 960 0
DWIDTH 12 0
BBX 12 12 0 -2
BITMAP
0000
0000
0000
0000
0000
2080
2080
0000
0000
0000
0000
0000
ENDCHAR
STARTCHAR 2146
ENCODING 8518
SWIDTH 960 0
DWIDTH 12 0
BBX 12 12 0 -2
BITMAP
0020
0040
0040
0060
0000
0000
0000
0000
0000
0000
0000
0000
ENDCHAR
STARTCHAR 2147
ENCODING 8519
SWIDTH 960 0
DWIDTH 12 0
BBX 12 12 0 -2
BITMAP
3000
1000
1000
2000
0000
0000
0000
0000
0000
0000
0000
0000
ENDCHAR
STARTCHAR 2148
ENCODING 8520
SWIDTH 960 0
DWIDTH 12 0
BBX 12 12 0 -2
BITMAP
0120
0240
0240
0360
0000
0000
0000
0000
0000
0000
0000
0000
ENDCHAR
STARTCHAR 2149
ENCODING 8521
SWIDTH 960 0
DWIDTH 12 0
BBX 12 12 0 -2
BITMAP
6c00
2400
2400
4800
0000
0000
0000
0000
0000
0000
0000
0000
ENDCHAR
STARTCHAR 214a
ENCODING 8522
SWIDTH 960 0
DWIDTH 12 0
BBX 12 12 0 -2
BITMAP
0040
0080
0100
0100
0200
0200
0200
0200
0100
0100
0080
0040
ENDCHAR
STARTCHAR 214b
ENCODING 8523
SWIDTH 960 0
DWIDTH 12 0
BBX 12 12 0 -2
BITMAP
2000
1000
0800
0800
0400
0400
0400
0400
0800
0800
1000
2000
ENDCHAR
STARTCHAR 214c
ENCODING 8524
SWIDTH 960 0
DWIDTH 12 0
BBX 12 12 0 -2
BITMAP
00c0
0300
0200
0200
0200
0200
0200
0200
0200
0200
0300
00c0
ENDCHAR
STARTCHAR 214d
ENCODING 8525
SWIDTH 960 0
DWIDTH 12 0
BBX 12 12 0 -2
BITMAP
3000
0c00
0400
0400
0400
0400
0400
0400
0400
0400
0c00
3000
ENDCHAR
STARTCHAR 214e
ENCODING 8526
SWIDTH 960 0
DWIDTH 12 0
BBX 12 12 0 -2
BITMAP
03c0
0200
0200
0200
0200
0200
0200
0200
0200
0200
0200
03c0
ENDCHAR
STARTCHAR 214f
ENCODING 8527
SWIDTH 960 0
DWIDTH 12 0
BBX 12 12 0 -2
BITMAP
3c00
0400
0400
0400
0400
0400
0400
0400
0400
0400
0400
3c00
ENDCHAR
STARTCHAR 2150
ENCODING 8528
SWIDTH 960 0
DWIDTH 12 0
BBX 12 12 0 -2
BITMAP
0040
0080
0080
0080
0080
0100
0080
0080
0080
0080
0080
0040
ENDCHAR
STARTCHAR 2151
ENCODING 8529
SWIDTH 960 0
DWIDTH 12 0
BBX 12 12 0 -2
BITMAP
2000
1000
1000
1000
1000
0800
1000
1000
1000
1000
1000
2000
ENDCHAR
STARTCHAR 2152
ENCODING 8530
SWIDTH 960 0
DWIDTH 12 0
BBX 12 12 0 -2
BITMAP
0040
0080
0080
0100
0100
0200
0200
0100
0100
0080
0080
0040
ENDCHAR
STARTCHAR 2153
ENCODING 8531
SWIDTH 960 0
DWIDTH 12 0
BBX 12 12 0 -2
BITMAP
2000
1000
1000
0800
0800
0400
0400
0800
0800
1000
1000
2000
ENDCHAR
STARTCHAR 2154
ENCODING 8532
SWIDTH 960 0
DWIDTH 12 0
BBX 12 12 0 -2
BITMAP
0240
0480
0480
0900
0900
1200
1200
0900
0900
0480
0480
0240
ENDCHAR
STARTCHAR 2155
ENCODING 8533
SWIDTH 960 0
DWIDTH 12 0
BBX 12 12 0 -2
BITMAP
2400
1200
1200
0900
0900
0480
0480
0900
0900
1200
1200
2400
ENDCHAR
STARTCHAR 2156
ENCODING 8534
SWIDTH 960 0
DWIDTH 12 0
BBX 12 12 0 -2
BITMAP
01e0
0200
0400
0400
0400
0400
0000
0000
0000
0000
0000
0000
ENDCHAR
STARTCHAR 2157
ENCODING 8535
SWIDTH 960 0
DWIDTH 12 0
BBX 12 12 0 -2
BITMAP
0000
0000
0000
0000
0000
0000
0400
0400
0400
0400
0400
7800
ENDCHAR
STARTCHAR 2158
ENCODING 8536
SWIDTH 960 0
DWIDTH 12 0
BBX 12 12 0 -2
BITMAP
07c0
0820
09c0
0900
0900
0900
0600
0000
0000
0000
0000
0000
ENDCHAR
STARTCHAR 2159
ENCODING 8537
SWIDTH 960 0
DWIDTH 12 0
BBX 12 12 0 -2
BITMAP
0000
0000
0000
0000
0000
0600
0900
0900
0900
3900
4100
3e00
ENDCHAR
STARTCHAR 215a
ENCODING 8538
SWIDTH 960 0
DWIDTH 12 0
BBX 12 12 0 -2
BITMAP
03c0
0380
0380
0300
0300
0300
0300
0300
0300
0380
0380
03c0
ENDCHAR
STARTCHAR 215b
ENCODING 8539
SWIDTH 960 0
DWIDTH 12 0
BBX 12 12 0 -2
BITMAP
3c00
1c00
1c00
0c00
0c00
0c00
0c00
0c00
0c00
1c00
1c00
3c00
ENDCHAR
STARTCHAR 215c
ENCODING 8540
SWIDTH 960 0
DWIDTH 12 0
BBX 12 12 0 -2
BITMAP
0000
0400
0400
0400
0400
7fc0
0400
0400
0400
0400
0000
0000
ENDCHAR
STARTCHAR 215d
ENCODING 8541
SWIDTH 960 0
DWIDTH 12 0
BBX 12 12 0 -2
BITMAP
0000
0000
0000
0000
0000
3fc0
0000
0000
0000
0000
0000
0000
ENDCHAR
STARTCHAR 215e
ENCODING 8542
SWIDTH 960 0
DWIDTH 12 0
BBX 12 12 0 -2
BITMAP
0000
0400
0400
0400
0400
7fc0
0400
0400
0400
0000
7fc0
0000
ENDCHAR
STARTCHAR 215f
ENCODING 8543
SWIDTH 960 0
DWIDTH 12 0
BBX 12 12 0 -2
BITMAP
0000
0000
2040
1080
0900
0600
0600
0900
1080
2040
0000
0000
ENDCHAR
STARTCHAR 2160
ENCODING 8544
SWIDTH 960 0
DWIDTH 12 0
BBX 12 12 0 -2
BITMAP
0000
0000
0c00
0c00
0000
0000
7fc0
0000
0000
0c00
0c00
0000
ENDCHAR
STARTCHAR 2161
ENCODING 8545
SWIDTH 960 0
DWIDTH 12 0
BBX 12 12 0 -2
BITMAP
0000
0000
0000
0000
7fc0
0000
0000
7fc0
0000
0000
0000
0000
ENDCHAR
STARTCHAR 2162
ENCODING 8546
SWIDTH 960 0
DWIDTH 12 0
BBX 12 12 0 -2
BITMAP
0000
0100
0100
0200
7fc0
0400
0400
7fc0
0800
1000
1000
0000
ENDCHAR
STARTCHAR 2163
ENCODING 8547
SWIDTH 960 0
DWIDTH 12 0
BBX 12 12 0 -2
BITMAP
0000
00c0
0300
0c00
3000
4000
3000
0c00
0300
00c0
0000
0000
ENDCHAR
STARTCHAR 2164
ENCODING 8548
SWIDTH 960 0
DWIDTH 12 0
BBX 12 12 0 -2
BITMAP
0000
6000
1800
0600
0180
0040
0180
0600
1800
6000
0000
0000
ENDCHAR
STARTCHAR 2165
ENCODING 8549
SWIDTH 960 0
DWIDTH 12 0
BBX 12 12 0 -2
BITMAP
0000
0060
0380
1c00
6000
1c00
0380
0060
7fe0
0000
7fe0
0000
ENDCHAR
STARTCHAR 2166
ENCODING 8550
SWIDTH 960 0
DWIDTH 12 0
BBX 12 12 0 -2
BITMAP
0000
6000
1c00
0380
0060
0380
1c00
6000
7fe0
0000
7fe0
0000
ENDCHAR
STARTCHAR 2167
ENCODING 8551
SWIDTH 960 0
DWIDTH 12 0
BBX 12 12 0 -2
BITMAP
0000
0000
0000
3180
4a40
8420
8420
4a40
3180
0000
0000
0000
ENDCHAR
STARTCHAR 2168
ENCODING 8552
SWIDTH 960 0
DWIDTH 12 0
BBX 12 12 0 -2
BITMAP
0000
0000
0600
0600
0000
0000
0000
0000
30c0
30c0
0000
0000
ENDCHAR
STARTCHAR 2169
ENCODING 8553
SWIDTH 960 0
DWIDTH 12 0
BBX 12 12 0 -2
BITMAP
0000
03e0
0060
00a0
0120
0220
3c00
4400
4400
4400
3800
0000
ENDCHAR
STARTCHAR 216a
ENCODING 8554
SWIDTH 960 0
DWIDTH 12 0
BBX 12 12 0 -2
BITMAP
0000
0e00
1100
1100
1100
0e00
0400
0400
3f80
0400
0400
0400
ENDCHAR
STARTCHAR 216b
ENCODING 8555
SWIDTH 960 0
DWIDTH 12 0
BBX 12 12 0 -2
BITMAP
0000
3000
4800
4800
3000
0000
0000
0000
0000
0000
0000
0000
ENDCHAR
STARTCHAR 216c
ENCODING 8556
SWIDTH 960 0
DWIDTH 12 0
BBX 12 12 0 -2
BITMAP
1800
0800
0800
1000
0000
0000
0000
0000
0000
0000
0000
0000
ENDCHAR
STARTCHAR 216d
ENCODING 8557
SWIDTH 960 0
DWIDTH 12 0
BBX 12 12 0 -2
BITMAP
3600
1200
1200
2400
0000
0000
0000
0000
0000
0000
0000
0000
ENDCHAR
STARTCHAR 216e
ENCODING 8558
SWIDTH 960 0
DWIDTH 12 0
BBX 12 12 0 -2
BITMAP
0000
2340
54c0
2840
1000
1000
1000
1000
1040
0880
0700
0000
ENDCHAR
STARTCHAR 216f
ENCODING 8559
SWIDTH 960 0
DWIDTH 12 0
BBX 12 12 0 -2
BITMAP
0000
4040
4040
2180
1e00
7f80
0400
0400
7fc0
0400
0400
0000
ENDCHAR
STARTCHAR 2170
ENCODING 8560
SWIDTH 960 0
DWIDTH 12 0
BBX 12 12 0 -2
BITMAP
0400
1f00
2480
2400
1400
0f00
0480
0440
4440
3480
0f00
0400
ENDCHAR
STARTCHAR 2171
ENCODING 8561
SWIDTH 960 0
DWIDTH 12 0
BBX 12 12 0 -2
BITMAP
0000
0000
0000
0200
0f00
12c0
2400
2400
2440
1880
0f00
0800
ENDCHAR
STARTCHAR 2172
ENCODING 8562
SWIDTH 960 0
DWIDTH 12 0
BBX 12 12 0 -2
BITMAP
0000
0700
0880
1000
1000
1000
7e00
0820
3820
4c40
3380
0000
ENDCHAR
STARTCHAR 2173
ENCODING 8563
SWIDTH 960 0
DWIDTH 12 0
BBX 12 12 0 -2
BITMAP
0000
3820
4440
4480
3900
0200
0400
09c0
1220
2220
41c0
0000
ENDCHAR
STARTCHAR 2174
ENCODING 8564
SWIDTH 960 0
DWIDTH 12 0
BBX 12 12 0 -2
BITMAP
0880
0880
0880
7fe0
1100
1100
1100
1100
ffc0
2200
2200
2200
ENDCHAR
STARTCHAR 2175
ENCODING 8565
SWIDTH 960 0
DWIDTH 12 0
BBX 12 12 0 -2
BITMAP
0000
0e00
1100
2000
2000
1800
2300
4480
4480
2300
1cc0
0000
ENDCHAR
STARTCHAR 2176
ENCODING 8566
SWIDTH 960 0
DWIDTH 12 0
BBX 12 12 0 -2
BITMAP
0000
0000
0000
0400
3580
0e00
0400
0e00
3580
0400
0000
0000
ENDCHAR
STARTCHAR 2177
ENCODING 8567
SWIDTH 960 0
DWIDTH 12 0
BBX 12 12 0 -2
BITMAP
0000
0f00
1080
2740
48a0
48a0
48a0
4740
2000
18c0
0700
0000
ENDCHAR
STARTCHAR 2178
ENCODING 8568
SWIDTH 960 0
DWIDTH 12 0
BBX 12 12 0 -2
BITMAP
0e00
1100
1800
0c00
0e00
1300
1900
0e00
0600
0300
1100
0e00
ENDCHAR
STARTCHAR 2179
ENCODING 8569
SWIDTH 960 0
DWIDTH 12 0
BBX 12 12 0 -2
BITMAP
0000
0400
0400
0a00
fbe0
4040
2080
1100
2480
3b80
60c0
0000
ENDCHAR
STARTCHAR 217a
ENCODING 8570
SWIDTH 960 0
DWIDTH 12 0
BBX 12 12 0 -2
BITMAP
0000
0400
0400
0e00
ffe0
7fc0
3f80
1f00
3f80
3b80
60c0
0000
ENDCHAR
STARTCHAR 217b
ENCODING 8571
SWIDTH 960 0
DWIDTH 12 0
BBX 12 12 0 -2
BITMAP
0000
0e00
3180
4040
4040
8020
8020
8020
4040
4040
3180
0e00
ENDCHAR
STARTCHAR 217c
ENCODING 8572
SWIDTH 960 0
DWIDTH 12 0
BBX 12 12 0 -2
BITMAP
0000
0e00
3f80
7fc0
7fc0
ffe0
ffe0
ffe0
7fc0
7fc0
3f80
0e00
ENDCHAR
STARTCHAR 217d
ENCODING 8573
SWIDTH 960 0
DWIDTH 12 0
BBX 12 12 0 -2
BITMAP
0000
0e00
3180
4e40
5140
a0a0
a0a0
a0a0
5140
4e40
3180
0e00
ENDCHAR
STARTCHAR 217e
ENCODING 8574
SWIDTH 960 0
DWIDTH 12 0
BBX 12 12 0 -2
BITMAP
0000
0400
0a00
1100
2080
4040
8020
4040
2080
1100
0a00
0400
ENDCHAR
STARTCHAR 2221
ENCODING 8737
SWIDTH 960 0
DWIDTH 12 0
BBX 12 12 0 -2
BITMAP
0000
0400
0e00
1f00
3f80
7fc0
ffe0
7fc0
3f80
1f00
0e00
0400
ENDCHAR
STARTCHAR 2222
ENCODING 8738
SWIDTH 960 0
DWIDTH 12 0
BBX 12 12 0 -2
BITMAP
0000
ffe0
8020
8020
8020
8020
8020
8020
8020
8020
8020
ffe0
ENDCHAR
STARTCHAR 2223
ENCODING 8739
SWIDTH 960 0
DWIDTH 12 0
BBX 12 12 0 -2
BITMAP
0000
ffe0
ffe0
ffe0
ffe0
ffe0
ffe0
ffe0
ffe0
ffe0
ffe0
ffe0
ENDCHAR
STARTCHAR 2224
ENCODING 8740
SWIDTH 960 0
DWIDTH 12 0
BBX 12 12 0 -2
BITMAP
0400
0400
0a00
0a00
1100
1100
2080
2080
4040
4040
ffe0
0000
ENDCHAR
STARTCHAR 2225
ENCODING 8741
SWIDTH 960 0
DWIDTH 12 0
BBX 12 12 0 -2
BITMAP
0400
0400
0e00
0e00
1f00
1f00
3f80
3f80
7fc0
7fc0
ffe0
0000
ENDCHAR
STARTCHAR 2226
ENCODING 8742
SWIDTH 960 0
DWIDTH 12 0
BBX 12 12 0 -2
BITMAP
0000
ffe0
4040
4040
2080
2080
1100
1100
0a00
0a00
0400
0400
ENDCHAR
STARTCHAR 2227
ENCODING 8743
SWIDTH 960 0
DWIDTH 12 0
BBX 12 12 0 -2
BITMAP
0000
ffe0
7fc0
7fc0
3f80
3f80
1f00
1f00
0e00
0e00
0400
0400
ENDCHAR
STARTCHAR 2228
ENCODING 8744
SWIDTH 960 0
DWIDTH 12 0
BBX 12 12 0 -2
BITMAP
0000
4620
2640
1080
0900
6660
6660
0900
1080
2640
4620
0000
ENDCHAR
STARTCHAR 2229
ENCODING 8745
SWIDTH 960 0
DWIDTH 12 0
BBX 12 12 0 -2
BITMAP
0000
7fe0
7fe0
0000
fff0
fff0
0600
0600
0600
0600
0600
0600
ENDCHAR
STARTCHAR 222a
ENCODING 8746
SWIDTH 960 0
DWIDTH 12 0
BBX 12 12 0 -2
BITMAP
0000
0000
0000
0300
00c0
fff0
00c0
0300
0000
0000
0000
0000
ENDCHAR
STARTCHAR 222b
ENCODING 8747
SWIDTH 960 0
DWIDTH 12 0
BBX 12 12 0 -2
BITMAP
0000
0000
0000
0c00
3000
fff0
3000
0c00
0000
0000
0000
0000
ENDCHAR
STARTCHAR 222c
ENCODING 8748
SWIDTH 960 0
DWIDTH 12 0
BBX 12 12 0 -2
BITMAP
0200
0200
0700
0700
0a80
0a80
0200
0200
0200
0200
0200
0200
ENDCHAR
STARTCHAR 222d
ENCODING 8749
SWIDTH 960 0
DWIDTH 12 0
BBX 12 12 0 -2
BITMAP
0200
0200
0200
0200
0200
0200
0a80
0a80
0700
0700
0200
0200
ENDCHAR
STARTCHAR 222e
ENCODING 8750
SWIDTH 960 0
DWIDTH 12 0
BBX 12 12 0 -2
BITMAP
0000
0000
0000
fff0
fff0
0000
0000
fff0
fff0
0000
0000
0000
ENDCHAR
STARTCHAR 223a
ENCODING 8762
SWIDTH 960 0
DWIDTH 12 0
BBX 12 12 0 -2
BITMAP
0000
0000
0fc0
1000
2000
3fc0
2000
1000
0fc0
0000
0000
0000
ENDCHAR
STARTCHAR 223b
ENCODING 8763
SWIDTH 960 0
DWIDTH 12 0
BBX 12 12 0 -2
BITMAP
0000
0000
3f00
0080
0040
3fc0
0040
0080
3f00
0000
0000
0000
ENDCHAR
STARTCHAR 223c
ENCODING 8764
SWIDTH 960 0
DWIDTH 12 0
BBX 12 12 0 -2
BITMAP
0000
0000
1fe0
2000
4000
4000
2000
1fe0
0000
0000
3fe0
0000
ENDCHAR
STARTCHAR 223d
ENCODING 8765
SWIDTH 960 0
DWIDTH 12 0
BBX 12 12 0 -2
BITMAP
0000
0000
7f80
0040
0020
0020
0040
7f80
0000
0000
7fc0
0000
ENDCHAR
STARTCHAR 223e
ENCODING 8766
SWIDTH 960 0
DWIDTH 12 0
BBX 12 12 0 -2
BITMAP
0000
0000
1fe0
2000
4000
4000
4000
4000
2000
1fe0
0000
0000
ENDCHAR
STARTCHAR 223f
ENCODING 8767
SWIDTH 960 0
DWIDTH 12 0
BBX 12 12 0 -2
BITMAP
0000
0000
7f80
0040
0020
0020
0020
0020
0040
7f80
0000
0000
ENDCHAR
STARTCHAR 2240
ENCODING 8768
SWIDTH 960 0
DWIDTH 12 0
BBX 12 12 0 -2
BITMAP
0000
4080
4080
4080
4080
4080
4080
4080
4080
2100
1e00
0000
ENDCHAR
STARTCHAR 2241
ENCODING 8769
SWIDTH 960 0
DWIDTH 12 0
BBX 12 12 0 -2
BITMAP
0000
1e00
2100
4080
4080
4080
4080
4080
4080
4080
4080
0000
ENDCHAR
STARTCHAR 224a
ENCODING 8778
SWIDTH 960 0
DWIDTH 12 0
BBX 12 12 0 -2
BITMAP
0000
0400
0400
0a00
0a00
1100
1100
2080
2080
4040
4040
0000
ENDCHAR
STARTCHAR 224b
ENCODING 8779
SWIDTH 960 0
DWIDTH 12 0
BBX 12 12 0 -2
BITMAP
0000
4040
4040
2080
2080
1100
1100
0a00
0a00
0400
0400
0000
ENDCHAR
STARTCHAR 224c
ENCODING 8780
SWIDTH 960 0
DWIDTH 12 0
BBX 12 12 0 -2
BITMAP
0000
0000
0000
0000
0000
7fe0
0020
0020
0020
0000
0000
0000
ENDCHAR
STARTCHAR 224d
ENCODING 8781
SWIDTH 960 0
DWIDTH 12 0
BBX 12 12 0 -2
BITMAP
0000
0000
0080
0040
ffe0
0010
ffe0
0040
0080
0000
0000
0000
ENDCHAR
STARTCHAR 224e
ENCODING 8782
SWIDTH 960 0
DWIDTH 12 0
BBX 12 12 0 -2
BITMAP
0000
0000
1080
2040
7fe0
8010
7fe0
2040
1080
0000
0000
0000
ENDCHAR
STARTCHAR 224f
ENCODING 8783
SWIDTH 960 0
DWIDTH 12 0
BBX 12 12 0 -2
BITMAP
0000
4040
4040
2080
3f80
1100
1100
0a00
0a00
0400
0400
0000
ENDCHAR
STARTCHAR 2250
ENCODING 8784
SWIDTH 960 0
DWIDTH 12 0
BBX 12 12 0 -2
BITMAP
0000
3fc0
0040
0040
0040
3fc0
0040
0040
0040
3fc0
0000
0000
ENDCHAR
STARTCHAR 225c
ENCODING 8796
SWIDTH 960 0
DWIDTH 12 0
BBX 12 12 0 -2
BITMAP
0000
0040
0080
0100
0200
0400
0800
1000
2000
7fe0
0000
0000
ENDCHAR
STARTCHAR 225d
ENCODING 8797
SWIDTH 960 0
DWIDTH 12 0
BBX 12 12 0 -2
BITMAP
0000
0400
0400
0400
0400
0400
0400
0400
0400
7fe0
0000
0000
ENDCHAR
STARTCHAR 225e
ENCODING 8798
SWIDTH 960 0
DWIDTH 12 0
BBX 12 12 0 -2
BITMAP
0f00
30c0
4020
0000
0000
0000
0000
0000
0000
0000
0000
0000
ENDCHAR
STARTCHAR 225f
ENCODING 8799
SWIDTH 960 0
DWIDTH 12 0
BBX 12 12 0 -2
BITMAP
0000
0700
0880
0080
0680
0980
1180
3100
3300
1200
0c00
0000
ENDCHAR
STARTCHAR 2260
ENCODING 8800
SWIDTH 960 0
DWIDTH 12 0
BBX 12 12 0 -2
BITMAP
0000
ffe0
7fc0
6040
2080
3080
1100
1900
0a00
0e00
0400
0400
ENDCHAR
STARTCHAR 2261
ENCODING 8801
SWIDTH 960 0
DWIDTH 12 0
BBX 12 12 0 -2
BITMAP
0000
0000
0000
7fe0
0000
0000
7fe0
0000
0000
7fe0
0000
0000
ENDCHAR
STARTCHAR 2262
ENCODING 8802
SWIDTH 960 0
DWIDTH 12 0
BBX 12 12 0 -2
BITMAP
0000
1800
1800
0000
7fe0
0000
0000
7fe0
0000
0180
0180
0000
ENDCHAR
STARTCHAR 2263
ENCODING 8803
SWIDTH 960 0
DWIDTH 12 0
BBX 12 12 0 -2
BITMAP
0000
0000
0440
0880
1100
2200
4400
2200
1100
0880
0440
0000
ENDCHAR
STARTCHAR 2264
ENCODING 8804
SWIDTH 960 0
DWIDTH 12 0
BBX 12 12 0 -2
BITMAP
0000
0000
4400
2200
1100
0880
0440
0880
1100
2200
4400
0000
ENDCHAR
STARTCHAR 2265
ENCODING 8805
SWIDTH 960 0
DWIDTH 12 0
BBX 12 12 0 -2
BITMAP
03f0
0200
0200
0400
0400
0400
0800
4800
e800
3000
1000
0000
ENDCHAR
STARTCHAR 2266
ENCODING 8806
SWIDTH 960 0
DWIDTH 12 0
BBX 12 12 0 -2
BITMAP
0000
0000
0000
1980
2240
4220
4420
2440
1980
0000
0000
0000
ENDCHAR
STARTCHAR 2267
ENCODING 8807
SWIDTH 960 0
DWIDTH 12 0
BBX 12 12 0 -2
BITMAP
0000
0000
0000
18c0
2520
4200
4200
2520
18c0
0000
0000
0000
ENDCHAR
STARTCHAR 2268
ENCODING 8808
SWIDTH 960 0
DWIDTH 12 0
BBX 12 12 0 -2
BITMAP
0000
0000
6180
6180
0000
0000
0000
0000
0c00
0c00
0000
0000
ENDCHAR
STARTCHAR 2269
ENCODING 8809
SWIDTH 960 0
DWIDTH 12 0
BBX 12 12 0 -2
BITMAP
00c0
0100
0200
0200
0300
0300
0100
0180
0180
0080
0100
0600
ENDCHAR
STARTCHAR 226a
ENCODING 8810
SWIDTH 960 0
DWIDTH 12 0
BBX 12 12 0 -2
BITMAP
0660
0880
1100
1100
1980
1980
0880
0cc0
0cc0
0440
0880
3300
ENDCHAR
STARTCHAR 2272
ENCODING 8818
SWIDTH 960 0
DWIDTH 12 0
BBX 12 12 0 -2
BITMAP
0400
0a00
0a00
0400
0a00
0a00
1100
1f00
2080
2080
71c0
0000
ENDCHAR
STARTCHAR 2273
ENCODING 8819
SWIDTH 960 0
DWIDTH 12 0
BBX 12 12 0 -2
BITMAP
3100
4900
4a00
4c00
3400
0800
1000
1440
2aa0
4aa0
4440
0000
ENDCHAR
STARTCHAR 2274
ENCODING 8820
SWIDTH 960 0
DWIDTH 12 0
BBX 12 12 0 -2
BITMAP
0100
0100
09c0
0fc0
3f00
3900
09c0
0fc0
3f00
3900
0800
0800
ENDCHAR
STARTCHAR 2275
ENCODING 8821
SWIDTH 960 0
DWIDTH 12 0
BBX 12 12 0 -2
BITMAP
0800
0800
0800
0800
0800
0b00
0d80
0980
0900
0a00
0c00
0000
ENDCHAR
STARTCHAR 2276
ENCODING 8822
SWIDTH 960 0
DWIDTH 12 0
BBX 12 12 0 -2
BITMAP
0600
0500
0480
0440
0440
0480
0e00
1500
2100
2200
1c00
0000
ENDCHAR
STARTCHAR 2277
ENCODING 8823
SWIDTH 960 0
DWIDTH 12 0
BBX 12 12 0 -2
BITMAP
0400
0e00
2480
7fc0
2480
0e00
0e00
0400
0400
0400
0400
0400
ENDCHAR
STARTCHAR 2278
ENCODING 8824
SWIDTH 960 0
DWIDTH 12 0
BBX 12 12 0 -2
BITMAP
0e00
0e00
2480
7fc0
2480
0400
0400
2480
7fc0
2480
0e00
0e00
ENDCHAR
STARTCHAR 2279
ENCODING 8825
SWIDTH 960 0
DWIDTH 12 0
BBX 12 12 0 -2
BITMAP
0f00
1d00
1d00
1d00
0d00
0500
0500
0500
0500
0500
0500
0000
ENDCHAR
STARTCHAR 227e
ENCODING 8830
SWIDTH 960 0
DWIDTH 12 0
BBX 12 12 0 -2
BITMAP
0f00
30c0
4020
4020
8010
8010
8010
8010
4020
4020
30c0
0f00
ENDCHAR
STARTCHAR 2330
ENCODING 9008
SWIDTH 960 0
DWIDTH 12 0
BBX 12 12 0 -2
BITMAP
0000
0f00
1080
1040
2040
2040
2040
2040
2080
1080
0f00
0000
ENDCHAR
STARTCHAR 2331
ENCODING 9009
SWIDTH 960 0
DWIDTH 12 0
BBX 12 12 0 -2
BITMAP
0000
1800
0400
0400
0400
0400
0400
0400
0400
0400
0e00
0000
ENDCHAR
STARTCHAR 2332
ENCODING 9010
SWIDTH 960 0
DWIDTH 12 0
BBX 12 12 0 -2
BITMAP
0000
0e00
1100
2080
2080
0080
0100
0600
1800
2000
3f80
0000
ENDCHAR
STARTCHAR 2333
ENCODING 9011
SWIDTH 960 0
DWIDTH 12 0
BBX 12 12 0 -2
BITMAP
0000
1e00
2100
0080
0100
0600
0100
4080
4080
2100
1e00
0000
ENDCHAR
STARTCHAR 2334
ENCODING 9012
SWIDTH 960 0
DWIDTH 12 0
BBX 12 12 0 -2
BITMAP
0000
0200
0600
0a00
1200
2200
4200
4200
3f80
0200
0200
0000
ENDCHAR
STARTCHAR 2335
ENCODING 9013
SWIDTH 960 0
DWIDTH 12 0
BBX 12 12 0 -2
BITMAP
0000
1f80
2000
2000
2000
2000
1f00
0080
0080
2100
1e00
0000
ENDCHAR
STARTCHAR 2336
ENCODING 9014
SWIDTH 960 0
DWIDTH 12 0
BBX 12 12 0 -2
BITMAP
0000
0700
0880
1000
2e00
3180
2040
2040
2040
1080
0f00
0000
ENDCHAR
STARTCHAR 2337
ENCODING 9015
SWIDTH 960 0
DWIDTH 12 0
BBX 12 12 0 -2
BITMAP
0000
7f00
4080
4080
0100
0100
0200
0200
0200
0400
0400
0000
ENDCHAR
STARTCHAR 2338
ENCODING 9016
SWIDTH 960 0
DWIDTH 12 0
BBX 12 12 0 -2
BITMAP
0000
0f00
1080
2080
1080
0f00
1100
2080
2080
2100
1e00
0000
ENDCHAR
STARTCHAR 2339
ENCODING 9017
SWIDTH 960 0
DWIDTH 12 0
BBX 12 12 0 -2
BITMAP
0000
0f00
1080
2040
2040
2080
1f00
0100
0100
0100
0100
0000
ENDCHAR
STARTCHAR 2341
ENCODING 9025
SWIDTH 960 0
DWIDTH 12 0
BBX 12 12 0 -2
BITMAP
0000
0700
1880
2040
2040
2040
2040
2fe0
2040
2040
2040
0000
ENDCHAR
STARTCHAR 2342
ENCODING 9026
SWIDTH 960 0
DWIDTH 12 0
BBX 12 12 0 -2
BITMAP
0000
1e00
2100
2100
2e00
2180
2040
2040
2040
2180
3e00
0000
ENDCHAR
STARTCHAR 2343
ENCODING 9027
SWIDTH 960 0
DWIDTH 12 0
BBX 12 12 0 -2
BITMAP
0000
0e00
1100
2080
4000
4000
4000
4000
2040
1180
0e00
0000
ENDCHAR
STARTCHAR 2344
ENCODING 9028
SWIDTH 960 0
DWIDTH 12 0
BBX 12 12 0 -2
BITMAP
0000
1e00
2100
2080
2080
2040
2040
2080
2080
2100
3e00
0000
ENDCHAR
STARTCHAR 2345
ENCODING 9029
SWIDTH 960 0
DWIDTH 12 0
BBX 12 12 0 -2
BITMAP
0000
0fc0
1000
2000
2000
2000
3f00
2000
2000
2000
3fc0
0000
ENDCHAR
STARTCHAR 2346
ENCODING 9030
SWIDTH 960 0
DWIDTH 12 0
BBX 12 12 0 -2
BITMAP
0000
0fc0
1000
2000
2000
2000
7f00
2000
2000
2000
2000
0000
ENDCHAR
STARTCHAR 2347
ENCODING 9031
SWIDTH 960 0
DWIDTH 12 0
BBX 12 12 0 -2
BITMAP
0000
0e00
1180
2040
4000
4000
4000
43c0
2040
1880
0700
0000
ENDCHAR
STARTCHAR 2348
ENCODING 9032
SWIDTH 960 0
DWIDTH 12 0
BBX 12 12 0 -2
BITMAP
0000
2040
2040
2040
2040
2040
3fc0
2040
2040
2040
2040
0000
ENDCHAR
STARTCHAR 2349
ENCODING 9033
SWIDTH 960 0
DWIDTH 12 0
BBX 12 12 0 -2
BITMAP
0000
0e00
0400
0400
0400
0400
0400
0400
0400
0400
0e00
0000
ENDCHAR
STARTCHAR 234a
ENCODING 9034
SWIDTH 960 0
DWIDTH 12 0
BBX 12 12 0 -2
BITMAP
0000
01c0
0080
0080
0080
0080
0080
0080
4080
3100
0e00
0000
ENDCHAR
STARTCHAR 234b
ENCODING 9035
SWIDTH 960 0
DWIDTH 12 0
BBX 12 12 0 -2
BITMAP
0000
20c0
2100
2200
2400
2800
3400
2200
2100
2080
2060
0000
ENDCHAR
STARTCHAR 234c
ENCODING 9036
SWIDTH 960 0
DWIDTH 12 0
BBX 12 12 0 -2
BITMAP
0000
2000
2000
2000
2000
2000
2000
2000
2000
2000
1fc0
0000
ENDCHAR
STARTCHAR 234d
ENCODING 9037
SWIDTH 960 0
DWIDTH 12 0
BBX 12 12 0 -2
BITMAP
0000
4040
60c0
5140
4e40
4040
4040
4040
4040
4040
4040
0000
ENDCHAR
STARTCHAR 234e
ENCODING 9038
SWIDTH 960 0
DWIDTH 12 0
BBX 12 12 0 -2
BITMAP
0000
2040
3040
3040
2840
2840
2840
2440
2440
2240
2180
0000
ENDCHAR
STARTCHAR 234f
ENCODING 9039
SWIDTH 960 0
DWIDTH 12 0
BBX 12 12 0 -2
BITMAP
0000
0c00
1300
2080
4040
4040
4040
4040
2080
1100
0e00
0000
ENDCHAR
STARTCHAR 2350
ENCODING 9040
SWIDTH 960 0
DWIDTH 12 0
BBX 12 12 0 -2
BITMAP
0000
1c00
2300
2080
2080
2080
2100
3e00
2000
2000
2000
0000
ENDCHAR
STARTCHAR 2351
ENCODING 9041
SWIDTH 960 0
DWIDTH 12 0
BBX 12 12 0 -2
BITMAP
0000
0c00
1300
2080
4040
4040
4040
4240
2180
1100
0e80
0000
ENDCHAR
STARTCHAR 2352
ENCODING 9042
SWIDTH 960 0
DWIDTH 12 0
BBX 12 12 0 -2
BITMAP
0000
1c00
2300
2080
2080
2080
2100
3e00
2200
2100
2080
0000
ENDCHAR
STARTCHAR 2353
ENCODING 9043
SWIDTH 960 0
DWIDTH 12 0
BBX 12 12 0 -2
BITMAP
0000
1f00
2080
2000
1000
0f00
0080
0040
4040
3080
0f00
0000
ENDCHAR
STARTCHAR 2354
ENCODING 9044
SWIDTH 960 0
DWIDTH 12 0
BBX 12 12 0 -2
BITMAP
0000
7fe0
0400
0400
0400
0400
0400
0400
0400
0400
0400
0000
ENDCHAR
STARTCHAR 2355
ENCODING 9045
SWIDTH 960 0
DWIDTH 12 0
BBX 12 12 0 -2
BITMAP
0000
2080
2080
2080
2040
2040
2040
2040
2040
1080
0f00
0000
ENDCHAR
STARTCHAR 2356
ENCODING 9046
SWIDTH 960 0
DWIDTH 12 0
BBX 12 12 0 -2
BITMAP
0000
4040
4040
2080
2080
1100
1100
0a00
0a00
0400
0400
0000
ENDCHAR
STARTCHAR 2357
ENCODING 9047
SWIDTH 960 0
DWIDTH 12 0
BBX 12 12 0 -2
BITMAP
0000
4040
4040
4040
4040
4440
4440
4440
4440
2640
1980
0000
ENDCHAR
STARTCHAR 2358
ENCODING 9048
SWIDTH 960 0
DWIDTH 12 0
BBX 12 12 0 -2
BITMAP
0000
60c0
1100
0a00
0c00
0400
0400
0c00
0a00
1120
60c0
0000
ENDCHAR
STARTCHAR 2359
ENCODING 9049
SWIDTH 960 0
DWIDTH 12 0
BBX 12 12 0 -2
BITMAP
0000
4040
4040
4040
4040
2180
1e00
0400
0400
0400
0400
0000
ENDCHAR
STARTCHAR 235a
ENCODING 9050
SWIDTH 960 0
DWIDTH 12 0
BBX 12 12 0 -2
BITMAP
0000
3f00
0080
0100
0a00
0400
0600
0800
1000
2000
1fc0
0000
ENDCHAR
STARTCHAR 2361
ENCODING 9057
SWIDTH 960 0
DWIDTH 12 0
BBX 12 12 0 -2
BITMAP
0000
0000
0000
0000
0e00
1100
2080
2080
2080
1180
0e80
0000
ENDCHAR
STARTCHAR 2362
ENCODING 9058
SWIDTH 960 0
DWIDTH 12 0
BBX 12 12 0 -2
BITMAP
0000
2000
2000
2000
2e00
3100
2080
2080
2080
3100
2e00
0000
ENDCHAR
STARTCHAR 2363
ENCODING 9059
SWIDTH 960 0
DWIDTH 12 0
BBX 12 12 0 -2
BITMAP
0000
0000
0000
0000
0f00
1080
2000
2000
2000
1080
0f00
0000
ENDCHAR
STARTCHAR 2364
ENCODING 9060
SWIDTH 960 0
DWIDTH 12 0
BBX 12 12 0 -2
BITMAP
0000
0080
0080
0080
0e80
1180
2080
2080
2080
1180
0e80
0000
ENDCHAR
STARTCHAR 2365
ENCODING 9061
SWIDTH 960 0
DWIDTH 12 0
BBX 12 12 0 -2
BITMAP
0000
0000
0000
0000
0f00
1080
2040
3f80
2000
1080
0f00
0000
ENDCHAR
STARTCHAR 2366
ENCODING 9062
SWIDTH 960 0
DWIDTH 12 0
BBX 12 12 0 -2
BITMAP
0000
0700
0880
1000
1000
1000
3c00
1000
1000
1000
1000
0000
ENDCHAR
STARTCHAR 2367
ENCODING 9063
SWIDTH 960 0
DWIDTH 12 0
BBX 12 12 0 -2
BITMAP
0000
0000
0000
0000
0e00
1100
2080
2080
1180
0e80
0100
1e00
ENDCHAR
STARTCHAR 2368
ENCODING 9064
SWIDTH 960 0
DWIDTH 12 0
BBX 12 12 0 -2
BITMAP
0000
2000
2000
2000
2000
2e00
3100
2080
2080
2080
2080
0000
ENDCHAR
STARTCHAR 2369
ENCODING 9065
SWIDTH 960 0
DWIDTH 12 0
BBX 12 12 0 -2
BITMAP
0000
0c00
1200
0c00
0000
0400
0400
0400
0400
0400
0400
0000
ENDCHAR
STARTCHAR 236a
ENCODING 9066
SWIDTH 960 0
DWIDTH 12 0
BBX 12 12 0 -2
BITMAP
0000
0300
0480
0300
0000
0100
0100
0100
0100
0100
2200
1c00
ENDCHAR
STARTCHAR 236b
ENCODING 9067
SWIDTH 960 0
DWIDTH 12 0
BBX 12 12 0 -2
BITMAP
0000
2000
2000
2000
2180
2200
2c00
3800
2400
2300
20c0
0000
ENDCHAR
STARTCHAR 236c
ENCODING 9068
SWIDTH 960 0
DWIDTH 12 0
BBX 12 12 0 -2
BITMAP
0000
0400
0400
0400
0400
0400
0400
0400
0400
0400
0300
0000
ENDCHAR
STARTCHAR 236d
ENCODING 9069
SWIDTH 960 0
DWIDTH 12 0
BBX 12 12 0 -2
BITMAP
0000
0000
0000
0000
5980
6640
4440
4440
4440
4440
4440
0000
ENDCHAR
STARTCHAR 236e
ENCODING 9070
SWIDTH 960 0
DWIDTH 12 0
BBX 12 12 0 -2
BITMAP
0000
0000
0000
0000
2e00
3100
2080
2080
2080
2080
2080
0000
ENDCHAR
STARTCHAR 236f
ENCODING 9071
SWIDTH 960 0
DWIDTH 12 0
BBX 12 12 0 -2
BITMAP
0000
0000
0000
0000
0e00
1100
2080
2080
2080
1100
0e00
0000
ENDCHAR
STARTCHAR 2370
ENCODING 9072
SWIDTH 960 0
DWIDTH 12 0
BBX 12 12 0 -2
BITMAP
0000
0000
0000
0000
0f00
3080
2040
2040
3080
2f00
2000
2000
ENDCHAR
STARTCHAR 2371
ENCODING 9073
SWIDTH 960 0
DWIDTH 12 0
BBX 12 12 0 -2
BITMAP
0000
0000
0000
0000
0f00
10c0
2040
2040
10c0
0f40
0040
0040
ENDCHAR
STARTCHAR 2372
ENCODING 9074
SWIDTH 960 0
DWIDTH 12 0
BBX 12 12 0 -2
BITMAP
0000
0000
0000
2000
2000
2f00
3080
2000
2000
2000
2000
0000
ENDCHAR
STARTCHAR 2373
ENCODING 9075
SWIDTH 960 0
DWIDTH 12 0
BBX 12 12 0 -2
BITMAP
0000
0000
0000
0000
1e00
2180
1000
0c00
0300
6080
1f00
0000
ENDCHAR
STARTCHAR 2374
ENCODING 9076
SWIDTH 960 0
DWIDTH 12 0
BBX 12 12 0 -2
BITMAP
0000
1000
1000
1000
3e00
1000
1000
1000
1000
0880
0700
0000
ENDCHAR
STARTCHAR 2375
ENCODING 9077
SWIDTH 960 0
DWIDTH 12 0
BBX 12 12 0 -2
BITMAP
0000
0000
0000
0000
2080
2080
2080
2080
2080
1180
0e80
0000
ENDCHAR
STARTCHAR 2376
ENCODING 9078
SWIDTH 960 0
DWIDTH 12 0
BBX 12 12 0 -2
BITMAP
0000
0000
0000
0000
4080
2080
2100
1100
1200
0a00
0400
0000
ENDCHAR
STARTCHAR 2377
ENCODING 9079
SWIDTH 960 0
DWIDTH 12 0
BBX 12 12 0 -2
BITMAP
0000
0000
0000
0000
4040
4040
4040
4440
4440
2640
1980
0000
ENDCHAR
STARTCHAR 2378
ENCODING 9080
SWIDTH 960 0
DWIDTH 12 0
BBX 12 12 0 -2
BITMAP
0000
0000
0000
0000
3180
4a00
0400
0400
0400
0a40
7180
0000
ENDCHAR
STARTCHAR 2379
ENCODING 9081
SWIDTH 960 0
DWIDTH 12 0
BBX 12 12 0 -2
BITMAP
0000
0000
0000
0000
2080
4080
4080
4080
2180
1e80
0100
1e00
ENDCHAR
STARTCHAR 237a
ENCODING 9082
SWIDTH 960 0
DWIDTH 12 0
BBX 12 12 0 -2
BITMAP
0000
0000
0000
0000
3f00
0080
0900
0600
0a00
1000
7f80
0000
ENDCHAR
STARTCHAR 2421
ENCODING 9249
SWIDTH 960 0
DWIDTH 12 0
BBX 12 12 0 -2
BITMAP
0000
0000
0000
0000
0800
3f00
0a00
1f00
2a80
2480
1880
0000
ENDCHAR
STARTCHAR 2422
ENCODING 9250
SWIDTH 960 0
DWIDTH 12 0
BBX 12 12 0 -2
BITMAP
0800
0800
7fc0
0880
0f00
1980
2940
4a40
4640
2440
1800
0000
ENDCHAR
STARTCHAR 2423
ENCODING 9251
SWIDTH 960 0
DWIDTH 12 0
BBX 12 12 0 -2
BITMAP
0000
0000
0000
0000
0000
1000
2040
2040
1240
0c00
0000
0000
ENDCHAR
STARTCHAR 2424
ENCODING 9252
SWIDTH 960 0
DWIDTH 12 0
BBX 12 12 0 -2
BITMAP
0000
0000
2000
4080
4040
4040
4040
4040
2440
1800
0000
0000
ENDCHAR
STARTCHAR 2425
ENCODING 9253
SWIDTH 960 0
DWIDTH 12 0
BBX 12 12 0 -2
BITMAP
0000
0000
0000
0000
1000
0800
3c00
4200
0200
0400
1800
0000
ENDCHAR
STARTCHAR 2426
ENCODING 9254
SWIDTH 960 0
DWIDTH 12 0
BBX 12 12 0 -2
BITMAP
0400
0400
0200
0f00
3280
4240
0040
0040
0080
0300
0c00
0000
ENDCHAR
STARTCHAR 2427
ENCODING 9255
SWIDTH 960 0
DWIDTH 12 0
BBX 12 12 0 -2
BITMAP
0000
0000
0000
0000
0e00
0000
3f00
0400
1800
3c80
4300
0000
ENDCHAR
STARTCHAR 2428
ENCODING 9256
SWIDTH 960 0
DWIDTH 12 0
BBX 12 12 0 -2
BITMAP
1800
0600
0000
7f80
0100
0200
0400
0800
3c00
6220
01c0
0000
ENDCHAR
STARTCHAR 2429
ENCODING 9257
SWIDTH 960 0
DWIDTH 12 0
BBX 12 12 0 -2
BITMAP
0000
0000
0000
0000
0800
7e00
0900
3c80
4a00
4900
3100
0000
ENDCHAR
STARTCHAR 242a
ENCODING 9258
SWIDTH 960 0
DWIDTH 12 0
BBX 12 12 0 -2
BITMAP
0400
0400
3fc0
0400
0440
1f60
2480
4440
4440
4880
3000
0000
ENDCHAR
STARTCHAR 242b
ENCODING 9259
SWIDTH 960 0
DWIDTH 12 0
BBX 12 12 0 -2
BITMAP
0000
0800
0800
7e00
0900
1080
13c0
20b0
2100
4200
4000
0000
ENDCHAR
STARTCHAR 242c
ENCODING 9260
SWIDTH 960 0
DWIDTH 12 0
BBX 12 12 0 -2
BITMAP
0000
08a0
08a0
7e00
0900
1080
13c0
20b0
2100
4200
4000
0000
ENDCHAR
STARTCHAR 242d
ENCODING 9261
SWIDTH 960 0
DWIDTH 12 0
BBX 12 12 0 -2
BITMAP
0400
0400
3f00
0200
3fc0
0200
0100
2100
4000
20c0
1f00
0000
ENDCHAR
STARTCHAR 242e
ENCODING 9262
SWIDTH 960 0
DWIDTH 12 0
BBX 12 12 0 -2
BITMAP
0400
04a0
3fa0
0200
3fc0
0200
0100
2100
4000
20c0
1f00
0000
ENDCHAR
STARTCHAR 242f
ENCODING 9263
SWIDTH 960 0
DWIDTH 12 0
BBX 12 12 0 -2
BITMAP
0000
0200
0400
0800
1000
2000
2000
1000
0800
0600
0180
0000
ENDCHAR
STARTCHAR 2430
ENCODING 9264
SWIDTH 960 0
DWIDTH 12 0
BBX 12 12 0 -2
BITMAP
0000
0200
0400
08a0
10a0
2000
2000
1000
0800
0600
0180
0000
ENDCHAR
STARTCHAR 2431
ENCODING 9265
SWIDTH 960 0
DWIDTH 12 0
BBX 12 12 0 -2
BITMAP
0100
0080
4080
47e0
4080
4080
4080
2080
2080
0100
0600
0000
ENDCHAR
STARTCHAR 2432
ENCODING 9266
SWIDTH 960 0
DWIDTH 12 0
BBX 12 12 0 -2
BITMAP
0200
0150
4150
47e0
4080
4080
4080
2080
2080
0100
0600
0000
ENDCHAR
STARTCHAR 2433
ENCODING 9267
SWIDTH 960 0
DWIDTH 12 0
BBX 12 12 0 -2
BITMAP
0000
0000
1f00
0080
0100
0000
4000
4040
2040
1f80
0000
0000
ENDCHAR
STARTCHAR 2434
ENCODING 9268
SWIDTH 960 0
DWIDTH 12 0
BBX 12 12 0 -2
BITMAP
0000
00a0
1f20
0080
0100
0000
4000
4040
2040
1f80
0000
0000
ENDCHAR
STARTCHAR 2435
ENCODING 9269
SWIDTH 960 0
DWIDTH 12 0
BBX 12 12 0 -2
BITMAP
0400
0400
0200
3fc0
0200
0200
0100
4100
4000
30c0
0f00
0000
ENDCHAR
STARTCHAR 2436
ENCODING 9270
SWIDTH 960 0
DWIDTH 12 0
BBX 12 12 0 -2
BITMAP
0400
04a0
02a0
3fc0
0200
0200
0100
4100
4000
30c0
0f00
0000
ENDCHAR
STARTCHAR 2437
ENCODING 9271
SWIDTH 960 0
DWIDTH 12 0
BBX 12 12 0 -2
BITMAP
0000
2000
2000
2000
2000
2000
2000
2000
2040
1180
0e00
0000
ENDCHAR
STARTCHAR 2438
ENCODING 9272
SWIDTH 960 0
DWIDTH 12 0
BBX 12 12 0 -2
BITMAP
0000
2000
2280
2280
2000
2000
2000
2000
2040
1180
0e00
0000
ENDCHAR
STARTCHAR 2439
ENCODING 9273
SWIDTH 960 0
DWIDTH 12 0
BBX 12 12 0 -2
BITMAP
0100
0100
7fe0
0100
0f00
1080
1080
1100
0e00
0200
0200
0000
ENDCHAR
STARTCHAR 243a
ENCODING 9274
SWIDTH 960 0
DWIDTH 12 0
BBX 12 12 0 -2
BITMAP
0150
0150
7fe0
0100
0f00
1080
1080
1100
0e00
0200
0200
0000
ENDCHAR
STARTCHAR 243b
ENCODING 9275
SWIDTH 960 0
DWIDTH 12 0
BBX 12 12 0 -2
BITMAP
0000
2100
2100
2100
ffe0
2100
2100
2100
2000
10c0
0f00
0000
ENDCHAR
STARTCHAR 243c
ENCODING 9276
SWIDTH 960 0
DWIDTH 12 0
BBX 12 12 0 -2
BITMAP
0000
2100
2150
2150
ffe0
2100
2100
2100
2000
10c0
0f00
0000
ENDCHAR
STARTCHAR 243d
ENCODING 9277
SWIDTH 960 0
DWIDTH 12 0
BBX 12 12 0 -2
BITMAP
0000
1e00
0100
0200
0c00
7fe0
0800
1000
2000
1040
0f80
0000
ENDCHAR
STARTCHAR 243e
ENCODING 9278
SWIDTH 960 0
DWIDTH 12 0
BBX 12 12 0 -2
BITMAP
0000
1e00
0100
0650
1850
7fe0
0800
1000
2000
1040
0f80
0000
ENDCHAR
STARTCHAR 243f
ENCODING 9279
SWIDTH 960 0
DWIDTH 12 0
BBX 12 12 0 -2
BITMAP
1000
1000
7e00
1000
1780
2040
2080
2000
4000
4c60
4380
0000
ENDCHAR
STARTCHAR 2440
ENCODING 9280
SWIDTH 960 0
DWIDTH 12 0
BBX 12 12 0 -2
BITMAP
1000
10a0
7ea0
1000
1780
2040
2080
2000
4000
4c60
4380
0000
ENDCHAR
STARTCHAR 2441
ENCODING 9281
SWIDTH 960 0
DWIDTH 12 0
BBX 12 12 0 -2
BITMAP
1000
1000
ff00
1000
1000
1000
2f00
3080
0040
3180
0e00
0000
ENDCHAR
STARTCHAR 2442
ENCODING 9282
SWIDTH 960 0
DWIDTH 12 0
BBX 12 12 0 -2
BITMAP
1000
10a0
ffa0
1000
1000
1000
2f00
3080
0040
3180
0e00
0000
ENDCHAR
STARTCHAR 2443
ENCODING 9283
SWIDTH 960 0
DWIDTH 12 0
BBX 12 12 0 -2
BITMAP
0000
0000
0000
0000
0000
0000
3f00
0080
0080
0100
0e00
0000
ENDCHAR
STARTCHAR 2444
ENCODING 9284
SWIDTH 960 0
DWIDTH 12 0
BBX 12 12 0 -2
BITMAP
0000
0000
0000
1f00
6080
0040
0040
0080
0300
1c00
0000
0000
ENDCHAR
STARTCHAR 2445
ENCODING 9285
SWIDTH 960 0
DWIDTH 12 0
BBX 12 12 0 -2
BITMAP
0000
0000
00a0
3ea0
c100
0080
0080
0100
0600
3800
0000
0000
ENDCHAR
STARTCHAR 2446
ENCODING 9286
SWIDTH 960 0
DWIDTH 12 0
BBX 12 12 0 -2
BITMAP
0000
1f80
60c0
0300
0400
0800
1000
1000
0c00
0380
0000
0000
ENDCHAR
STARTCHAR 2447
ENCODING 9287
SWIDTH 960 0
DWIDTH 12 0
BBX 12 12 0 -2
BITMAP
0000
1f80
60c0
03a0
04a0
0800
1000
1000
0c00
0380
0000
0000
ENDCHAR
STARTCHAR 2448
ENCODING 9288
SWIDTH 960 0
DWIDTH 12 0
BBX 12 12 0 -2
BITMAP
0000
2000
2000
1000
11c0
0e00
1400
2200
2000
10c0
0f00
0000
ENDCHAR
STARTCHAR 2449
ENCODING 9289
SWIDTH 960 0
DWIDTH 12 0
BBX 12 12 0 -2
BITMAP
0000
2140
2140
1000
11c0
0e00
1400
2200
2000
10c0
0f00
0000
ENDCHAR
STARTCHAR 244a
ENCODING 9290
SWIDTH 960 0
DWIDTH 12 0
BBX 12 12 0 -2
BITMAP
0400
0800
7d80
1060
2080
2080
4780
48c0
10a0
0880
0700
0000
ENDCHAR
STARTCHAR 244b
ENCODING 9291
SWIDTH 960 0
DWIDTH 12 0
BBX 12 12 0 -2
BITMAP
0000
2000
2700
48c0
4040
4080
4000
4000
4c20
23c0
2000
0000
ENDCHAR
STARTCHAR 244c
ENCODING 9292
SWIDTH 960 0
DWIDTH 12 0
BBX 12 12 0 -2
BITMAP
0000
2100
2100
2f00
3180
2240
5240
55c0
4a60
4a40
3180
0000
ENDCHAR
STARTCHAR 244d
ENCODING 9293
SWIDTH 960 0
DWIDTH 12 0
BBX 12 12 0 -2
BITMAP
1000
1000
1000
7c00
1380
1c40
3040
51c0
1260
1240
1180
0000
ENDCHAR
STARTCHAR 244e
ENCODING 9294
SWIDTH 960 0
DWIDTH 12 0
BBX 12 12 0 -2
BITMAP
0000
0400
0f80
3240
4220
4220
4220
2420
1840
0080
0000
0000
ENDCHAR
STARTCHAR 244f
ENCODING 9295
SWIDTH 960 0
DWIDTH 12 0
BBX 12 12 0 -2
BITMAP
0000
0080
5fe0
4080
4080
4080
4f80
50e0
5080
4880
2700
0000
ENDCHAR
STARTCHAR 2450
ENCODING 9296
SWIDTH 960 0
DWIDTH 12 0
BBX 12 12 0 -2
BITMAP
0000
0150
4150
5fe0
4080
4080
4f80
50e0
5080
4880
2700
0000
ENDCHAR
STARTCHAR 2451
ENCODING 9297
SWIDTH 960 0
DWIDTH 12 0
BBX 12 12 0 -2
BITMAP
0060
4190
4160
5fe0
4080
4080
4f80
50e0
5080
4880
2700
0000
ENDCHAR
STARTCHAR 2452
ENCODING 9298
SWIDTH 960 0
DWIDTH 12 0
BBX 12 12 0 -2
BITMAP
0000
0000
7800
0400
0800
1040
20a0
2080
2080
1100
0e00
0000
ENDCHAR
STARTCHAR 2453
ENCODING 9299
SWIDTH 960 0
DWIDTH 12 0
BBX 12 12 0 -2
BITMAP
0000
0000
78a0
04a0
0800
1040
20a0
2080
2080
1100
0e00
0000
ENDCHAR
STARTCHAR 2454
ENCODING 9300
SWIDTH 960 0
DWIDTH 12 0
BBX 12 12 0 -2
BITMAP
0000
0060
7890
0460
0800
1040
20a0
2080
2080
1100
0e00
0000
ENDCHAR
STARTCHAR 2455
ENCODING 9301
SWIDTH 960 0
DWIDTH 12 0
BBX 12 12 0 -2
BITMAP
0000
0e00
0100
0200
0400
0880
2440
2220
2120
4100
1e00
0000
ENDCHAR
STARTCHAR 2456
ENCODING 9302
SWIDTH 960 0
DWIDTH 12 0
BBX 12 12 0 -2
BITMAP
0000
0ea0
01a0
0200
0400
0880
2440
2220
2120
4100
1e00
0000
ENDCHAR
STARTCHAR 2457
ENCODING 9303
SWIDTH 960 0
DWIDTH 12 0
BBX 12 12 0 -2
BITMAP
0000
0ec0
0120
02c0
0400
0880
2440
2220
2120
4100
1e00
0000
ENDCHAR
STARTCHAR 2458
ENCODING 9304
SWIDTH 960 0
DWIDTH 12 0
BBX 12 12 0 -2
BITMAP
0000
0000
1c00
2300
4080
4040
4040
0020
0020
0000
0000
0000
ENDCHAR
STARTCHAR 2459
ENCODING 9305
SWIDTH 960 0
DWIDTH 12 0
BBX 12 12 0 -2
BITMAP
0000
00a0
1ca0
2300
4080
4040
4040
0020
0020
0000
0000
0000
ENDCHAR
STARTCHAR 245a
ENCODING 9306
SWIDTH 960 0
DWIDTH 12 0
BBX 12 12 0 -2
BITMAP
0000
00c0
0120
1cc0
2300
4080
4040
4020
0020
0020
0000
0000
ENDCHAR
STARTCHAR 245b
ENCODING 9307
SWIDTH 960 0
DWIDTH 12 0
BBX 12 12 0 -2
BITMAP
0000
0fe0
4080
4080
4fe0
4080
4f80
50e0
5080
4880
2700
0000
ENDCHAR
STARTCHAR 245c
ENCODING 9308
SWIDTH 960 0
DWIDTH 12 0
BBX 12 12 0 -2
BITMAP
0050
0fd0
4080
4080
4fe0
4080
4f80
50e0
5080
4880
2700
0000
ENDCHAR
STARTCHAR 245d
ENCODING 9309
SWIDTH 960 0
DWIDTH 12 0
BBX 12 12 0 -2
BITMAP
0060
0f90
40e0
4080
4fe0
4080
4f80
50e0
5080
4880
2700
0000
ENDCHAR
STARTCHAR 245e
ENCODING 9310
SWIDTH 960 0
DWIDTH 12 0
BBX 12 12 0 -2
BITMAP
0200
0200
7fc0
0200
0200
7fc0
0200
3e00
4380
4260
3c00
0000
ENDCHAR
STARTCHAR 245f
ENCODING 9311
SWIDTH 960 0
DWIDTH 12 0
BBX 12 12 0 -2
BITMAP
0000
7000
0880
0480
0480
3fe0
4480
8480
8880
7100
0000
0000
ENDCHAR
STARTCHAR 2460
ENCODING 9312
SWIDTH 960 0
DWIDTH 12 0
BBX 12 12 0 -2
BITMAP
0400
0400
3f80
0400
0440
0440
3420
4c00
4420
4c40
3380
0000
ENDCHAR
STARTCHAR 2461
ENCODING 9313
SWIDTH 960 0
DWIDTH 12 0
BBX 12 12 0 -2
BITMAP
0000
1200
1f80
1240
3220
5220
5420
4c40
4840
3080
0300
0000
ENDCHAR
STARTCHAR 2462
ENCODING 9314
SWIDTH 960 0
DWIDTH 12 0
BBX 12 12 0 -2
BITMAP
1000
1000
7f00
1000
1000
7f00
1000
1040
1040
0880
0700
0000
ENDCHAR
STARTCHAR 2463
ENCODING 9315
SWIDTH 960 0
DWIDTH 12 0
BBX 12 12 0 -2
BITMAP
0000
0000
0000
0000
0a00
0b80
3d40
0840
0580
0400
0400
0000
ENDCHAR
STARTCHAR 2464
ENCODING 9316
SWIDTH 960 0
DWIDTH 12 0
BBX 12 12 0 -2
BITMAP
0000
2200
2200
ff80
2240
2020
1040
1180
1000
0800
0800
0000
ENDCHAR
STARTCHAR 2465
ENCODING 9317
SWIDTH 960 0
DWIDTH 12 0
BBX 12 12 0 -2
BITMAP
0000
0000
0000
0000
0200
2780
2a40
3240
2780
0200
0200
0000
ENDCHAR
STARTCHAR 2466
ENCODING 9318
SWIDTH 960 0
DWIDTH 12 0
BBX 12 12 0 -2
BITMAP
0200
0200
4780
5a40
6220
4a20
4a40
4780
0200
0200
0400
0000
ENDCHAR
STARTCHAR 2467
ENCODING 9319
SWIDTH 960 0
DWIDTH 12 0
BBX 12 12 0 -2
BITMAP
0000
0000
0000
0000
0400
0780
0400
0400
3e00
4580
3800
0000
ENDCHAR
STARTCHAR 2468
ENCODING 9320
SWIDTH 960 0
DWIDTH 12 0
BBX 12 12 0 -2
BITMAP
0400
0400
0400
07c0
0400
0400
3f00
42c0
4200
2200
1c00
0000
ENDCHAR
STARTCHAR 2469
ENCODING 9321
SWIDTH 960 0
DWIDTH 12 0
BBX 12 12 0 -2
BITMAP
0000
0c00
0300
2000
2000
2f00
1080
0040
4040
3180
0e00
0000
ENDCHAR
STARTCHAR 246a
ENCODING 9322
SWIDTH 960 0
DWIDTH 12 0
BBX 12 12 0 -2
BITMAP
0100
1080
2080
2080
2080
1c80
0080
0080
0100
0200
1c00
0000
ENDCHAR
STARTCHAR 246b
ENCODING 9323
SWIDTH 960 0
DWIDTH 12 0
BBX 12 12 0 -2
BITMAP
0000
7c00
0200
0400
0800
1e00
0180
3840
4440
4580
3e00
0000
ENDCHAR
STARTCHAR 246c
ENCODING 9324
SWIDTH 960 0
DWIDTH 12 0
BBX 12 12 0 -2
BITMAP
1000
1000
7980
1640
1840
7040
1080
1080
1080
1060
1000
0000
ENDCHAR
STARTCHAR 246d
ENCODING 9325
SWIDTH 960 0
DWIDTH 12 0
BBX 12 12 0 -2
BITMAP
0000
3c00
0200
0400
1800
3f00
0080
0040
0040
6080
1f00
0000
ENDCHAR
STARTCHAR 246e
ENCODING 9326
SWIDTH 960 0
DWIDTH 12 0
BBX 12 12 0 -2
BITMAP
0000
0000
0000
0000
0800
1c00
0b80
0c40
1840
2880
0900
0000
ENDCHAR
STARTCHAR 246f
ENCODING 9327
SWIDTH 960 0
DWIDTH 12 0
BBX 12 12 0 -2
BITMAP
1000
1000
7c00
1380
1c40
3020
5020
1020
1020
1040
1080
0000
ENDCHAR
STARTCHAR 2470
ENCODING 9328
SWIDTH 960 0
DWIDTH 12 0
BBX 12 12 0 -2
BITMAP
0000
3c00
0200
0200
1f00
2480
4440
8840
93c0
6440
03a0
0000
ENDCHAR
STARTCHAR 2471
ENCODING 9329
SWIDTH 960 0
DWIDTH 12 0
BBX 12 12 0 -2
BITMAP
0000
3f80
0200
0f80
3040
0e40
1180
0e00
0000
2cc0
4320
0000
ENDCHAR
STARTCHAR 2472
ENCODING 9330
SWIDTH 960 0
DWIDTH 12 0
BBX 12 12 0 -2
BITMAP
0800
0800
ffc0
0800
0f00
0880
1880
2700
2000
20c0
1f00
0000
ENDCHAR
STARTCHAR 2473
ENCODING 9331
SWIDTH 960 0
DWIDTH 12 0
BBX 12 12 0 -2
BITMAP
0000
0800
1000
1000
2000
2000
2040
4020
4c20
7240
4180
0000
ENDCHAR
STARTCHAR 2521
ENCODING 9505
SWIDTH 960 0
DWIDTH 12 0
BBX 12 12 0 -2
BITMAP
0000
0000
0000
0000
1f00
6480
0480
0700
0400
0400
0800
0000
ENDCHAR
STARTCHAR 2522
ENCODING 9506
SWIDTH 960 0
DWIDTH 12 0
BBX 12 12 0 -2
BITMAP
0000
1f00
e080
0840
0840
0980
0e00
0800
0800
1000
2000
0000
ENDCHAR
STARTCHAR 2523
ENCODING 9507
SWIDTH 960 0
DWIDTH 12 0
BBX 12 12 0 -2
BITMAP
0000
0000
0000
0000
0000
0180
0600
1c00
2400
0400
0400
0000
ENDCHAR
STARTCHAR 2524
ENCODING 9508
SWIDTH 960 0
DWIDTH 12 0
BBX 12 12 0 -2
BITMAP
0000
00e0
0300
0e00
3200
4200
0200
0200
0200
0200
0200
0000
ENDCHAR
STARTCHAR 2525
ENCODING 9509
SWIDTH 960 0
DWIDTH 12 0
BBX 12 12 0 -2
BITMAP
0000
0000
0000
0000
0800
0800
1e00
2100
2100
0200
1c00
0000
ENDCHAR
STARTCHAR 2526
ENCODING 9510
SWIDTH 960 0
DWIDTH 12 0
BBX 12 12 0 -2
BITMAP
0400
0400
0400
3f80
4040
4040
2040
0040
0080
0300
1c00
0000
ENDCHAR
STARTCHAR 2527
ENCODING 9511
SWIDTH 960 0
DWIDTH 12 0
BBX 12 12 0 -2
BITMAP
0000
0000
0000
0000
0000
0000
1f00
0400
0400
3f80
0000
0000
ENDCHAR
STARTCHAR 2528
ENCODING 9512
SWIDTH 960 0
DWIDTH 12 0
BBX 12 12 0 -2
BITMAP
0000
0000
0000
7fc0
0420
0400
0400
0400
0400
7fe0
0000
0000
ENDCHAR
STARTCHAR 2529
ENCODING 9513
SWIDTH 960 0
DWIDTH 12 0
BBX 12 12 0 -2
BITMAP
0000
0000
0000
0000
0200
0200
3f80
0600
0a00
3200
0200
0000
ENDCHAR
STARTCHAR 252a
ENCODING 9514
SWIDTH 960 0
DWIDTH 12 0
BBX 12 12 0 -2
BITMAP
0100
0100
0100
7fe0
0100
0100
0300
0500
1900
6100
0100
0000
ENDCHAR
STARTCHAR 252b
ENCODING 9515
SWIDTH 960 0
DWIDTH 12 0
BBX 12 12 0 -2
BITMAP
0400
0400
0400
3f80
0840
0840
0840
1040
1080
2080
2100
0000
ENDCHAR
STARTCHAR 252c
ENCODING 9516
SWIDTH 960 0
DWIDTH 12 0
BBX 12 12 0 -2
BITMAP
0400
04a0
04a0
3f80
0840
0840
0840
1040
1080
2080
2100
0000
ENDCHAR
STARTCHAR 252d
ENCODING 9517
SWIDTH 960 0
DWIDTH 12 0
BBX 12 12 0 -2
BITMAP
0800
0800
0b80
7c00
0400
07c0
7c00
0400
0200
0200
0200
0000
ENDCHAR
STARTCHAR 252e
ENCODING 9518
SWIDTH 960 0
DWIDTH 12 0
BBX 12 12 0 -2
BITMAP
08a0
08a0
0b80
7c00
0400
07c0
7c00
0400
0200
0200
0200
0000
ENDCHAR
STARTCHAR 252f
ENCODING 9519
SWIDTH 960 0
DWIDTH 12 0
BBX 12 12 0 -2
BITMAP
0000
0000
1f80
1040
1040
2040
2040
0080
0100
0600
1800
0000
ENDCHAR
STARTCHAR 2530
ENCODING 9520
SWIDTH 960 0
DWIDTH 12 0
BBX 12 12 0 -2
BITMAP
00a0
00a0
1f80
1040
1040
2040
2040
0080
0100
0600
1800
0000
ENDCHAR
STARTCHAR 2531
ENCODING 9521
SWIDTH 960 0
DWIDTH 12 0
BBX 12 12 0 -2
BITMAP
0000
2000
2000
3fc0
2100
2100
4100
4200
0200
0400
3800
0000
ENDCHAR
STARTCHAR 2532
ENCODING 9522
SWIDTH 960 0
DWIDTH 12 0
BBX 12 12 0 -2
BITMAP
0000
2050
2050
3fc0
2100
2100
4100
4200
0200
0400
3800
0000
ENDCHAR
STARTCHAR 2533
ENCODING 9523
SWIDTH 960 0
DWIDTH 12 0
BBX 12 12 0 -2
BITMAP
0000
0000
3f00
0080
0040
0040
0040
0040
0040
3f80
0000
0000
ENDCHAR
STARTCHAR 2534
ENCODING 9524
SWIDTH 960 0
DWIDTH 12 0
BBX 12 12 0 -2
BITMAP
0000
00a0
7ea0
0100
0080
0080
0080
0080
0080
7f00
0000
0000
ENDCHAR
STARTCHAR 2535
ENCODING 9525
SWIDTH 960 0
DWIDTH 12 0
BBX 12 12 0 -2
BITMAP
0000
1080
1080
1080
7fe0
1080
1080
0880
0080
2100
1e00
0000
ENDCHAR
STARTCHAR 2536
ENCODING 9526
SWIDTH 960 0
DWIDTH 12 0
BBX 12 12 0 -2
BITMAP
0000
2150
2150
2100
ffc0
2100
2100
1100
0100
4200
3c00
0000
ENDCHAR
STARTCHAR 2537
ENCODING 9527
SWIDTH 960 0
DWIDTH 12 0
BBX 12 12 0 -2
BITMAP
0000
0000
3000
0c00
0000
6040
1840
0080
0100
8600
7800
0000
ENDCHAR
STARTCHAR 2538
ENCODING 9528
SWIDTH 960 0
DWIDTH 12 0
BBX 12 12 0 -2
BITMAP
0000
00a0
30a0
0c00
0000
6040
1840
0080
0100
8600
7800
0000
ENDCHAR
STARTCHAR 2539
ENCODING 9529
SWIDTH 960 0
DWIDTH 12 0
BBX 12 12 0 -2
BITMAP
0000
0000
1f00
6080
0080
0100
0200
0700
0880
3040
4020
0000
ENDCHAR
STARTCHAR 253a
ENCODING 9530
SWIDTH 960 0
DWIDTH 12 0
BBX 12 12 0 -2
BITMAP
0000
00a0
1fa0
6080
0080
0100
0200
0700
0880
3040
4020
0000
ENDCHAR
STARTCHAR 253b
ENCODING 9531
SWIDTH 960 0
DWIDTH 12 0
BBX 12 12 0 -2
BITMAP
0000
1000
1000
1780
f840
1040
1080
1300
1000
1040
0f80
0000
ENDCHAR
STARTCHAR 253c
ENCODING 9532
SWIDTH 960 0
DWIDTH 12 0
BBX 12 12 0 -2
BITMAP
0000
10a0
10a0
1780
f840
1040
1080
1300
1000
1040
0f80
0000
ENDCHAR
STARTCHAR 253d
ENCODING 9533
SWIDTH 960 0
DWIDTH 12 0
BBX 12 12 0 -2
BITMAP
0000
0000
4000
4040
2040
1040
0880
0080
0100
4600
3800
0000
ENDCHAR
STARTCHAR 253e
ENCODING 9534
SWIDTH 960 0
DWIDTH 12 0
BBX 12 12 0 -2
BITMAP
0000
00a0
40a0
4040
2040
1040
0880
0080
0100
4600
3800
0000
ENDCHAR
STARTCHAR 253f
ENCODING 9535
SWIDTH 960 0
DWIDTH 12 0
BBX 12 12 0 -2
BITMAP
0000
0000
1f80
1040
2040
4840
0880
0780
0100
0600
3800
0000
ENDCHAR
STARTCHAR 2540
ENCODING 9536
SWIDTH 960 0
DWIDTH 12 0
BBX 12 12 0 -2
BITMAP
0000
0050
1fd0
1040
2040
4840
0880
0780
0100
0600
3800
0000
ENDCHAR
STARTCHAR 2541
ENCODING 9537
SWIDTH 960 0
DWIDTH 12 0
BBX 12 12 0 -2
BITMAP
0000
0380
0e00
7200
0200
ffe0
0200
0200
0200
0400
3800
0000
ENDCHAR
STARTCHAR 2542
ENCODING 9538
SWIDTH 960 0
DWIDTH 12 0
BBX 12 12 0 -2
BITMAP
0000
03a0
0ea0
7200
0200
ffe0
0200
0200
0200
0400
3800
0000
ENDCHAR
STARTCHAR 2543
ENCODING 9539
SWIDTH 960 0
DWIDTH 12 0
BBX 12 12 0 -2
BITMAP
0000
0000
0000
0000
0800
2880
2480
1100
0100
0600
3800
0000
ENDCHAR
STARTCHAR 2544
ENCODING 9540
SWIDTH 960 0
DWIDTH 12 0
BBX 12 12 0 -2
BITMAP
0000
0000
0800
4840
4440
2440
2080
0080
0100
0600
7800
0000
ENDCHAR
STARTCHAR 2545
ENCODING 9541
SWIDTH 960 0
DWIDTH 12 0
BBX 12 12 0 -2
BITMAP
0000
00a0
08a0
4840
4440
2440
2080
0080
0100
0600
7800
0000
ENDCHAR
STARTCHAR 2546
ENCODING 9542
SWIDTH 960 0
DWIDTH 12 0
BBX 12 12 0 -2
BITMAP
0000
0000
3f80
0000
0000
ffe0
0100
0100
0200
0c00
7000
0000
ENDCHAR
STARTCHAR 2547
ENCODING 9543
SWIDTH 960 0
DWIDTH 12 0
BBX 12 12 0 -2
BITMAP
0000
00a0
3fa0
0000
0000
ffe0
0100
0100
0200
0c00
7000
0000
ENDCHAR
STARTCHAR 2548
ENCODING 9544
SWIDTH 960 0
DWIDTH 12 0
BBX 12 12 0 -2
BITMAP
1000
1000
1000
1000
1000
1c00
1300
10c0
1000
1000
1000
0000
ENDCHAR
STARTCHAR 2549
ENCODING 9545
SWIDTH 960 0
DWIDTH 12 0
BBX 12 12 0 -2
BITMAP
1000
1140
1140
1000
1000
1c00
1300
10c0
1000
1000
1000
0000
ENDCHAR
STARTCHAR 254a
ENCODING 9546
SWIDTH 960 0
DWIDTH 12 0
BBX 12 12 0 -2
BITMAP
0200
0200
0100
0100
ffe0
0100
0100
0100
0200
0c00
7000
0000
ENDCHAR
STARTCHAR 254b
ENCODING 9547
SWIDTH 960 0
DWIDTH 12 0
BBX 12 12 0 -2
BITMAP
0000
0000
0000
3f80
0000
0000
0000
0000
ffe0
0000
0000
0000
ENDCHAR
STARTCHAR 254c
ENCODING 9548
SWIDTH 960 0
DWIDTH 12 0
BBX 12 12 0 -2
BITMAP
0000
0000
3f80
0040
1040
0c80
0380
0140
0620
1800
6000
0000
ENDCHAR
STARTCHAR 254d
ENCODING 9549
SWIDTH 960 0
DWIDTH 12 0
BBX 12 12 0 -2
BITMAP
0400
0400
3fc0
0080
0100
0200
0500
1cc0
6420
0400
0400
0000
ENDCHAR
STARTCHAR 254e
ENCODING 9550
SWIDTH 960 0
DWIDTH 12 0
BBX 12 12 0 -2
BITMAP
0000
0000
0040
0040
0040
0080
0080
0100
0600
7800
0000
0000
ENDCHAR
STARTCHAR 254f
ENCODING 9551
SWIDTH 960 0
DWIDTH 12 0
BBX 12 12 0 -2
BITMAP
0000
0000
0000
0000
0100
1080
2080
2040
4040
4020
4020
0000
ENDCHAR
STARTCHAR 2550
ENCODING 9552
SWIDTH 960 0
DWIDTH 12 0
BBX 12 12 0 -2
BITMAP
0000
00a0
00a0
0000
0100
1080
2080
2040
4040
4020
4020
0000
ENDCHAR
STARTCHAR 2551
ENCODING 9553
SWIDTH 960 0
DWIDTH 12 0
BBX 12 12 0 -2
BITMAP
0000
00c0
0120
00c0
0100
1080
2080
2040
4040
4020
4020
0000
ENDCHAR
STARTCHAR 2552
ENCODING 9554
SWIDTH 960 0
DWIDTH 12 0
BBX 12 12 0 -2
BITMAP
0000
2000
2000
2000
23c0
3c00
2000
2000
2000
1020
0fc0
0000
ENDCHAR
STARTCHAR 2553
ENCODING 9555
SWIDTH 960 0
DWIDTH 12 0
BBX 12 12 0 -2
BITMAP
0000
2000
20a0
20a0
2380
3c00
2000
2000
2000
1020
0fc0
0000
ENDCHAR
STARTCHAR 2554
ENCODING 9556
SWIDTH 960 0
DWIDTH 12 0
BBX 12 12 0 -2
BITMAP
0000
20c0
2120
20c0
2380
3c00
2000
2000
2000
1020
0fc0
0000
ENDCHAR
STARTCHAR 2555
ENCODING 9557
SWIDTH 960 0
DWIDTH 12 0
BBX 12 12 0 -2
BITMAP
0000
0000
ff00
0080
0040
0040
0040
0080
0100
4600
3800
0000
ENDCHAR
STARTCHAR 2556
ENCODING 9558
SWIDTH 960 0
DWIDTH 12 0
BBX 12 12 0 -2
BITMAP
00a0
00a0
ff00
0080
0040
0040
0040
0080
0100
4600
3800
0000
ENDCHAR
STARTCHAR 2557
ENCODING 9559
SWIDTH 960 0
DWIDTH 12 0
BBX 12 12 0 -2
BITMAP
0000
00c0
ff20
00c0
0040
0040
0040
0080
0100
4600
3800
0000
ENDCHAR
STARTCHAR 2558
ENCODING 9560
SWIDTH 960 0
DWIDTH 12 0
BBX 12 12 0 -2
BITMAP
0000
0000
0e00
1100
2080
4040
4040
0020
0020
0000
0000
0000
ENDCHAR
STARTCHAR 2559
ENCODING 9561
SWIDTH 960 0
DWIDTH 12 0
BBX 12 12 0 -2
BITMAP
0000
00a0
0ea0
1100
2080
4040
4040
0020
0020
0000
0000
0000
ENDCHAR
STARTCHAR 255a
ENCODING 9562
SWIDTH 960 0
DWIDTH 12 0
BBX 12 12 0 -2
BITMAP
0000
0060
0e90
1160
2080
4040
4040
0020
0020
0000
0000
0000
ENDCHAR
STARTCHAR 255b
ENCODING 9563
SWIDTH 960 0
DWIDTH 12 0
BBX 12 12 0 -2
BITMAP
0400
0400
0400
7fc0
0400
1480
2440
4440
4420
0400
0400
0000
ENDCHAR
STARTCHAR 255c
ENCODING 9564
SWIDTH 960 0
DWIDTH 12 0
BBX 12 12 0 -2
BITMAP
0400
04a0
04a0
7fc0
0400
1480
2440
4440
4420
0400
0400
0000
ENDCHAR
STARTCHAR 255d
ENCODING 9565
SWIDTH 960 0
DWIDTH 12 0
BBX 12 12 0 -2
BITMAP
0400
0460
0490
7fe0
0400
1480
2440
4440
4420
0400
0400
0000
ENDCHAR
STARTCHAR 255e
ENCODING 9566
SWIDTH 960 0
DWIDTH 12 0
BBX 12 12 0 -2
BITMAP
0000
0000
3f00
c080
0040
2040
1180
0e00
0400
0200
0000
0000
ENDCHAR
STARTCHAR 255f
ENCODING 9567
SWIDTH 960 0
DWIDTH 12 0
BBX 12 12 0 -2
BITMAP
0000
1c00
0380
0040
0000
1c00
0300
0080
3800
0600
0180
0000
ENDCHAR
STARTCHAR 2560
ENCODING 9568
SWIDTH 960 0
DWIDTH 12 0
BBX 12 12 0 -2
BITMAP
0000
0400
0400
0800
0800
1080
2080
4040
47c0
3820
0020
0000
ENDCHAR
STARTCHAR 2561
ENCODING 9569
SWIDTH 960 0
DWIDTH 12 0
BBX 12 12 0 -2
BITMAP
0000
0040
0040
2040
1880
0680
0100
0280
0440
1800
6000
0000
ENDCHAR
STARTCHAR 2562
ENCODING 9570
SWIDTH 960 0
DWIDTH 12 0
BBX 12 12 0 -2
BITMAP
0000
0000
7f80
1000
1000
1000
ffe0
1000
1000
0820
07c0
0000
ENDCHAR
STARTCHAR 2563
ENCODING 9571
SWIDTH 960 0
DWIDTH 12 0
BBX 12 12 0 -2
BITMAP
0000
0000
0000
0000
0800
0800
3fc0
0880
0900
0800
0800
0000
ENDCHAR
STARTCHAR 2564
ENCODING 9572
SWIDTH 960 0
DWIDTH 12 0
BBX 12 12 0 -2
BITMAP
1000
1000
1000
ffc0
1020
1040
0980
0800
0800
0800
0800
0000
ENDCHAR
STARTCHAR 2565
ENCODING 9573
SWIDTH 960 0
DWIDTH 12 0
BBX 12 12 0 -2
BITMAP
0000
0000
0000
0000
0000
0000
3c00
0200
0200
7f80
0000
0000
ENDCHAR
STARTCHAR 2566
ENCODING 9574
SWIDTH 960 0
DWIDTH 12 0
BBX 12 12 0 -2
BITMAP
0000
0000
0000
7c00
0200
0100
0100
0100
0100
ffe0
0000
0000
ENDCHAR
STARTCHAR 2567
ENCODING 9575
SWIDTH 960 0
DWIDTH 12 0
BBX 12 12 0 -2
BITMAP
0000
0000
0000
0000
0000
3e00
0100
1d00
0300
0100
3f00
0000
ENDCHAR
STARTCHAR 2568
ENCODING 9576
SWIDTH 960 0
DWIDTH 12 0
BBX 12 12 0 -2
BITMAP
0000
0000
7f80
0040
0040
3e40
01c0
0040
0040
0080
7f00
0000
ENDCHAR
STARTCHAR 2569
ENCODING 9577
SWIDTH 960 0
DWIDTH 12 0
BBX 12 12 0 -2
BITMAP
0000
3f80
0000
0000
7f80
0040
0040
0080
0100
0600
3800
0000
ENDCHAR
STARTCHAR 256a
ENCODING 9578
SWIDTH 960 0
DWIDTH 12 0
BBX 12 12 0 -2
BITMAP
0000
2100
2080
2080
2080
2080
2080
0080
0100
2600
1800
0000
ENDCHAR
STARTCHAR 256b
ENCODING 9579
SWIDTH 960 0
DWIDTH 12 0
BBX 12 12 0 -2
BITMAP
0000
0400
2400
2400
2400
2420
2420
2440
4480
4300
4000
0000
ENDCHAR
STARTCHAR 256c
ENCODING 9580
SWIDTH 960 0
DWIDTH 12 0
BBX 12 12 0 -2
BITMAP
0000
2000
2000
2000
2000
2000
2040
2080
2100
2600
1800
0000
ENDCHAR
STARTCHAR 256d
ENCODING 9581
SWIDTH 960 0
DWIDTH 12 0
BBX 12 12 0 -2
BITMAP
0000
0000
5f00
4080
4040
4040
4040
4040
4040
3f80
0000
0000
ENDCHAR
STARTCHAR 256e
ENCODING 9582
SWIDTH 960 0
DWIDTH 12 0
BBX 12 12 0 -2
BITMAP
0000
0000
0000
0000
0000
1e00
2100
2100
0100
0200
1c00
0000
ENDCHAR
STARTCHAR 256f
ENCODING 9583
SWIDTH 960 0
DWIDTH 12 0
BBX 12 12 0 -2
BITMAP
0000
0000
3f80
4040
4040
4040
0040
0080
0080
2300
1c00
0000
ENDCHAR
STARTCHAR 2570
ENCODING 9584
SWIDTH 960 0
DWIDTH 12 0
BBX 12 12 0 -2
BITMAP
0100
0100
0100
7fc0
1100
2100
2100
ffe0
0100
0100
0100
0000
ENDCHAR
STARTCHAR 2571
ENCODING 9585
SWIDTH 960 0
DWIDTH 12 0
BBX 12 12 0 -2
BITMAP
0000
0000
7f80
0040
0480
0700
0400
0400
0400
7fc0
0000
0000
ENDCHAR
STARTCHAR 2572
ENCODING 9586
SWIDTH 960 0
DWIDTH 12 0
BBX 12 12 0 -2
BITMAP
0000
0000
7f80
0040
00c0
7f40
0040
0080
0080
0300
3c00
0000
ENDCHAR
STARTCHAR 2573
ENCODING 9587
SWIDTH 960 0
DWIDTH 12 0
BBX 12 12 0 -2
BITMAP
0000
0000
6000
1000
0840
0040
0080
0080
0100
8600
7800
0000
ENDCHAR
STARTCHAR 2574
ENCODING 9588
SWIDTH 960 0
DWIDTH 12 0
BBX 12 12 0 -2
BITMAP
04a0
04a0
0400
3f80
4040
4040
2040
0040
0080
0300
1c00
0000
ENDCHAR
STARTCHAR 2575
ENCODING 9589
SWIDTH 960 0
DWIDTH 12 0
BBX 12 12 0 -2
BITMAP
0000
0000
0000
0000
0800
0800
7e00
1100
1100
2200
2200
0000
ENDCHAR
STARTCHAR 2576
ENCODING 9590
SWIDTH 960 0
DWIDTH 12 0
BBX 12 12 0 -2
BITMAP
0000
0000
0000
0000
1000
1000
1f80
2100
2100
0200
0c00
0000
ENDCHAR
STARTCHAR 2621
ENCODING 9761
SWIDTH 960 0
DWIDTH 12 0
BBX 12 12 0 -2
BITMAP
0000
0400
0400
0a00
0a00
1100
1100
1f00
2080
2080
71c0
0000
ENDCHAR
STARTCHAR 2622
ENCODING 9762
SWIDTH 960 0
DWIDTH 12 0
BBX 12 12 0 -2
BITMAP
0000
3e00
1100
1080
1100
1e00
1100
1080
1080
1100
3e00
0000
ENDCHAR
STARTCHAR 2623
ENCODING 9763
SWIDTH 960 0
DWIDTH 12 0
BBX 12 12 0 -2
BITMAP
0000
3f00
1100
1080
1000
1000
1000
1000
1000
1000
3800
0000
ENDCHAR
STARTCHAR 2624
ENCODING 9764
SWIDTH 960 0
DWIDTH 12 0
BBX 12 12 0 -2
BITMAP
0000
0400
0400
0400
0a00
0a00
1100
1100
2080
2080
7fc0
0000
ENDCHAR
STARTCHAR 2625
ENCODING 9765
SWIDTH 960 0
DWIDTH 12 0
BBX 12 12 0 -2
BITMAP
0000
3f80
1040
1000
1100
1f00
1100
1000
1040
1040
3f80
0000
ENDCHAR
STARTCHAR 2626
ENCODING 9766
SWIDTH 960 0
DWIDTH 12 0
BBX 12 12 0 -2
BITMAP
0000
3fc0
2080
4100
0200
0400
0400
0800
1040
2040
7fc0
0000
ENDCHAR
STARTCHAR 2627
ENCODING 9767
SWIDTH 960 0
DWIDTH 12 0
BBX 12 12 0 -2
BITMAP
0000
71c0
2080
2080
2080
3f80
2080
2080
2080
2080
71c0
0000
ENDCHAR
STARTCHAR 2628
ENCODING 9768
SWIDTH 960 0
DWIDTH 12 0
BBX 12 12 0 -2
BITMAP
0000
0e00
1100
2080
5140
5f40
5140
4040
2080
1100
0e00
0000
ENDCHAR
STARTCHAR 2629
ENCODING 9769
SWIDTH 960 0
DWIDTH 12 0
BBX 12 12 0 -2
BITMAP
0000
0e00
0400
0400
0400
0400
0400
0400
0400
0400
0e00
0000
ENDCHAR
STARTCHAR 262a
ENCODING 9770
SWIDTH 960 0
DWIDTH 12 0
BBX 12 12 0 -2
BITMAP
0000
3b80
1100
1200
1400
1800
1400
1200
1100
1080
39c0
0000
ENDCHAR
STARTCHAR 262b
ENCODING 9771
SWIDTH 960 0
DWIDTH 12 0
BBX 12 12 0 -2
BITMAP
0000
0400
0400
0a00
0a00
1100
1100
1100
2080
2080
71c0
0000
ENDCHAR
STARTCHAR 262c
ENCODING 9772
SWIDTH 960 0
DWIDTH 12 0
BBX 12 12 0 -2
BITMAP
0000
c060
4040
60c0
60c0
5140
5140
4a40
4a40
4440
e4e0
0000
ENDCHAR
STARTCHAR 262d
ENCODING 9773
SWIDTH 960 0
DWIDTH 12 0
BBX 12 12 0 -2
BITMAP
0000
31c0
1880
1480
1480
1280
1280
1180
1180
1080
3880
0000
ENDCHAR
STARTCHAR 262e
ENCODING 9774
SWIDTH 960 0
DWIDTH 12 0
BBX 12 12 0 -2
BITMAP
0000
3fc0
2040
0000
1080
1f80
1080
0000
0000
2040
3fc0
0000
ENDCHAR
STARTCHAR 262f
ENCODING 9775
SWIDTH 960 0
DWIDTH 12 0
BBX 12 12 0 -2
BITMAP
0000
0e00
1100
2080
4040
4040
4040
4040
2080
1100
0e00
0000
ENDCHAR
STARTCHAR 2630
ENCODING 9776
SWIDTH 960 0
DWIDTH 12 0
BBX 12 12 0 -2
BITMAP
0000
7fc0
2080
2080
2080
2080
2080
2080
2080
2080
71c0
0000
ENDCHAR
STARTCHAR 2631
ENCODING 9777
SWIDTH 960 0
DWIDTH 12 0
BBX 12 12 0 -2
BITMAP
0000
3e00
1100
1080
1080
1100
1e00
1000
1000
1000
3800
0000
ENDCHAR
STARTCHAR 2632
ENCODING 9778
SWIDTH 960 0
DWIDTH 12 0
BBX 12 12 0 -2
BITMAP
0000
7f00
2100
1080
0800
0400
0400
0800
1040
2040
7f80
0000
ENDCHAR
STARTCHAR 2633
ENCODING 9779
SWIDTH 960 0
DWIDTH 12 0
BBX 12 12 0 -2
BITMAP
0000
7fc0
4440
4440
0400
0400
0400
0400
0400
0400
0e00
0000
ENDCHAR
STARTCHAR 2634
ENCODING 9780
SWIDTH 960 0
DWIDTH 12 0
BBX 12 12 0 -2
BITMAP
0000
3b80
4440
4440
0400
0400
0400
0400
0400
0400
0e00
0000
ENDCHAR
STARTCHAR 2635
ENCODING 9781
SWIDTH 960 0
DWIDTH 12 0
BBX 12 12 0 -2
BITMAP
0000
0e00
0400
1f00
2480
2480
2480
1f00
0400
0400
0e00
0000
ENDCHAR
STARTCHAR 2636
ENCODING 9782
SWIDTH 960 0
DWIDTH 12 0
BBX 12 12 0 -2
BITMAP
0000
71c0
2080
1100
0a00
0400
0400
0a00
1100
2080
71c0
0000
ENDCHAR
STARTCHAR 2637
ENCODING 9783
SWIDTH 960 0
DWIDTH 12 0
BBX 12 12 0 -2
BITMAP
0000
0e00
4440
2480
2480
2480
1500
0e00
0400
0400
0e00
0000
ENDCHAR
STARTCHAR 2638
ENCODING 9784
SWIDTH 960 0
DWIDTH 12 0
BBX 12 12 0 -2
BITMAP
0000
0e00
1100
2080
2080
2080
2080
1100
4a40
4a40
7bc0
0000
ENDCHAR
STARTCHAR 2641
ENCODING 9793
SWIDTH 960 0
DWIDTH 12 0
BBX 12 12 0 -2
BITMAP
0000
0000
0000
0000
0c80
1280
2300
2200
2400
2600
1980
0000
ENDCHAR
STARTCHAR 2642
ENCODING 9794
SWIDTH 960 0
DWIDTH 12 0
BBX 12 12 0 -2
BITMAP
0000
0300
0480
0480
0900
0a00
1100
1100
3200
2c00
4000
4000
ENDCHAR
STARTCHAR 2643
ENCODING 9795
SWIDTH 960 0
DWIDTH 12 0
BBX 12 12 0 -2
BITMAP
0000
0000
0000
18c0
2500
0200
0400
0400
0800
0800
1000
0000
ENDCHAR
STARTCHAR 2644
ENCODING 9796
SWIDTH 960 0
DWIDTH 12 0
BBX 12 12 0 -2
BITMAP
0000
0600
0980
0400
0200
0600
0900
1100
2100
2200
1c00
0000
ENDCHAR
STARTCHAR 2645
ENCODING 9797
SWIDTH 960 0
DWIDTH 12 0
BBX 12 12 0 -2
BITMAP
0000
0000
0000
0e00
1100
1000
0c00
1000
2100
2200
1c00
0000
ENDCHAR
STARTCHAR 2646
ENCODING 9798
SWIDTH 960 0
DWIDTH 12 0
BBX 12 12 0 -2
BITMAP
0000
0800
0980
0700
0400
0800
1000
1000
1000
0c00
2200
1c00
ENDCHAR
STARTCHAR 2647
ENCODING 9799
SWIDTH 960 0
DWIDTH 12 0
BBX 12 12 0 -2
BITMAP
0000
0000
0000
0000
1300
2c80
0880
1100
1100
2200
0200
0200
ENDCHAR
STARTCHAR 2648
ENCODING 9800
SWIDTH 960 0
DWIDTH 12 0
BBX 12 12 0 -2
BITMAP
0000
0300
0480
0880
1080
1f80
2100
2100
2200
2400
1800
0000
ENDCHAR
STARTCHAR 2649
ENCODING 9801
SWIDTH 960 0
DWIDTH 12 0
BBX 12 12 0 -2
BITMAP
0000
0000
0000
0200
0400
0800
0800
1000
1080
1300
0c00
0000
ENDCHAR
STARTCHAR 264a
ENCODING 9802
SWIDTH 960 0
DWIDTH 12 0
BBX 12 12 0 -2
BITMAP
0000
0000
0000
1080
0900
0a00
1c00
1400
2480
2480
4300
0000
ENDCHAR
STARTCHAR 264b
ENCODING 9803
SWIDTH 960 0
DWIDTH 12 0
BBX 12 12 0 -2
BITMAP
0000
0000
0c00
0200
0200
0200
0600
0a00
1100
2100
20c0
0000
ENDCHAR
STARTCHAR 264c
ENCODING 9804
SWIDTH 960 0
DWIDTH 12 0
BBX 12 12 0 -2
BITMAP
0000
0000
0000
0880
0880
1080
1100
2100
3300
2cc0
4000
4000
ENDCHAR
STARTCHAR 264d
ENCODING 9805
SWIDTH 960 0
DWIDTH 12 0
BBX 12 12 0 -2
BITMAP
0000
0000
0000
0000
1080
0880
0900
1100
1200
1400
3800
0000
ENDCHAR
STARTCHAR 264e
ENCODING 9806
SWIDTH 960 0
DWIDTH 12 0
BBX 12 12 0 -2
BITMAP
0000
0400
0380
0400
0800
0600
0800
1000
0e00
0100
1100
0e00
ENDCHAR
STARTCHAR 264f
ENCODING 9807
SWIDTH 960 0
DWIDTH 12 0
BBX 12 12 0 -2
BITMAP
0000
0000
0000
0000
0e00
1100
2100
2100
2100
2200
1c00
0000
ENDCHAR
STARTCHAR 2650
ENCODING 9808
SWIDTH 960 0
DWIDTH 12 0
BBX 12 12 0 -2
BITMAP
0000
0000
0000
0040
1f80
2900
0a00
1200
1400
2480
4300
0000
ENDCHAR
STARTCHAR 2651
ENCODING 9809
SWIDTH 960 0
DWIDTH 12 0
BBX 12 12 0 -2
BITMAP
0000
0000
0000
0700
0880
1080
1080
1900
1600
2000
2000
2000
ENDCHAR
STARTCHAR 2652
ENCODING 9810
SWIDTH 960 0
DWIDTH 12 0
BBX 12 12 0 -2
BITMAP
0000
0000
0000
0040
0780
1a00
2100
2100
2100
1200
0c00
0000
ENDCHAR
STARTCHAR 2653
ENCODING 9811
SWIDTH 960 0
DWIDTH 12 0
BBX 12 12 0 -2
BITMAP
0000
0000
0080
1f00
2400
0400
0800
0800
1000
1200
0c00
0000
ENDCHAR
STARTCHAR 2654
ENCODING 9812
SWIDTH 960 0
DWIDTH 12 0
BBX 12 12 0 -2
BITMAP
0000
0000
0000
0000
2100
5080
1080
1100
2100
2600
1800
0000
ENDCHAR
STARTCHAR 2655
ENCODING 9813
SWIDTH 960 0
DWIDTH 12 0
BBX 12 12 0 -2
BITMAP
0000
0100
0100
0200
0f00
1280
2240
2440
2480
1f00
0800
0800
ENDCHAR
STARTCHAR 2656
ENCODING 9814
SWIDTH 960 0
DWIDTH 12 0
BBX 12 12 0 -2
BITMAP
0000
0000
0080
1080
2900
2600
0400
0c00
1400
2280
2100
0000
ENDCHAR
STARTCHAR 2657
ENCODING 9815
SWIDTH 960 0
DWIDTH 12 0
BBX 12 12 0 -2
BITMAP
0000
0100
0100
2280
1240
1240
2440
2480
1f00
0800
0800
0800
ENDCHAR
STARTCHAR 2658
ENCODING 9816
SWIDTH 960 0
DWIDTH 12 0
BBX 12 12 0 -2
BITMAP
0000
0000
0000
0000
1080
2040
2040
4440
4440
4c80
3300
0000
ENDCHAR
STARTCHAR 2721
ENCODING 10017
SWIDTH 960 0
DWIDTH 12 0
BBX 12 12 0 -2
BITMAP
0000
0400
0400
0a00
0a00
1100
1100
1f00
2080
2080
71c0
0000
ENDCHAR
STARTCHAR 2722
ENCODING 10018
SWIDTH 960 0
DWIDTH 12 0
BBX 12 12 0 -2
BITMAP
0000
3f80
1080
1000
1000
1e00
1100
1080
1080
1100
3e00
0000
ENDCHAR
STARTCHAR 2723
ENCODING 10019
SWIDTH 960 0
DWIDTH 12 0
BBX 12 12 0 -2
BITMAP
0000
3e00
1100
1080
1100
1e00
1100
1080
1080
1100
3e00
0000
ENDCHAR
STARTCHAR 2724
ENCODING 10020
SWIDTH 960 0
DWIDTH 12 0
BBX 12 12 0 -2
BITMAP
0000
3f00
1100
1080
1000
1000
1000
1000
1000
1000
3800
0000
ENDCHAR
STARTCHAR 2725
ENCODING 10021
SWIDTH 960 0
DWIDTH 12 0
BBX 12 12 0 -2
BITMAP
0000
1fc0
0900
0900
0900
0900
0900
1100
1100
2100
7fc0
4040
ENDCHAR
STARTCHAR 2726
ENCODING 10022
SWIDTH 960 0
DWIDTH 12 0
BBX 12 12 0 -2
BITMAP
0000
3f80
1040
1000
1100
1f00
1100
1000
1040
1040
3f80
0000
ENDCHAR
STARTCHAR 2727
ENCODING 10023
SWIDTH 960 0
DWIDTH 12 0
BBX 12 12 0 -2
BITMAP
1980
0000
3f80
1040
1000
1100
1f00
1100
1040
1040
3f80
0000
ENDCHAR
STARTCHAR 2728
ENCODING 10024
SWIDTH 960 0
DWIDTH 12 0
BBX 12 12 0 -2
BITMAP
0000
4e40
2480
2480
1500
0e00
1500
2500
2480
2480
6ec0
0000
ENDCHAR
STARTCHAR 2729
ENCODING 10025
SWIDTH 960 0
DWIDTH 12 0
BBX 12 12 0 -2
BITMAP
0000
0e00
1100
2100
0100
0600
0100
0080
2080
3100
2e00
0000
ENDCHAR
STARTCHAR 272a
ENCODING 10026
SWIDTH 960 0
DWIDTH 12 0
BBX 12 12 0 -2
BITMAP
0000
38c0
1180
1280
1280
1480
1480
1880
1880
1080
39c0
0000
ENDCHAR
STARTCHAR 272b
ENCODING 10027
SWIDTH 960 0
DWIDTH 12 0
BBX 12 12 0 -2
BITMAP
0900
0600
38c0
1180
1280
1280
1480
1880
1880
1080
39c0
0000
ENDCHAR
STARTCHAR 272c
ENCODING 10028
SWIDTH 960 0
DWIDTH 12 0
BBX 12 12 0 -2
BITMAP
0000
3880
1140
1200
1400
1800
1400
1200
1100
1080
39c0
0000
ENDCHAR
STARTCHAR 272d
ENCODING 10029
SWIDTH 960 0
DWIDTH 12 0
BBX 12 12 0 -2
BITMAP
0000
1fc0
0480
0480
0480
0480
0880
0880
0880
5080
21c0
0000
ENDCHAR
STARTCHAR 272e
ENCODING 10030
SWIDTH 960 0
DWIDTH 12 0
BBX 12 12 0 -2
BITMAP
0000
60c0
2080
3180
3180
2a80
2a80
4440
4440
4440
e0e0
0000
ENDCHAR
STARTCHAR 272f
ENCODING 10031
SWIDTH 960 0
DWIDTH 12 0
BBX 12 12 0 -2
BITMAP
0000
71c0
2080
2080
2080
3f80
2080
2080
2080
2080
71c0
0000
ENDCHAR
STARTCHAR 2730
ENCODING 10032
SWIDTH 960 0
DWIDTH 12 0
BBX 12 12 0 -2
BITMAP
0000
0e00
1100
2080
4040
4040
4040
4040
2080
1100
0e00
0000
ENDCHAR
STARTCHAR 2731
ENCODING 10033
SWIDTH 960 0
DWIDTH 12 0
BBX 12 12 0 -2
BITMAP
0000
7f80
2100
2100
2100
2100
2100
2100
2100
2100
7380
0000
ENDCHAR
STARTCHAR 2732
ENCODING 10034
SWIDTH 960 0
DWIDTH 12 0
BBX 12 12 0 -2
BITMAP
0000
3e00
1100
1080
1080
1100
1e00
1000
1000
1000
3800
0000
ENDCHAR
STARTCHAR 2733
ENCODING 10035
SWIDTH 960 0
DWIDTH 12 0
BBX 12 12 0 -2
BITMAP
0000
0740
08c0
1040
2000
2000
2000
2000
1040
0880
0700
0000
ENDCHAR
STARTCHAR 2734
ENCODING 10036
SWIDTH 960 0
DWIDTH 12 0
BBX 12 12 0 -2
BITMAP
0000
7fc0
4440
4440
0400
0400
0400
0400
0400
0400
0e00
0000
ENDCHAR
STARTCHAR 2735
ENCODING 10037
SWIDTH 960 0
DWIDTH 12 0
BBX 12 12 0 -2
BITMAP
0000
71c0
2080
1100
1100
0a00
0a00
0400
0400
2400
1800
0000
ENDCHAR
STARTCHAR 2736
ENCODING 10038
SWIDTH 960 0
DWIDTH 12 0
BBX 12 12 0 -2
BITMAP
0000
0e00
0400
1f00
2480
4440
4440
2480
1f00
0400
0e00
0000
ENDCHAR
STARTCHAR 2737
ENCODING 10039
SWIDTH 960 0
DWIDTH 12 0
BBX 12 12 0 -2
BITMAP
0000
71c0
2080
1100
0a00
0400
0400
0a00
1100
2080
71c0
0000
ENDCHAR
STARTCHAR 2738
ENCODING 10040
SWIDTH 960 0
DWIDTH 12 0
BBX 12 12 0 -2
BITMAP
0000
7380
2100
2100
2100
2100
2100
2100
2100
2100
7fc0
0040
ENDCHAR
STARTCHAR 2739
ENCODING 10041
SWIDTH 960 0
DWIDTH 12 0
BBX 12 12 0 -2
BITMAP
0000
7380
2100
2100
2100
2100
1300
0d00
0100
0100
0380
0000
ENDCHAR
STARTCHAR 273a
ENCODING 10042
SWIDTH 960 0
DWIDTH 12 0
BBX 12 12 0 -2
BITMAP
0000
eee0
4440
4440
4440
4440
4440
4440
4440
4440
ffe0
0000
ENDCHAR
STARTCHAR 273b
ENCODING 10043
SWIDTH 960 0
DWIDTH 12 0
BBX 12 12 0 -2
BITMAP
0000
eee0
4440
4440
4440
4440
4440
4440
4440
4440
fff0
0010
ENDCHAR
STARTCHAR 273c
ENCODING 10044
SWIDTH 960 0
DWIDTH 12 0
BBX 12 12 0 -2
BITMAP
0000
3800
4800
0800
0800
0f00
0880
0840
0840
0880
1f00
0000
ENDCHAR
STARTCHAR 273d
ENCODING 10045
SWIDTH 960 0
DWIDTH 12 0
BBX 12 12 0 -2
BITMAP
0000
61c0
2080
2080
2080
3880
2480
2280
2280
2480
79c0
0000
ENDCHAR
STARTCHAR 273e
ENCODING 10046
SWIDTH 960 0
DWIDTH 12 0
BBX 12 12 0 -2
BITMAP
0000
3000
1000
1000
1e00
1100
1080
1080
1080
1100
1e00
0000
ENDCHAR
STARTCHAR 273f
ENCODING 10047
SWIDTH 960 0
DWIDTH 12 0
BBX 12 12 0 -2
BITMAP
0000
2e00
3100
2080
0080
0c80
1380
0080
2080
1100
0e00
0000
ENDCHAR
STARTCHAR 2740
ENCODING 10048
SWIDTH 960 0
DWIDTH 12 0
BBX 12 12 0 -2
BITMAP
0000
e300
4480
4840
4840
7840
4840
4840
4840
4480
e300
0000
ENDCHAR
STARTCHAR 2741
ENCODING 10049
SWIDTH 960 0
DWIDTH 12 0
BBX 12 12 0 -2
BITMAP
0000
0fc0
1080
2080
1080
0f80
0280
0480
0880
1080
71c0
0000
ENDCHAR
STARTCHAR 2751
ENCODING 10065
SWIDTH 960 0
DWIDTH 12 0
BBX 12 12 0 -2
BITMAP
0000
0000
0000
0000
0600
0900
0700
0900
1100
1200
0d80
0000
ENDCHAR
STARTCHAR 2752
ENCODING 10066
SWIDTH 960 0
DWIDTH 12 0
BBX 12 12 0 -2
BITMAP
0000
0300
0c00
1000
2000
2c00
3200
2100
2100
1200
0c00
0000
ENDCHAR
STARTCHAR 2753
ENCODING 10067
SWIDTH 960 0
DWIDTH 12 0
BBX 12 12 0 -2
BITMAP
0000
0000
0000
0000
3e00
1100
1100
1e00
1100
1100
3e00
0000
ENDCHAR
STARTCHAR 2754
ENCODING 10068
SWIDTH 960 0
DWIDTH 12 0
BBX 12 12 0 -2
BITMAP
0000
0000
0000
0000
3e00
1100
1000
1000
1000
1000
3800
0000
ENDCHAR
STARTCHAR 2755
ENCODING 10069
SWIDTH 960 0
DWIDTH 12 0
BBX 12 12 0 -2
BITMAP
0000
0000
0000
0000
1f80
0900
0900
0900
1100
1100
7f80
4080
ENDCHAR
STARTCHAR 2756
ENCODING 10070
SWIDTH 960 0
DWIDTH 12 0
BBX 12 12 0 -2
BITMAP
0000
0000
0000
0000
0c00
1200
2100
3f00
2000
1100
0e00
0000
ENDCHAR
STARTCHAR 2757
ENCODING 10071
SWIDTH 960 0
DWIDTH 12 0
BBX 12 12 0 -2
BITMAP
0000
0000
1200
0000
0c00
1200
2100
3f00
2000
1100
0e00
0000
ENDCHAR
STARTCHAR 2758
ENCODING 10072
SWIDTH 960 0
DWIDTH 12 0
BBX 12 12 0 -2
BITMAP
0000
0000
0000
0000
6ec0
1500
1500
0e00
1500
2480
6ec0
0000
ENDCHAR
STARTCHAR 2759
ENCODING 10073
SWIDTH 960 0
DWIDTH 12 0
BBX 12 12 0 -2
BITMAP
0000
0000
0000
0000
0700
1880
0080
0700
0080
1080
0f00
0000
ENDCHAR
STARTCHAR 275a
ENCODING 10074
SWIDTH 960 0
DWIDTH 12 0
BBX 12 12 0 -2
BITMAP
0000
0000
0000
0000
39c0
1180
1280
1480
1880
1080
39c0
0000
ENDCHAR
STARTCHAR 275b
ENCODING 10075
SWIDTH 960 0
DWIDTH 12 0
BBX 12 12 0 -2
BITMAP
0000
0900
0600
0000
39c0
1180
1280
1480
1880
1080
39c0
0000
ENDCHAR
STARTCHAR 275c
ENCODING 10076
SWIDTH 960 0
DWIDTH 12 0
BBX 12 12 0 -2
BITMAP
0000
0000
0000
0000
3900
1280
1400
1800
1400
1200
3980
0000
ENDCHAR
STARTCHAR 275d
ENCODING 10077
SWIDTH 960 0
DWIDTH 12 0
BBX 12 12 0 -2
BITMAP
0000
0000
0000
0000
1f00
0a00
0a00
0a00
1200
5200
2700
0000
ENDCHAR
STARTCHAR 275e
ENCODING 10078
SWIDTH 960 0
DWIDTH 12 0
BBX 12 12 0 -2
BITMAP
0000
0000
0000
0000
60c0
3180
3180
2a80
2a80
2480
75c0
0000
ENDCHAR
STARTCHAR 275f
ENCODING 10079
SWIDTH 960 0
DWIDTH 12 0
BBX 12 12 0 -2
BITMAP
0000
0000
0000
0000
3b80
1100
1100
1f00
1100
1100
3b80
0000
ENDCHAR
STARTCHAR 2760
ENCODING 10080
SWIDTH 960 0
DWIDTH 12 0
BBX 12 12 0 -2
BITMAP
0000
0000
0000
0000
0e00
1100
2080
2080
2080
1100
0e00
0000
ENDCHAR
STARTCHAR 2761
ENCODING 10081
SWIDTH 960 0
DWIDTH 12 0
BBX 12 12 0 -2
BITMAP
0000
0000
0000
0000
3f80
1100
1100
1100
1100
1100
3b80
0000
ENDCHAR
STARTCHAR 2762
ENCODING 10082
SWIDTH 960 0
DWIDTH 12 0
BBX 12 12 0 -2
BITMAP
0000
0000
0000
0000
3600
1900
1080
1080
1900
1600
1000
3800
ENDCHAR
STARTCHAR 2763
ENCODING 10083
SWIDTH 960 0
DWIDTH 12 0
BBX 12 12 0 -2
BITMAP
0000
0000
0000
0000
0e00
1100
2000
2000
2000
1100
0e00
0000
ENDCHAR
STARTCHAR 2764
ENCODING 10084
SWIDTH 960 0
DWIDTH 12 0
BBX 12 12 0 -2
BITMAP
0000
0000
0000
0000
3f80
2480
0400
0400
0400
0400
0e00
0000
ENDCHAR
STARTCHAR 2765
ENCODING 10085
SWIDTH 960 0
DWIDTH 12 0
BBX 12 12 0 -2
BITMAP
0000
0000
0000
39c0
1080
0880
0500
0300
0200
0400
2400
1800
ENDCHAR
STARTCHAR 2766
ENCODING 10086
SWIDTH 960 0
DWIDTH 12 0
BBX 12 12 0 -2
BITMAP
0000
0e00
0400
1500
2e80
4440
4440
4440
2e80
1500
0400
0e00
ENDCHAR
STARTCHAR 2767
ENCODING 10087
SWIDTH 960 0
DWIDTH 12 0
BBX 12 12 0 -2
BITMAP
0000
0000
0000
0000
3b80
1100
0a00
0400
0a00
1100
3b80
0000
ENDCHAR
STARTCHAR 2768
ENCODING 10088
SWIDTH 960 0
DWIDTH 12 0
BBX 12 12 0 -2
BITMAP
0000
0000
0000
0000
3b80
1100
1100
1100
1100
1100
3f80
0080
ENDCHAR
STARTCHAR 2769
ENCODING 10089
SWIDTH 960 0
DWIDTH 12 0
BBX 12 12 0 -2
BITMAP
0000
0000
0000
0000
3b80
1100
1100
0f00
0100
0100
0380
0000
ENDCHAR
STARTCHAR 276a
ENCODING 10090
SWIDTH 960 0
DWIDTH 12 0
BBX 12 12 0 -2
BITMAP
0000
0000
0000
0000
2480
2480
2480
2480
2480
2480
3f80
0000
ENDCHAR
STARTCHAR 276b
ENCODING 10091
SWIDTH 960 0
DWIDTH 12 0
BBX 12 12 0 -2
BITMAP
0000
0000
0000
0000
4900
4900
4900
4900
4900
4900
7fc0
0040
ENDCHAR
STARTCHAR 276c
ENCODING 10092
SWIDTH 960 0
DWIDTH 12 0
BBX 12 12 0 -2
BITMAP
0000
0000
0000
0000
3000
5000
1e00
1100
1100
1100
3e00
0000
ENDCHAR
STARTCHAR 276d
ENCODING 10093
SWIDTH 960 0
DWIDTH 12 0
BBX 12 12 0 -2
BITMAP
0000
0000
0000
0000
7380
2100
2100
3900
2500
2500
7b80
0000
ENDCHAR
STARTCHAR 276e
ENCODING 10094
SWIDTH 960 0
DWIDTH 12 0
BBX 12 12 0 -2
BITMAP
0000
0000
0000
0000
3800
1000
1e00
1100
1100
1100
3e00
0000
ENDCHAR
STARTCHAR 276f
ENCODING 10095
SWIDTH 960 0
DWIDTH 12 0
BBX 12 12 0 -2
BITMAP
0000
0000
0000
0000
1e00
2100
0b00
1500
0100
2100
1e00
0000
ENDCHAR
STARTCHAR 2770
ENCODING 10096
SWIDTH 960 0
DWIDTH 12 0
BBX 12 12 0 -2
BITMAP
0000
0000
0000
0000
7300
2480
2840
3840
2840
2480
7300
0000
ENDCHAR
STARTCHAR 2771
ENCODING 10097
SWIDTH 960 0
DWIDTH 12 0
BBX 12 12 0 -2
BITMAP
0000
0000
0000
0000
0f80
1100
1100
0f00
0900
1100
3b80
0000
ENDCHAR
STARTCHAR 2821
ENCODING 10273
SWIDTH 960 0
DWIDTH 12 0
BBX 12 12 0 -2
BITMAP
0000
0000
0000
0000
0000
fff0
0000
0000
0000
0000
0000
0000
ENDCHAR
STARTCHAR 2822
ENCODING 10274
SWIDTH 960 0
DWIDTH 12 0
BBX 12 12 0 -2
BITMAP
0400
0400
0400
0400
0400
0400
0400
0400
0400
0400
0400
0400
ENDCHAR
STARTCHAR 2823
ENCODING 10275
SWIDTH 960 0
DWIDTH 12 0
BBX 12 12 0 -2
BITMAP
0000
0000
0000
0000
0000
07f0
0400
0400
0400
0400
0400
0400
ENDCHAR
STARTCHAR 2824
ENCODING 10276
SWIDTH 960 0
DWIDTH 12 0
BBX 12 12 0 -2
BITMAP
0000
0000
0000
0000
0000
fc00
0400
0400
0400
0400
0400
0400
ENDCHAR
STARTCHAR 2825
ENCODING 10277
SWIDTH 960 0
DWIDTH 12 0
BBX 12 12 0 -2
BITMAP
0400
0400
0400
0400
0400
fc00
0000
0000
0000
0000
0000
0000
ENDCHAR
STARTCHAR 2826
ENCODING 10278
SWIDTH 960 0
DWIDTH 12 0
BBX 12 12 0 -2
BITMAP
0400
0400
0400
0400
0400
07f0
0000
0000
0000
0000
0000
0000
ENDCHAR
STARTCHAR 2827
ENCODING 10279
SWIDTH 960 0
DWIDTH 12 0
BBX 12 12 0 -2
BITMAP
0400
0400
0400
0400
0400
07f0
0400
0400
0400
0400
0400
0400
ENDCHAR
STARTCHAR 2828
ENCODING 10280
SWIDTH 960 0
DWIDTH 12 0
BBX 12 12 0 -2
BITMAP
0000
0000
0000
0000
0000
fff0
0400
0400
0400
0400
0400
0400
ENDCHAR
STARTCHAR 2829
ENCODING 10281
SWIDTH 960 0
DWIDTH 12 0
BBX 12 12 0 -2
BITMAP
0400
0400
0400
0400
0400
fc00
0400
0400
0400
0400
0400
0400
ENDCHAR
STARTCHAR 282a
ENCODING 10282
SWIDTH 960 0
DWIDTH 12 0
BBX 12 12 0 -2
BITMAP
0400
0400
0400
0400
0400
fff0
0000
0000
0000
0000
0000
0000
ENDCHAR
STARTCHAR 282b
ENCODING 10283
SWIDTH 960 0
DWIDTH 12 0
BBX 12 12 0 -2
BITMAP
0400
0400
0400
0400
0400
fff0
0400
0400
0400
0400
0400
0400
ENDCHAR
STARTCHAR 282c
ENCODING 10284
SWIDTH 960 0
DWIDTH 12 0
BBX 12 12 0 -2
BITMAP
0000
0000
0000
0000
0000
fff0
fff0
0000
0000
0000
0000
0000
ENDCHAR
STARTCHAR 282d
ENCODING 10285
SWIDTH 960 0
DWIDTH 12 0
BBX 12 12 0 -2
BITMAP
0600
0600
0600
0600
0600
0600
0600
0600
0600
0600
0600
0600
ENDCHAR
STARTCHAR 282e
ENCODING 10286
SWIDTH 960 0
DWIDTH 12 0
BBX 12 12 0 -2
BITMAP
0000
0000
0000
0000
0000
07f0
07f0
0600
0600
0600
0600
0600
ENDCHAR
STARTCHAR 282f
ENCODING 10287
SWIDTH 960 0
DWIDTH 12 0
BBX 12 12 0 -2
BITMAP
0000
0000
0000
0000
0000
fe00
fe00
0600
0600
0600
0600
0600
ENDCHAR
STARTCHAR 2830
ENCODING 10288
SWIDTH 960 0
DWIDTH 12 0
BBX 12 12 0 -2
BITMAP
0600
0600
0600
0600
0600
fe00
fe00
0000
0000
0000
0000
0000
ENDCHAR
STARTCHAR 2831
ENCODING 10289
SWIDTH 960 0
DWIDTH 12 0
BBX 12 12 0 -2
BITMAP
0600
0600
0600
0600
0600
07f0
07f0
0000
0000
0000
0000
0000
ENDCHAR
STARTCHAR 2832
ENCODING 10290
SWIDTH 960 0
DWIDTH 12 0
BBX 12 12 0 -2
BITMAP
0600
0600
0600
0600
0600
07f0
07f0
0600
0600
0600
0600
0600
ENDCHAR
STARTCHAR 2833
ENCODING 10291
SWIDTH 960 0
DWIDTH 12 0
BBX 12 12 0 -2
BITMAP
0000
0000
0000
0000
0000
fff0
fff0
0600
0600
0600
0600
0600
ENDCHAR
STARTCHAR 2834
ENCODING 10292
SWIDTH 960 0
DWIDTH 12 0
BBX 12 12 0 -2
BITMAP
0600
0600
0600
0600
0600
fe00
fe00
0600
0600
0600
0600
0600
ENDCHAR
STARTCHAR 2835
ENCODING 10293
SWIDTH 960 0
DWIDTH 12 0
BBX 12 12 0 -2
BITMAP
0600
0600
0600
0600
0600
fff0
fff0
0000
0000
0000
0000
0000
ENDCHAR
STARTCHAR 2836
ENCODING 10294
SWIDTH 960 0
DWIDTH 12 0
BBX 12 12 0 -2
BITMAP
0600
0600
0600
0600
0600
fff0
fff0
0600
0600
0600
0600
0600
ENDCHAR
STARTCHAR 2837
ENCODING 10295
SWIDTH 960 0
DWIDTH 12 0
BBX 12 12 0 -2
BITMAP
0600
0600
0600
0600
0600
07f0
0600
0600
0600
0600
0600
0600
ENDCHAR
STARTCHAR 2838
ENCODING 10296
SWIDTH 960 0
DWIDTH 12 0
BBX 12 12 0 -2
BITMAP
0000
0000
0000
0000
0000
fff0
fff0
0400
0400
0400
0400
0400
ENDCHAR
STARTCHAR 2839
ENCODING 10297
SWIDTH 960 0
DWIDTH 12 0
BBX 12 12 0 -2
BITMAP
0600
0600
0600
0600
0600
fe00
0600
0600
0600
0600
0600
0600
ENDCHAR
STARTCHAR 283a
ENCODING 10298
SWIDTH 960 0
DWIDTH 12 0
BBX 12 12 0 -2
BITMAP
0400
0400
0400
0400
0400
fff0
fff0
0000
0000
0000
0000
0000
ENDCHAR
STARTCHAR 283b
ENCODING 10299
SWIDTH 960 0
DWIDTH 12 0
BBX 12 12 0 -2
BITMAP
0400
0400
0400
0400
0400
fff0
fff0
0400
0400
0400
0400
0400
ENDCHAR
STARTCHAR 283c
ENCODING 10300
SWIDTH 960 0
DWIDTH 12 0
BBX 12 12 0 -2
BITMAP
0400
0400
0400
0400
0400
07f0
07f0
0400
0400
0400
0400
0400
ENDCHAR
STARTCHAR 283d
ENCODING 10301
SWIDTH 960 0
DWIDTH 12 0
BBX 12 12 0 -2
BITMAP
0000
0000
0000
0000
0000
fff0
0600
0600
0600
0600
0600
0600
ENDCHAR
STARTCHAR 283e
ENCODING 10302
SWIDTH 960 0
DWIDTH 12 0
BBX 12 12 0 -2
BITMAP
0400
0400
0400
0400
0400
fc00
fc00
0400
0400
0400
0400
0400
ENDCHAR
STARTCHAR 283f
ENCODING 10303
SWIDTH 960 0
DWIDTH 12 0
BBX 12 12 0 -2
BITMAP
0600
0600
0600
0600
0600
fff0
0000
0000
0000
0000
0000
0000
ENDCHAR
STARTCHAR 2840
ENCODING 10304
SWIDTH 960 0
DWIDTH 12 0
BBX 12 12 0 -2
BITMAP
0600
0600
0600
0600
0600
fff0
0600
0600
0600
0600
0600
0600
ENDCHAR
STARTCHAR 3021
ENCODING 12321
SWIDTH 960 0
DWIDTH 12 0
BBX 12 12 0 -2
BITMAP
0000
7fe0
0900
0900
3fc0
2940
2940
2940
3fc0
0900
0900
7fe0
ENDCHAR
STARTCHAR 3022
ENCODING 12322
SWIDTH 960 0
DWIDTH 12 0
BBX 12 12 0 -2
BITMAP
0000
1fe0
e280
a280
afe0
aaa0
aaa0
aaa0
afe0
e280
0280
1fe0
ENDCHAR
STARTCHAR 3023
ENCODING 12323
SWIDTH 960 0
DWIDTH 12 0
BBX 12 12 0 -2
BITMAP
4100
4100
57c0
f900
5100
5fe0
5100
9100
f7c0
2900
4100
8fe0
ENDCHAR
STARTCHAR 3024
ENCODING 12324
SWIDTH 960 0
DWIDTH 12 0
BBX 12 12 0 -2
BITMAP
0000
ffe0
a040
af40
c940
a940
a940
af40
c840
8040
8040
80c0
ENDCHAR
STARTCHAR 3025
ENCODING 12325
SWIDTH 960 0
DWIDTH 12 0
BBX 12 12 0 -2
BITMAP
0400
ffe0
0000
3f80
2080
2080
3f80
0840
3480
d200
1d80
7060
ENDCHAR
STARTCHAR 3026
ENCODING 12326
SWIDTH 960 0
DWIDTH 12 0
BBX 12 12 0 -2
BITMAP
01c0
7e80
1500
ffe0
8a20
a940
27a0
5f20
7100
0e00
1b00
e0e0
ENDCHAR
STARTCHAR 3027
ENCODING 12327
SWIDTH 960 0
DWIDTH 12 0
BBX 12 12 0 -2
BITMAP
2200
2280
2440
f7a0
2820
2fc0
3100
efe0
2100
2280
2440
6830
ENDCHAR
STARTCHAR 3028
ENCODING 12328
SWIDTH 960 0
DWIDTH 12 0
BBX 12 12 0 -2
BITMAP
4100
4100
5280
fa80
5440
5ba0
9000
d7c0
3440
2c40
4440
87c0
ENDCHAR
STARTCHAR 3029
ENCODING 12329
SWIDTH 960 0
DWIDTH 12 0
BBX 12 12 0 -2
BITMAP
0200
43c0
2c80
0300
0cc0
ffe0
2200
2fc0
2200
2fc0
5a00
87f0
ENDCHAR
STARTCHAR 302a
ENCODING 12330
SWIDTH 960 0
DWIDTH 12 0
BBX 12 12 0 -2
BITMAP
1100
ffe0
1100
1f00
4940
30a0
3fc0
c430
3fc0
0600
1980
6060
ENDCHAR
STARTCHAR 302b
ENCODING 12331
SWIDTH 960 0
DWIDTH 12 0
BBX 12 12 0 -2
BITMAP
1100
ffe0
1100
ffe0
0a00
7fc0
4a40
4a40
51c0
6040
4040
7fc0
ENDCHAR
STARTCHAR 302c
ENCODING 12332
SWIDTH 960 0
DWIDTH 12 0
BBX 12 12 0 -2
BITMAP
1a00
e3c0
2480
27c0
fd40
27c0
7540
6fe0
a920
afe0
2110
20f0
ENDCHAR
STARTCHAR 302d
ENCODING 12333
SWIDTH 960 0
DWIDTH 12 0
BBX 12 12 0 -2
BITMAP
0000
ffe0
0a00
7fc0
4a40
7fc0
0a00
ffe0
5400
5240
90a0
0f80
ENDCHAR
STARTCHAR 302e
ENCODING 12334
SWIDTH 960 0
DWIDTH 12 0
BBX 12 12 0 -2
BITMAP
4000
5fc0
5040
ffc0
5000
5fe0
72c0
dfa0
5100
57c0
6100
dfe0
ENDCHAR
STARTCHAR 302f
ENCODING 12335
SWIDTH 960 0
DWIDTH 12 0
BBX 12 12 0 -2
BITMAP
8000
5fc0
1040
9fc0
5000
1fe0
12c0
37a0
5100
57c0
9100
afe0
ENDCHAR
STARTCHAR 3030
ENCODING 12336
SWIDTH 960 0
DWIDTH 12 0
BBX 12 12 0 -2
BITMAP
2000
23e0
2220
fa20
2be0
2a20
2a20
2a20
2a20
4be0
4810
87f0
ENDCHAR
STARTCHAR 3031
ENCODING 12337
SWIDTH 960 0
DWIDTH 12 0
BBX 12 12 0 -2
BITMAP
1100
ffe0
1500
7f80
0880
ffe0
1080
1f80
3fc0
2400
ffe0
0400
ENDCHAR
STARTCHAR 3032
ENCODING 12338
SWIDTH 960 0
DWIDTH 12 0
BBX 12 12 0 -2
BITMAP
1100
ffe0
1100
7fc0
0000
3fc0
2040
3fc0
2000
4000
4000
8000
ENDCHAR
STARTCHAR 3033
ENCODING 12339
SWIDTH 960 0
DWIDTH 12 0
BBX 12 12 0 -2
BITMAP
2100
7a40
97a0
f900
afe0
f980
aa40
fca0
1310
6840
5180
8600
ENDCHAR
STARTCHAR 3034
ENCODING 12340
SWIDTH 960 0
DWIDTH 12 0
BBX 12 12 0 -2
BITMAP
2100
2100
2fe0
f440
2280
6fe0
7100
6100
afe0
a100
2100
2100
ENDCHAR
STARTCHAR 3035
ENCODING 12341
SWIDTH 960 0
DWIDTH 12 0
BBX 12 12 0 -2
BITMAP
0000
3fe0
2000
2200
2200
3fc0
2200
2200
2200
4200
5fe0
8000
ENDCHAR
STARTCHAR 3036
ENCODING 12342
SWIDTH 960 0
DWIDTH 12 0
BBX 12 12 0 -2
BITMAP
2100
f900
2280
fe40
89a0
f880
8c80
fa80
21e0
fe80
2080
2080
ENDCHAR
STARTCHAR 3037
ENCODING 12343
SWIDTH 960 0
DWIDTH 12 0
BBX 12 12 0 -2
BITMAP
2000
27c0
2240
fa80
22e0
2220
3520
e540
24c0
2940
2a20
7410
ENDCHAR
STARTCHAR 3038
ENCODING 12344
SWIDTH 960 0
DWIDTH 12 0
BBX 12 12 0 -2
BITMAP
0400
ffe0
8020
a020
3bc0
2a40
4a40
aa40
1380
1220
2220
41e0
ENDCHAR
STARTCHAR 3039
ENCODING 12345
SWIDTH 960 0
DWIDTH 12 0
BBX 12 12 0 -2
BITMAP
4000
47c0
5440
fc40
57c0
5440
5440
97c0
f440
2c40
4440
8fe0
ENDCHAR
STARTCHAR 303a
ENCODING 12346
SWIDTH 960 0
DWIDTH 12 0
BBX 12 12 0 -2
BITMAP
2080
2080
f880
afe0
aa00
fa00
2200
3200
2a00
3a00
c5e0
0400
ENDCHAR
STARTCHAR 303b
ENCODING 12347
SWIDTH 960 0
DWIDTH 12 0
BBX 12 12 0 -2
BITMAP
2100
3100
4900
b580
4a40
7bc0
4e20
7bc0
5240
4a40
5640
e3c0
ENDCHAR
STARTCHAR 303c
ENCODING 12348
SWIDTH 960 0
DWIDTH 12 0
BBX 12 12 0 -2
BITMAP
2100
4100
93e0
6420
53a0
faa0
2ba0
b2a0
aaa0
aba0
a020
20c0
ENDCHAR
STARTCHAR 303d
ENCODING 12349
SWIDTH 960 0
DWIDTH 12 0
BBX 12 12 0 -2
BITMAP
2100
47c0
9100
67e0
5280
fa40
2de0
b240
ae80
a900
a280
2c60
ENDCHAR
STARTCHAR 303e
ENCODING 12350
SWIDTH 960 0
DWIDTH 12 0
BBX 12 12 0 -2
BITMAP
2100
3900
5100
f9e0
a900
f900
abc0
fa40
1240
6a40
5240
83c0
ENDCHAR
STARTCHAR 303f
ENCODING 12351
SWIDTH 960 0
DWIDTH 12 0
BBX 12 12 0 -2
BITMAP
0280
0240
ffe0
0200
7a40
4a40
4a40
7980
0180
1aa0
e460
1820
ENDCHAR
STARTCHAR 3040
ENCODING 12352
SWIDTH 960 0
DWIDTH 12 0
BBX 12 12 0 -2
BITMAP
ffe0
0a00
7fc0
4a40
7fc0
64c0
1500
ffe0
0e00
3580
c460
0400
ENDCHAR
STARTCHAR 3041
ENCODING 12353
SWIDTH 960 0
DWIDTH 12 0
BBX 12 12 0 -2
BITMAP
2100
2100
fa80
1280
2440
3ba0
7000
afc0
2440
2440
2440
27c0
ENDCHAR
STARTCHAR 3042
ENCODING 12354
SWIDTH 960 0
DWIDTH 12 0
BBX 12 12 0 -2
BITMAP
0400
ffe0
8820
8820
0800
ffe0
1100
1100
3d00
0600
1980
6040
ENDCHAR
STARTCHAR 3043
ENCODING 12355
SWIDTH 960 0
DWIDTH 12 0
BBX 12 12 0 -2
BITMAP
0200
7fe0
4200
7fe0
4a80
5fc0
7260
5fc0
5240
5fc0
8220
81e0
ENDCHAR
STARTCHAR 3044
ENCODING 12356
SWIDTH 960 0
DWIDTH 12 0
BBX 12 12 0 -2
BITMAP
2100
2fe0
2820
fa20
2200
2ff0
3240
e240
2640
2180
2240
6c20
ENDCHAR
STARTCHAR 3045
ENCODING 12357
SWIDTH 960 0
DWIDTH 12 0
BBX 12 12 0 -2
BITMAP
0100
ffe0
9440
9480
9fe0
f000
97c0
9440
97c0
f440
0440
07c0
ENDCHAR
STARTCHAR 3046
ENCODING 12358
SWIDTH 960 0
DWIDTH 12 0
BBX 12 12 0 -2
BITMAP
0400
ffe0
8820
bfa0
1100
0e00
3580
ffe0
0e00
3580
c460
0400
ENDCHAR
STARTCHAR 3047
ENCODING 12359
SWIDTH 960 0
DWIDTH 12 0
BBX 12 12 0 -2
BITMAP
fbe0
8a20
fbe0
fbe0
8420
bfa0
8a20
ffe0
9120
9f20
9120
9f60
ENDCHAR
STARTCHAR 3048
ENCODING 12360
SWIDTH 960 0
DWIDTH 12 0
BBX 12 12 0 -2
BITMAP
5100
ffe0
5a20
7200
2ff0
fa40
aa40
fa40
2680
f980
2240
2420
ENDCHAR
STARTCHAR 3049
ENCODING 12361
SWIDTH 960 0
DWIDTH 12 0
BBX 12 12 0 -2
BITMAP
0400
0400
ffe0
0e00
1500
2480
c460
3f80
2080
2080
2080
3f80
ENDCHAR
STARTCHAR 304a
ENCODING 12362
SWIDTH 960 0
DWIDTH 12 0
BBX 12 12 0 -2
BITMAP
2040
2040
2840
2440
2440
2240
2040
2840
30c0
40a0
8310
0c00
ENDCHAR
STARTCHAR 304b
ENCODING 12363
SWIDTH 960 0
DWIDTH 12 0
BBX 12 12 0 -2
BITMAP
1000
1fc0
1240
2240
7fe0
a240
2240
2fc0
2200
2200
2400
2800
ENDCHAR
STARTCHAR 304c
ENCODING 12364
SWIDTH 960 0
DWIDTH 12 0
BBX 12 12 0 -2
BITMAP
1100
1100
1100
2fe0
2040
6840
a440
2440
2480
2480
2100
3fe0
ENDCHAR
STARTCHAR 304d
ENCODING 12365
SWIDTH 960 0
DWIDTH 12 0
BBX 12 12 0 -2
BITMAP
1100
1100
1fe0
2100
2220
6540
ad80
3500
2480
2480
2740
2c20
ENDCHAR
STARTCHAR 304e
ENCODING 12366
SWIDTH 960 0
DWIDTH 12 0
BBX 12 12 0 -2
BITMAP
1200
17c0
1240
3ff0
2440
67c0
a100
2fc0
2900
3fe0
2100
2100
ENDCHAR
STARTCHAR 304f
ENCODING 12367
SWIDTH 960 0
DWIDTH 12 0
BBX 12 12 0 -2
BITMAP
0000
7fe0
4920
4920
7fe0
4920
4920
7fe0
4920
4920
5020
7fe0
ENDCHAR
STARTCHAR 3050
ENCODING 12368
SWIDTH 960 0
DWIDTH 12 0
BBX 12 12 0 -2
BITMAP
0400
ffe0
0400
7f80
0480
7f80
4400
7fe0
0a20
1140
2080
c060
ENDCHAR
STARTCHAR 3051
ENCODING 12369
SWIDTH 960 0
DWIDTH 12 0
BBX 12 12 0 -2
BITMAP
0180
3e00
0400
ffe0
0e00
3580
c860
7fc0
1100
3e00
0d80
7040
ENDCHAR
STARTCHAR 3052
ENCODING 12370
SWIDTH 960 0
DWIDTH 12 0
BBX 12 12 0 -2
BITMAP
0140
4120
7ff0
4100
7d20
5520
7f40
54c0
5490
54d0
8930
b610
ENDCHAR
STARTCHAR 3053
ENCODING 12371
SWIDTH 960 0
DWIDTH 12 0
BBX 12 12 0 -2
BITMAP
0040
7c40
4440
7fe0
4040
7d40
4140
7d40
4840
aa40
aa40
18c0
ENDCHAR
STARTCHAR 3054
ENCODING 12372
SWIDTH 960 0
DWIDTH 12 0
BBX 12 12 0 -2
BITMAP
2440
2480
27e0
6c80
7480
b7e0
a480
2480
27e0
2480
2480
27e0
ENDCHAR
STARTCHAR 3055
ENCODING 12373
SWIDTH 960 0
DWIDTH 12 0
BBX 12 12 0 -2
BITMAP
0400
7fc0
1100
ffe0
2080
3f80
2080
3f80
5400
5240
90a0
0f80
ENDCHAR
STARTCHAR 3056
ENCODING 12374
SWIDTH 960 0
DWIDTH 12 0
BBX 12 12 0 -2
BITMAP
7c40
4440
7fe0
4240
7d40
4840
aa40
aac0
1400
5240
90a0
0f80
ENDCHAR
STARTCHAR 3057
ENCODING 12375
SWIDTH 960 0
DWIDTH 12 0
BBX 12 12 0 -2
BITMAP
0000
1fc0
1040
1fc0
1040
1fc0
0800
1fe0
64a0
0920
3220
0cc0
ENDCHAR
STARTCHAR 3058
ENCODING 12376
SWIDTH 960 0
DWIDTH 12 0
BBX 12 12 0 -2
BITMAP
2100
27e0
2100
f280
2440
6fe0
7040
6740
a540
a740
2040
20c0
ENDCHAR
STARTCHAR 3059
ENCODING 12377
SWIDTH 960 0
DWIDTH 12 0
BBX 12 12 0 -2
BITMAP
2200
1200
0400
7f00
0900
1fc0
1040
3fe0
4020
9520
2aa0
40c0
ENDCHAR
STARTCHAR 305a
ENCODING 12378
SWIDTH 960 0
DWIDTH 12 0
BBX 12 12 0 -2
BITMAP
0000
3fc0
2440
3fc0
2440
3fc0
0000
ffe0
2440
2280
3d80
e060
ENDCHAR
STARTCHAR 305b
ENCODING 12379
SWIDTH 960 0
DWIDTH 12 0
BBX 12 12 0 -2
BITMAP
0000
7fc0
4440
7fc0
4440
7fc0
1100
7fc0
1100
ffe0
2180
c040
ENDCHAR
STARTCHAR 305c
ENCODING 12380
SWIDTH 960 0
DWIDTH 12 0
BBX 12 12 0 -2
BITMAP
1a00
e3c0
2440
fa80
2100
7680
69e0
6220
ad40
a080
2300
2c00
ENDCHAR
STARTCHAR 305d
ENCODING 12381
SWIDTH 960 0
DWIDTH 12 0
BBX 12 12 0 -2
BITMAP
2240
2280
d7e0
5c80
2480
57c0
fc80
2480
b7c0
ac80
a480
27e0
ENDCHAR
STARTCHAR 305e
ENCODING 12382
SWIDTH 960 0
DWIDTH 12 0
BBX 12 12 0 -2
BITMAP
2100
27e0
d120
57f0
2220
53e0
f880
23e0
aa80
aff0
a080
2080
ENDCHAR
STARTCHAR 305f
ENCODING 12383
SWIDTH 960 0
DWIDTH 12 0
BBX 12 12 0 -2
BITMAP
0000
7fc0
4440
7fc0
4440
7fc0
2080
3f80
2080
3f80
2080
2180
ENDCHAR
STARTCHAR 3060
ENCODING 12384
SWIDTH 960 0
DWIDTH 12 0
BBX 12 12 0 -2
BITMAP
1100
ffe0
1100
7fc0
0400
ffe0
3580
c460
7fc0
1100
0f00
78c0
ENDCHAR
STARTCHAR 3061
ENCODING 12385
SWIDTH 960 0
DWIDTH 12 0
BBX 12 12 0 -2
BITMAP
0400
0400
ffe0
0800
0c40
1440
3280
d200
1100
1080
1c40
7020
ENDCHAR
STARTCHAR 3062
ENCODING 12386
SWIDTH 960 0
DWIDTH 12 0
BBX 12 12 0 -2
BITMAP
7000
0fe0
f920
0fe0
f920
0fe0
f440
07c0
f440
97c0
9440
f4c0
ENDCHAR
STARTCHAR 3063
ENCODING 12387
SWIDTH 960 0
DWIDTH 12 0
BBX 12 12 0 -2
BITMAP
0200
4fc0
2240
1fe0
0440
e7c0
2100
2fc0
2900
3fe0
5100
8ff0
ENDCHAR
STARTCHAR 3064
ENCODING 12388
SWIDTH 960 0
DWIDTH 12 0
BBX 12 12 0 -2
BITMAP
0200
4fc0
2a40
1fe0
0000
efc0
2840
2fc0
2840
2fc0
5c60
8ff0
ENDCHAR
STARTCHAR 3065
ENCODING 12389
SWIDTH 960 0
DWIDTH 12 0
BBX 12 12 0 -2
BITMAP
0000
7fe0
4800
4f80
5200
6200
5fc0
4200
4500
4880
5000
7fe0
ENDCHAR
STARTCHAR 3066
ENCODING 12390
SWIDTH 960 0
DWIDTH 12 0
BBX 12 12 0 -2
BITMAP
0880
0880
0880
7fe0
0880
0880
0880
7fe0
0880
0880
1080
2080
ENDCHAR
STARTCHAR 3067
ENCODING 12391
SWIDTH 960 0
DWIDTH 12 0
BBX 12 12 0 -2
BITMAP
0400
ffe0
0800
0a00
7200
1400
0c80
1900
6200
0d00
3080
c040
ENDCHAR
STARTCHAR 3068
ENCODING 12392
SWIDTH 960 0
DWIDTH 12 0
BBX 12 12 0 -2
BITMAP
0180
4140
5fe0
4100
fd20
5520
5540
5cc0
6280
cca0
3160
0220
ENDCHAR
STARTCHAR 3069
ENCODING 12393
SWIDTH 960 0
DWIDTH 12 0
BBX 12 12 0 -2
BITMAP
0400
ffe0
0900
1380
7c40
3f80
2080
3f80
2080
3f80
2080
2180
ENDCHAR
STARTCHAR 306a
ENCODING 12394
SWIDTH 960 0
DWIDTH 12 0
BBX 12 12 0 -2
BITMAP
1000
11e0
ff20
2140
3d80
65c0
7d20
a520
3d20
25c0
2500
2d00
ENDCHAR
STARTCHAR 306b
ENCODING 12395
SWIDTH 960 0
DWIDTH 12 0
BBX 12 12 0 -2
BITMAP
0440
faa0
2dc0
2560
4fe0
71a0
dff0
54a0
54c0
5ba0
7260
0c20
ENDCHAR
STARTCHAR 306c
ENCODING 12396
SWIDTH 960 0
DWIDTH 12 0
BBX 12 12 0 -2
BITMAP
0000
0000
0000
0000
0000
7fe0
0000
0000
0000
0000
0000
0000
ENDCHAR
STARTCHAR 306d
ENCODING 12397
SWIDTH 960 0
DWIDTH 12 0
BBX 12 12 0 -2
BITMAP
0400
3f80
0400
ffe0
0000
ffe0
9020
9020
1f00
1000
1040
0fc0
ENDCHAR
STARTCHAR 306e
ENCODING 12398
SWIDTH 960 0
DWIDTH 12 0
BBX 12 12 0 -2
BITMAP
4880
2480
0500
bfe0
4880
0880
1040
3fe0
5540
5540
9540
bfe0
ENDCHAR
STARTCHAR 306f
ENCODING 12399
SWIDTH 960 0
DWIDTH 12 0
BBX 12 12 0 -2
BITMAP
0200
43c0
2480
0fe0
0920
efe0
2300
2300
2520
28e0
5800
87f0
ENDCHAR
STARTCHAR 3070
ENCODING 12400
SWIDTH 960 0
DWIDTH 12 0
BBX 12 12 0 -2
BITMAP
18e0
e7a0
22a0
fac0
2280
75e0
6d20
6d20
a5e0
a520
2520
25e0
ENDCHAR
STARTCHAR 3071
ENCODING 12401
SWIDTH 960 0
DWIDTH 12 0
BBX 12 12 0 -2
BITMAP
1100
ffe0
1100
1500
47e0
2520
2940
0900
1100
2280
cc40
3020
ENDCHAR
STARTCHAR 3072
ENCODING 12402
SWIDTH 960 0
DWIDTH 12 0
BBX 12 12 0 -2
BITMAP
1100
ffe0
1100
3f80
0400
0400
ffe0
0400
0400
0400
0400
0c00
ENDCHAR
STARTCHAR 3073
ENCODING 12403
SWIDTH 960 0
DWIDTH 12 0
BBX 12 12 0 -2
BITMAP
2000
3fe0
5120
fbe0
ac80
ffe0
a920
fda0
1360
6da0
5120
86c0
ENDCHAR
STARTCHAR 3074
ENCODING 12404
SWIDTH 960 0
DWIDTH 12 0
BBX 12 12 0 -2
BITMAP
0800
0800
1300
20c0
7f20
0a00
0a00
0a00
1200
1220
2220
41e0
ENDCHAR
STARTCHAR 3075
ENCODING 12405
SWIDTH 960 0
DWIDTH 12 0
BBX 12 12 0 -2
BITMAP
0800
73e0
4220
4220
7a20
4220
4220
4220
7ac0
4200
0200
0200
ENDCHAR
STARTCHAR 3076
ENCODING 12406
SWIDTH 960 0
DWIDTH 12 0
BBX 12 12 0 -2
BITMAP
0000
0fe0
e920
a920
afe0
a920
a920
a9a0
aa60
ea60
0c20
0fe0
ENDCHAR
STARTCHAR 3077
ENCODING 12407
SWIDTH 960 0
DWIDTH 12 0
BBX 12 12 0 -2
BITMAP
1f80
1080
1f80
3fc0
2040
3fc0
2040
3fc0
2040
3fc0
1980
6060
ENDCHAR
STARTCHAR 3078
ENCODING 12408
SWIDTH 960 0
DWIDTH 12 0
BBX 12 12 0 -2
BITMAP
0000
7fe0
4420
4420
7fa0
4420
4420
4a20
5120
60a0
4020
7fe0
ENDCHAR
STARTCHAR 3079
ENCODING 12409
SWIDTH 960 0
DWIDTH 12 0
BBX 12 12 0 -2
BITMAP
4000
47e0
5520
fd20
57e0
5520
5520
95a0
f560
2e60
4620
87e0
ENDCHAR
STARTCHAR 307a
ENCODING 12410
SWIDTH 960 0
DWIDTH 12 0
BBX 12 12 0 -2
BITMAP
0040
7c40
0440
0440
7c40
4040
7c40
0440
0440
0440
0440
3840
ENDCHAR
STARTCHAR 307b
ENCODING 12411
SWIDTH 960 0
DWIDTH 12 0
BBX 12 12 0 -2
BITMAP
2100
3100
4d00
b1f0
4aa0
7aa0
4c80
7880
5140
4940
5620
ec10
ENDCHAR
STARTCHAR 307c
ENCODING 12412
SWIDTH 960 0
DWIDTH 12 0
BBX 12 12 0 -2
BITMAP
40e0
2f00
1240
8a40
4880
2fe0
0200
2200
4fc0
4200
8200
9fe0
ENDCHAR
STARTCHAR 307d
ENCODING 12413
SWIDTH 960 0
DWIDTH 12 0
BBX 12 12 0 -2
BITMAP
4440
4940
5240
4c40
4940
7fc0
5140
5f40
5140
5f50
5150
9330
ENDCHAR
STARTCHAR 307e
ENCODING 12414
SWIDTH 960 0
DWIDTH 12 0
BBX 12 12 0 -2
BITMAP
1100
ffe0
1100
e300
a780
c840
b7e0
a080
bfe0
c480
85c0
8e40
ENDCHAR
STARTCHAR 3121
ENCODING 12577
SWIDTH 960 0
DWIDTH 12 0
BBX 12 12 0 -2
BITMAP
e100
bfe0
b020
dfa0
a000
bfe0
a280
a280
c480
84a0
88a0
9060
ENDCHAR
STARTCHAR 3122
ENCODING 12578
SWIDTH 960 0
DWIDTH 12 0
BBX 12 12 0 -2
BITMAP
0200
e300
a480
afc0
d020
afc0
a100
bfe0
a280
c4c0
9f40
8040
ENDCHAR
STARTCHAR 3123
ENCODING 12579
SWIDTH 960 0
DWIDTH 12 0
BBX 12 12 0 -2
BITMAP
e3c0
be40
aa80
dfc0
c040
afc0
a040
bfc0
c540
94a0
a420
a3e0
ENDCHAR
STARTCHAR 3124
ENCODING 12580
SWIDTH 960 0
DWIDTH 12 0
BBX 12 12 0 -2
BITMAP
23c0
fa40
5240
53e0
fa20
03e0
7a20
4be0
7a20
4be0
7940
0620
ENDCHAR
STARTCHAR 3125
ENCODING 12581
SWIDTH 960 0
DWIDTH 12 0
BBX 12 12 0 -2
BITMAP
0080
0080
f080
9fe0
9080
9480
9280
9280
9080
f080
0080
0180
ENDCHAR
STARTCHAR 3126
ENCODING 12582
SWIDTH 960 0
DWIDTH 12 0
BBX 12 12 0 -2
BITMAP
0800
0800
0800
ffe0
0800
0800
1000
1fc0
3040
5040
9040
1fc0
ENDCHAR
STARTCHAR 3127
ENCODING 12583
SWIDTH 960 0
DWIDTH 12 0
BBX 12 12 0 -2
BITMAP
0400
ffe0
8020
bfa0
0400
0400
7fc0
0400
0400
0400
0400
0c00
ENDCHAR
STARTCHAR 3128
ENCODING 12584
SWIDTH 960 0
DWIDTH 12 0
BBX 12 12 0 -2
BITMAP
0800
3f80
2080
3f80
2000
3fe0
2000
3fe0
0120
54a0
4a20
80c0
ENDCHAR
STARTCHAR 3129
ENCODING 12585
SWIDTH 960 0
DWIDTH 12 0
BBX 12 12 0 -2
BITMAP
0000
ffe0
0820
4a20
2920
0820
1860
28a0
cb20
0820
0820
1860
ENDCHAR
STARTCHAR 312a
ENCODING 12586
SWIDTH 960 0
DWIDTH 12 0
BBX 12 12 0 -2
BITMAP
0000
4fc0
2100
0100
1fe0
e100
2100
2100
2100
2300
5800
87f0
ENDCHAR
STARTCHAR 312b
ENCODING 12587
SWIDTH 960 0
DWIDTH 12 0
BBX 12 12 0 -2
BITMAP
0000
7fe0
0400
0400
7fe0
6520
54a0
4420
6520
54a0
4420
4460
ENDCHAR
STARTCHAR 312c
ENCODING 12588
SWIDTH 960 0
DWIDTH 12 0
BBX 12 12 0 -2
BITMAP
0c00
71e0
4120
4920
4920
4920
4920
5920
e9c0
0900
1100
2100
ENDCHAR
STARTCHAR 312d
ENCODING 12589
SWIDTH 960 0
DWIDTH 12 0
BBX 12 12 0 -2
BITMAP
4900
33c0
fa40
2bc0
fa40
a3e0
fa00
2be0
6960
7aa0
a420
20c0
ENDCHAR
STARTCHAR 312e
ENCODING 12590
SWIDTH 960 0
DWIDTH 12 0
BBX 12 12 0 -2
BITMAP
0400
ffe0
8a20
73c0
2000
7bc0
2240
ffc0
3240
2bc0
42a0
8ce0
ENDCHAR
STARTCHAR 312f
ENCODING 12591
SWIDTH 960 0
DWIDTH 12 0
BBX 12 12 0 -2
BITMAP
0000
3f80
0480
0480
0480
7fe0
0480
0880
0880
0880
0880
7fe0
ENDCHAR
STARTCHAR 3130
ENCODING 12592
SWIDTH 960 0
DWIDTH 12 0
BBX 12 12 0 -2
BITMAP
0240
f480
27e0
2c80
5480
77e0
d480
5480
57e0
5480
7480
07e0
ENDCHAR
STARTCHAR 3131
ENCODING 12593
SWIDTH 960 0
DWIDTH 12 0
BBX 12 12 0 -2
BITMAP
0400
0800
33c0
2040
2040
2040
3bc0
2040
2040
2040
3fc0
0000
ENDCHAR
STARTCHAR 3132
ENCODING 12594
SWIDTH 960 0
DWIDTH 12 0
BBX 12 12 0 -2
BITMAP
4000
2fc0
0840
8bc0
4a40
1fe0
1020
37a0
54a0
57a0
9020
9060
ENDCHAR
STARTCHAR 3133
ENCODING 12595
SWIDTH 960 0
DWIDTH 12 0
BBX 12 12 0 -2
BITMAP
0200
03c0
e200
afe0
aa00
afe0
aa40
a9c0
aaa0
eac0
1680
2fe0
ENDCHAR
STARTCHAR 3134
ENCODING 12596
SWIDTH 960 0
DWIDTH 12 0
BBX 12 12 0 -2
BITMAP
0000
07c0
f440
9440
97c0
9440
97c0
9440
9440
f7c0
0240
0c20
ENDCHAR
STARTCHAR 3135
ENCODING 12597
SWIDTH 960 0
DWIDTH 12 0
BBX 12 12 0 -2
BITMAP
2480
fbe0
75c0
aaa0
7fc0
4a40
7fc0
4880
7fe0
5280
4880
f580
ENDCHAR
STARTCHAR 3136
ENCODING 12598
SWIDTH 960 0
DWIDTH 12 0
BBX 12 12 0 -2
BITMAP
1100
ffe0
1100
7c40
4440
7fe0
4040
7d40
4940
6c40
aa40
2ac0
ENDCHAR
STARTCHAR 3137
ENCODING 12599
SWIDTH 960 0
DWIDTH 12 0
BBX 12 12 0 -2
BITMAP
23c0
7a40
93c0
fa40
afe0
faa0
afe0
fa40
1140
6980
5240
8420
ENDCHAR
STARTCHAR 3138
ENCODING 12600
SWIDTH 960 0
DWIDTH 12 0
BBX 12 12 0 -2
BITMAP
4100
4100
57e0
f940
5180
5fe0
5100
9200
f7c0
2a00
4220
81e0
ENDCHAR
STARTCHAR 3139
ENCODING 12601
SWIDTH 960 0
DWIDTH 12 0
BBX 12 12 0 -2
BITMAP
7fe0
4000
5de0
5540
5d40
57e0
5c80
5180
5980
5680
9aa0
3460
ENDCHAR
STARTCHAR 313a
ENCODING 12602
SWIDTH 960 0
DWIDTH 12 0
BBX 12 12 0 -2
BITMAP
4120
2110
0fe0
8100
4fe0
0920
0fe0
2920
4fe0
4920
8920
8960
ENDCHAR
STARTCHAR 313b
ENCODING 12603
SWIDTH 960 0
DWIDTH 12 0
BBX 12 12 0 -2
BITMAP
00c0
3f00
2500
2500
2500
2500
2480
2680
2580
4740
7940
8020
ENDCHAR
STARTCHAR 313c
ENCODING 12604
SWIDTH 960 0
DWIDTH 12 0
BBX 12 12 0 -2
BITMAP
fbe0
8a20
fbe0
8a20
fbe0
8020
bfa0
8420
9f20
8420
bfa0
8060
ENDCHAR
STARTCHAR 313d
ENCODING 12605
SWIDTH 960 0
DWIDTH 12 0
BBX 12 12 0 -2
BITMAP
0880
1fe0
e500
bfc0
b540
b9c0
bfc0
a080
bfe0
e880
0480
0180
ENDCHAR
STARTCHAR 313e
ENCODING 12606
SWIDTH 960 0
DWIDTH 12 0
BBX 12 12 0 -2
BITMAP
0000
3f80
0000
0000
ffe0
0400
0400
0900
0880
1380
7c40
0040
ENDCHAR
STARTCHAR 313f
ENCODING 12607
SWIDTH 960 0
DWIDTH 12 0
BBX 12 12 0 -2
BITMAP
1fe0
5120
3fe0
0940
0fc0
e940
2fc0
2100
3fe0
2100
5900
87f0
ENDCHAR
STARTCHAR 3140
ENCODING 12608
SWIDTH 960 0
DWIDTH 12 0
BBX 12 12 0 -2
BITMAP
7fc0
0400
ffe0
8420
b5a0
0400
3f80
0000
ffe0
0900
1380
7c40
ENDCHAR
STARTCHAR 3141
ENCODING 12609
SWIDTH 960 0
DWIDTH 12 0
BBX 12 12 0 -2
BITMAP
1100
ffe0
1100
10c0
1700
2100
2100
7fe0
a100
2100
2fc0
2000
ENDCHAR
STARTCHAR 3142
ENCODING 12610
SWIDTH 960 0
DWIDTH 12 0
BBX 12 12 0 -2
BITMAP
2000
37e0
4a40
b3c0
4a40
7a40
4bc0
7a40
5240
4be0
5640
e040
ENDCHAR
STARTCHAR 3143
ENCODING 12611
SWIDTH 960 0
DWIDTH 12 0
BBX 12 12 0 -2
BITMAP
3800
23e0
fc20
a520
7140
8d40
2080
7880
ccc0
7940
4a20
7c10
ENDCHAR
STARTCHAR 3144
ENCODING 12612
SWIDTH 960 0
DWIDTH 12 0
BBX 12 12 0 -2
BITMAP
2880
1500
ffe0
8020
bf20
2100
3f00
0800
7f80
4080
4080
7f80
ENDCHAR
STARTCHAR 3145
ENCODING 12613
SWIDTH 960 0
DWIDTH 12 0
BBX 12 12 0 -2
BITMAP
fbe0
8a20
fbe0
8a20
fbe0
5140
8a20
ffe0
1100
3100
0e00
71c0
ENDCHAR
STARTCHAR 3146
ENCODING 12614
SWIDTH 960 0
DWIDTH 12 0
BBX 12 12 0 -2
BITMAP
7c80
4480
7d00
4640
7c40
1080
fe80
4520
7c20
5440
9280
3100
ENDCHAR
STARTCHAR 3147
ENCODING 12615
SWIDTH 960 0
DWIDTH 12 0
BBX 12 12 0 -2
BITMAP
0200
e200
afc0
aa40
aa40
ea40
bfe0
a300
a500
e480
0840
3020
ENDCHAR
STARTCHAR 3148
ENCODING 12616
SWIDTH 960 0
DWIDTH 12 0
BBX 12 12 0 -2
BITMAP
0800
0800
7f80
4880
7f80
4880
7fc0
0880
0700
1a20
e1a0
0060
ENDCHAR
STARTCHAR 3149
ENCODING 12617
SWIDTH 960 0
DWIDTH 12 0
BBX 12 12 0 -2
BITMAP
4840
2480
2500
ffe0
8420
8420
7fc0
0e00
1500
2480
c460
0400
ENDCHAR
STARTCHAR 314a
ENCODING 12618
SWIDTH 960 0
DWIDTH 12 0
BBX 12 12 0 -2
BITMAP
0c00
0200
0000
1c40
0680
ff00
1500
1480
2440
c420
0400
0c00
ENDCHAR
STARTCHAR 314b
ENCODING 12619
SWIDTH 960 0
DWIDTH 12 0
BBX 12 12 0 -2
BITMAP
4300
2080
0000
8720
41c0
1d80
0580
2540
4920
5110
8100
8300
ENDCHAR
STARTCHAR 314c
ENCODING 12620
SWIDTH 960 0
DWIDTH 12 0
BBX 12 12 0 -2
BITMAP
4200
2200
1fc0
9240
5fc0
1240
1fc0
2200
4280
4100
86a0
9860
ENDCHAR
STARTCHAR 314d
ENCODING 12621
SWIDTH 960 0
DWIDTH 12 0
BBX 12 12 0 -2
BITMAP
0480
ffe0
4480
4580
4fc0
f940
4940
5fe0
7100
c280
0440
1820
ENDCHAR
STARTCHAR 314e
ENCODING 12622
SWIDTH 960 0
DWIDTH 12 0
BBX 12 12 0 -2
BITMAP
0000
7f00
1100
1fc0
2a40
2440
5a40
8180
7fc0
4a40
4a40
ffe0
ENDCHAR
STARTCHAR 314f
ENCODING 12623
SWIDTH 960 0
DWIDTH 12 0
BBX 12 12 0 -2
BITMAP
8000
f7e0
8100
7be0
0220
7be0
2220
fbe0
2220
73e0
aa40
2420
ENDCHAR
STARTCHAR 3150
ENCODING 12624
SWIDTH 960 0
DWIDTH 12 0
BBX 12 12 0 -2
BITMAP
8000
fbe0
8100
7be0
0220
7be0
0220
fbe0
2220
abe0
a940
2620
ENDCHAR
STARTCHAR 3151
ENCODING 12625
SWIDTH 960 0
DWIDTH 12 0
BBX 12 12 0 -2
BITMAP
1100
7fc0
1500
0400
3f80
2480
2480
ffe0
0400
0a00
3180
c060
ENDCHAR
STARTCHAR 3152
ENCODING 12626
SWIDTH 960 0
DWIDTH 12 0
BBX 12 12 0 -2
BITMAP
2800
3ee0
4a00
bf00
33f0
5e40
c440
5e40
5440
7f40
4440
44c0
ENDCHAR
STARTCHAR 3153
ENCODING 12627
SWIDTH 960 0
DWIDTH 12 0
BBX 12 12 0 -2
BITMAP
7300
0080
f700
0120
71c0
0f80
7380
0340
f540
9920
9100
f300
ENDCHAR
STARTCHAR 3154
ENCODING 12628
SWIDTH 960 0
DWIDTH 12 0
BBX 12 12 0 -2
BITMAP
2440
3240
4a80
87c0
7c40
2440
ffc0
2280
aa80
7280
3ca0
c860
ENDCHAR
STARTCHAR 3155
ENCODING 12629
SWIDTH 960 0
DWIDTH 12 0
BBX 12 12 0 -2
BITMAP
4100
2fe0
0500
85e0
4920
09a0
1a40
6b40
4c80
4940
8a20
8c20
ENDCHAR
STARTCHAR 3156
ENCODING 12630
SWIDTH 960 0
DWIDTH 12 0
BBX 12 12 0 -2
BITMAP
0200
3fe0
a780
6480
24a0
2860
7780
a080
2480
4300
4580
9860
ENDCHAR
STARTCHAR 3157
ENCODING 12631
SWIDTH 960 0
DWIDTH 12 0
BBX 12 12 0 -2
BITMAP
2080
1080
0900
ffe0
1100
1100
2080
7fc0
aaa0
2a80
2a80
ffe0
ENDCHAR
STARTCHAR 3158
ENCODING 12632
SWIDTH 960 0
DWIDTH 12 0
BBX 12 12 0 -2
BITMAP
0000
fbe0
a220
f220
a3e0
f280
a280
fa80
0a40
aa40
8a20
3410
ENDCHAR
STARTCHAR 3159
ENCODING 12633
SWIDTH 960 0
DWIDTH 12 0
BBX 12 12 0 -2
BITMAP
2440
2280
27c0
7440
6c40
a440
a7c0
2280
2280
24a0
28a0
3060
ENDCHAR
STARTCHAR 315a
ENCODING 12634
SWIDTH 960 0
DWIDTH 12 0
BBX 12 12 0 -2
BITMAP
77c0
0440
ffc0
0440
77c0
0200
73e0
04a0
f720
9aa0
93a0
f0c0
ENDCHAR
STARTCHAR 315b
ENCODING 12635
SWIDTH 960 0
DWIDTH 12 0
BBX 12 12 0 -2
BITMAP
1080
10a0
7be0
1280
fea0
12a0
5e40
52e0
7720
5020
8c00
83f0
ENDCHAR
STARTCHAR 315c
ENCODING 12636
SWIDTH 960 0
DWIDTH 12 0
BBX 12 12 0 -2
BITMAP
fbe0
8a20
fbe0
8a20
fbe0
8a20
9f20
9120
9f20
8a20
93a0
a060
ENDCHAR
STARTCHAR 315d
ENCODING 12637
SWIDTH 960 0
DWIDTH 12 0
BBX 12 12 0 -2
BITMAP
2fe0
2100
27e0
f420
27e0
2420
77e0
63c0
a640
a980
2140
2e30
ENDCHAR
STARTCHAR 315e
ENCODING 12638
SWIDTH 960 0
DWIDTH 12 0
BBX 12 12 0 -2
BITMAP
0000
7fe0
54c0
5ca0
4080
5fe0
5480
5c80
5540
5d40
9540
9620
ENDCHAR
STARTCHAR 315f
ENCODING 12639
SWIDTH 960 0
DWIDTH 12 0
BBX 12 12 0 -2
BITMAP
0000
7fc0
4440
4440
4440
7fc0
4040
4040
4040
4040
4040
40c0
ENDCHAR
STARTCHAR 3160
ENCODING 12640
SWIDTH 960 0
DWIDTH 12 0
BBX 12 12 0 -2
BITMAP
0000
7fe0
4420
5fa0
4420
7fe0
50a0
5fa0
4ea0
7520
44a0
7fe0
ENDCHAR
STARTCHAR 3161
ENCODING 12641
SWIDTH 960 0
DWIDTH 12 0
BBX 12 12 0 -2
BITMAP
2000
2fe0
2a40
2bc0
fa40
2bc0
2900
2fe0
3a40
c980
0e40
0fe0
ENDCHAR
STARTCHAR 3162
ENCODING 12642
SWIDTH 960 0
DWIDTH 12 0
BBX 12 12 0 -2
BITMAP
0400
0400
ffe0
1500
2480
ffe0
2480
3f80
2480
3f80
0420
03e0
ENDCHAR
STARTCHAR 3163
ENCODING 12643
SWIDTH 960 0
DWIDTH 12 0
BBX 12 12 0 -2
BITMAP
0400
ffe0
9f20
9120
1f00
1100
1f00
0800
ffe0
3100
0e00
7180
ENDCHAR
STARTCHAR 3164
ENCODING 12644
SWIDTH 960 0
DWIDTH 12 0
BBX 12 12 0 -2
BITMAP
0060
f780
1100
2100
45e0
7500
1500
5500
2500
3fe0
4c00
83f0
ENDCHAR
STARTCHAR 3165
ENCODING 12645
SWIDTH 960 0
DWIDTH 12 0
BBX 12 12 0 -2
BITMAP
2000
3bc0
4a40
aa40
12c0
2220
c1e0
0400
5240
5220
90a0
0f80
ENDCHAR
STARTCHAR 3166
ENCODING 12646
SWIDTH 960 0
DWIDTH 12 0
BBX 12 12 0 -2
BITMAP
2100
2100
2ff0
f540
2920
37d0
3540
e7c0
2540
27c0
2110
60f0
ENDCHAR
STARTCHAR 3167
ENCODING 12647
SWIDTH 960 0
DWIDTH 12 0
BBX 12 12 0 -2
BITMAP
20e0
2f40
2a40
f580
2fc0
2400
3fe0
e400
2fc0
2a40
3180
6e60
ENDCHAR
STARTCHAR 3168
ENCODING 12648
SWIDTH 960 0
DWIDTH 12 0
BBX 12 12 0 -2
BITMAP
4500
2500
0500
0880
8880
5040
2fa0
2880
4880
4880
8880
8f80
ENDCHAR
STARTCHAR 3169
ENCODING 12649
SWIDTH 960 0
DWIDTH 12 0
BBX 12 12 0 -2
BITMAP
8200
7fe0
2020
1fc0
8200
5fc0
1240
3fc0
5240
5fc0
8840
b020
ENDCHAR
STARTCHAR 316a
ENCODING 12650
SWIDTH 960 0
DWIDTH 12 0
BBX 12 12 0 -2
BITMAP
0400
1440
2480
0600
1980
6440
1400
1440
2680
0900
3080
c060
ENDCHAR
STARTCHAR 316b
ENCODING 12651
SWIDTH 960 0
DWIDTH 12 0
BBX 12 12 0 -2
BITMAP
2080
20e0
2320
6840
b080
a5e0
2520
2520
55e0
4d20
8520
05e0
ENDCHAR
STARTCHAR 316c
ENCODING 12652
SWIDTH 960 0
DWIDTH 12 0
BBX 12 12 0 -2
BITMAP
2000
2fe0
2280
6fe0
baa0
aaa0
2fe0
2100
57c0
4900
8100
0fe0
ENDCHAR
STARTCHAR 316d
ENCODING 12653
SWIDTH 960 0
DWIDTH 12 0
BBX 12 12 0 -2
BITMAP
0a00
ffe0
0a00
2e80
20e0
ee80
2aa0
eea0
2060
2a40
4920
8920
ENDCHAR
STARTCHAR 316e
ENCODING 12654
SWIDTH 960 0
DWIDTH 12 0
BBX 12 12 0 -2
BITMAP
9100
6fe0
4100
bff0
27c0
2440
67c0
a320
2520
3cc0
2540
ce20
ENDCHAR
STARTCHAR 316f
ENCODING 12655
SWIDTH 960 0
DWIDTH 12 0
BBX 12 12 0 -2
BITMAP
2780
2080
d780
5080
27e0
5320
fd40
2280
b5c0
aaa0
a480
2180
ENDCHAR
STARTCHAR 3170
ENCODING 12656
SWIDTH 960 0
DWIDTH 12 0
BBX 12 12 0 -2
BITMAP
2880
fee0
ab40
ffe0
aaa0
fea0
7be0
4a00
7a00
5220
3e20
e1e0
ENDCHAR
STARTCHAR 3171
ENCODING 12657
SWIDTH 960 0
DWIDTH 12 0
BBX 12 12 0 -2
BITMAP
1100
ffe0
1100
2000
3bc0
2a40
4a40
6a40
9b80
1220
2220
41e0
ENDCHAR
STARTCHAR 3172
ENCODING 12658
SWIDTH 960 0
DWIDTH 12 0
BBX 12 12 0 -2
BITMAP
1100
ffe0
1100
7fe0
4f20
7fe0
50a0
5fa0
4aa0
7920
4ca0
7fe0
ENDCHAR
STARTCHAR 3173
ENCODING 12659
SWIDTH 960 0
DWIDTH 12 0
BBX 12 12 0 -2
BITMAP
0200
4fc0
2200
1fe0
0fc0
e840
2fc0
2740
2a80
3260
5b00
87f0
ENDCHAR
STARTCHAR 3174
ENCODING 12660
SWIDTH 960 0
DWIDTH 12 0
BBX 12 12 0 -2
BITMAP
2280
2280
5280
4c40
f840
2020
ffc0
2440
b440
6440
3c40
e7c0
ENDCHAR
STARTCHAR 3175
ENCODING 12661
SWIDTH 960 0
DWIDTH 12 0
BBX 12 12 0 -2
BITMAP
1de0
2520
d560
3900
e4e0
3f80
2080
3fc0
2000
3fe0
5520
a4c0
ENDCHAR
STARTCHAR 3176
ENCODING 12662
SWIDTH 960 0
DWIDTH 12 0
BBX 12 12 0 -2
BITMAP
2400
27e0
2800
f7c0
2440
27c0
2000
7fe0
caa0
0aa0
0aa0
3ff0
ENDCHAR
STARTCHAR 3177
ENCODING 12663
SWIDTH 960 0
DWIDTH 12 0
BBX 12 12 0 -2
BITMAP
2100
2100
fa80
2280
2440
3920
2880
2a00
4900
4880
8840
3040
ENDCHAR
STARTCHAR 3178
ENCODING 12664
SWIDTH 960 0
DWIDTH 12 0
BBX 12 12 0 -2
BITMAP
4000
2fc0
0200
8200
5fe0
0400
07c0
2840
4840
4040
8040
8180
ENDCHAR
STARTCHAR 3179
ENCODING 12665
SWIDTH 960 0
DWIDTH 12 0
BBX 12 12 0 -2
BITMAP
1000
57e0
5520
7fe0
9520
17e0
7900
17e0
1120
3a20
c220
0cc0
ENDCHAR
STARTCHAR 317a
ENCODING 12666
SWIDTH 960 0
DWIDTH 12 0
BBX 12 12 0 -2
BITMAP
0000
f1e0
9120
9120
9120
9120
9f20
8020
8020
8020
ffe0
0000
ENDCHAR
STARTCHAR 317b
ENCODING 12667
SWIDTH 960 0
DWIDTH 12 0
BBX 12 12 0 -2
BITMAP
0400
0400
3f80
2480
2480
2480
ffe0
0c00
0a00
1100
2080
c060
ENDCHAR
STARTCHAR 317c
ENCODING 12668
SWIDTH 960 0
DWIDTH 12 0
BBX 12 12 0 -2
BITMAP
0800
1000
7fc0
5540
4e40
7fc0
5540
64c0
ffe0
0a00
3180
c060
ENDCHAR
STARTCHAR 317d
ENCODING 12669
SWIDTH 960 0
DWIDTH 12 0
BBX 12 12 0 -2
BITMAP
2200
2100
5fe0
5100
9100
2100
27c0
6100
a100
2100
2100
2fe0
ENDCHAR
STARTCHAR 317e
ENCODING 12670
SWIDTH 960 0
DWIDTH 12 0
BBX 12 12 0 -2
BITMAP
0400
0400
7fe0
4200
4100
4500
5440
5420
5420
a480
a480
0380
ENDCHAR
STARTCHAR 3221
ENCODING 12833
SWIDTH 960 0
DWIDTH 12 0
BBX 12 12 0 -2
BITMAP
2000
2fe0
2920
f920
2fe0
2920
3920
efe0
2100
2100
2100
6100
ENDCHAR
STARTCHAR 3222
ENCODING 12834
SWIDTH 960 0
DWIDTH 12 0
BBX 12 12 0 -2
BITMAP
0000
ffe0
9100
9100
9100
f100
9fc0
9100
9100
f100
0100
1fe0
ENDCHAR
STARTCHAR 3223
ENCODING 12835
SWIDTH 960 0
DWIDTH 12 0
BBX 12 12 0 -2
BITMAP
2240
27e0
f240
2ff0
2100
67e0
7520
6fe0
a520
a7e0
2240
2c20
ENDCHAR
STARTCHAR 3224
ENCODING 12836
SWIDTH 960 0
DWIDTH 12 0
BBX 12 12 0 -2
BITMAP
0200
fa00
8200
cbe0
aaa0
94c0
9480
a880
c980
8140
fa40
0c20
ENDCHAR
STARTCHAR 3225
ENCODING 12837
SWIDTH 960 0
DWIDTH 12 0
BBX 12 12 0 -2
BITMAP
0380
fa80
8280
caa0
ac60
93c0
9040
aa40
c980
8080
fb40
0c20
ENDCHAR
STARTCHAR 3226
ENCODING 12838
SWIDTH 960 0
DWIDTH 12 0
BBX 12 12 0 -2
BITMAP
0000
7fc0
0400
0400
0400
0400
3f80
0400
0400
0400
0400
ffe0
ENDCHAR
STARTCHAR 3227
ENCODING 12839
SWIDTH 960 0
DWIDTH 12 0
BBX 12 12 0 -2
BITMAP
0900
1480
2440
c930
3f80
0040
ffe0
4920
28a0
38e0
cb20
1860
ENDCHAR
STARTCHAR 3228
ENCODING 12840
SWIDTH 960 0
DWIDTH 12 0
BBX 12 12 0 -2
BITMAP
2100
27e0
f6e0
15a0
17e0
25a0
6ee0
b4a0
2880
27f0
2140
2e30
ENDCHAR
STARTCHAR 3229
ENCODING 12841
SWIDTH 960 0
DWIDTH 12 0
BBX 12 12 0 -2
BITMAP
2880
1500
ffe0
8820
3f00
2100
3fe0
2000
3fc0
1540
4a40
8180
ENDCHAR
STARTCHAR 322a
ENCODING 12842
SWIDTH 960 0
DWIDTH 12 0
BBX 12 12 0 -2
BITMAP
0100
fbc0
8240
8bc0
ca40
b3e0
9200
abe0
c960
82a0
fc20
80c0
ENDCHAR
STARTCHAR 322b
ENCODING 12843
SWIDTH 960 0
DWIDTH 12 0
BBX 12 12 0 -2
BITMAP
1100
7fc0
1100
ffe0
0400
3f80
2480
3f80
2480
3f80
1180
e060
ENDCHAR
STARTCHAR 322c
ENCODING 12844
SWIDTH 960 0
DWIDTH 12 0
BBX 12 12 0 -2
BITMAP
0000
ffe0
9120
8920
8a20
ffe0
8420
a4a0
a4a0
bfa0
8020
8060
ENDCHAR
STARTCHAR 322d
ENCODING 12845
SWIDTH 960 0
DWIDTH 12 0
BBX 12 12 0 -2
BITMAP
4100
2100
0fe0
8920
4920
0920
0fe0
2100
4100
4100
8100
8100
ENDCHAR
STARTCHAR 322e
ENCODING 12846
SWIDTH 960 0
DWIDTH 12 0
BBX 12 12 0 -2
BITMAP
1100
ffe0
1100
1100
a140
4540
a580
3500
5300
9280
1440
6820
ENDCHAR
STARTCHAR 322f
ENCODING 12847
SWIDTH 960 0
DWIDTH 12 0
BBX 12 12 0 -2
BITMAP
2100
2fc0
2480
3fe0
4840
4fc0
c840
4fc0
5600
5540
64a0
4380
ENDCHAR
STARTCHAR 3230
ENCODING 12848
SWIDTH 960 0
DWIDTH 12 0
BBX 12 12 0 -2
BITMAP
3fc0
2040
3fc0
2000
3fe0
2500
28c0
3f20
4200
5fc0
8200
7fe0
ENDCHAR
STARTCHAR 3231
ENCODING 12849
SWIDTH 960 0
DWIDTH 12 0
BBX 12 12 0 -2
BITMAP
2200
2fc0
2480
3fe0
6840
6fc0
a840
2fc0
2500
2d40
34a0
23a0
ENDCHAR
STARTCHAR 3232
ENCODING 12850
SWIDTH 960 0
DWIDTH 12 0
BBX 12 12 0 -2
BITMAP
0100
efc0
a480
bfe0
e840
afc0
a840
efc0
a500
ad40
b4a0
a3a0
ENDCHAR
STARTCHAR 3233
ENCODING 12851
SWIDTH 960 0
DWIDTH 12 0
BBX 12 12 0 -2
BITMAP
2fc0
2480
2300
ffe0
2920
6920
7fe0
6920
afe0
a920
2920
2960
ENDCHAR
STARTCHAR 3234
ENCODING 12852
SWIDTH 960 0
DWIDTH 12 0
BBX 12 12 0 -2
BITMAP
1100
5100
5100
7900
97e0
1100
1900
f100
1100
1100
1100
1ff0
ENDCHAR
STARTCHAR 3235
ENCODING 12853
SWIDTH 960 0
DWIDTH 12 0
BBX 12 12 0 -2
BITMAP
0000
3f80
0080
0100
0200
0400
0800
1000
2000
4020
4020
3fe0
ENDCHAR
STARTCHAR 3236
ENCODING 12854
SWIDTH 960 0
DWIDTH 12 0
BBX 12 12 0 -2
BITMAP
2200
2200
3fe0
4500
cac0
5fa0
6a80
4f80
4a80
4f80
4220
41e0
ENDCHAR
STARTCHAR 3237
ENCODING 12855
SWIDTH 960 0
DWIDTH 12 0
BBX 12 12 0 -2
BITMAP
2000
3de0
5120
9120
7f20
1120
5d20
5120
51c0
5d00
e100
0100
ENDCHAR
STARTCHAR 3238
ENCODING 12856
SWIDTH 960 0
DWIDTH 12 0
BBX 12 12 0 -2
BITMAP
0000
7fc0
4440
7fc0
4a40
71c0
7fc0
1400
5240
5220
90a0
0f80
ENDCHAR
STARTCHAR 3239
ENCODING 12857
SWIDTH 960 0
DWIDTH 12 0
BBX 12 12 0 -2
BITMAP
4000
2f80
0880
8f80
4880
0f80
0000
3fc0
5540
5540
9540
bfe0
ENDCHAR
STARTCHAR 323a
ENCODING 12858
SWIDTH 960 0
DWIDTH 12 0
BBX 12 12 0 -2
BITMAP
31e0
ee40
2940
2580
ffc0
2040
77c0
6040
afc0
ab40
2aa0
29e0
ENDCHAR
STARTCHAR 323b
ENCODING 12859
SWIDTH 960 0
DWIDTH 12 0
BBX 12 12 0 -2
BITMAP
0400
7fc0
1100
0a00
ffe0
0000
1f80
1080
1f80
1080
1080
1f80
ENDCHAR
STARTCHAR 323c
ENCODING 12860
SWIDTH 960 0
DWIDTH 12 0
BBX 12 12 0 -2
BITMAP
0000
ffe0
0400
0400
0700
0480
0440
0400
0400
0400
0400
0400
ENDCHAR
STARTCHAR 323d
ENCODING 12861
SWIDTH 960 0
DWIDTH 12 0
BBX 12 12 0 -2
BITMAP
1200
1200
1240
2240
2280
6300
a200
2200
2200
2220
2220
21e0
ENDCHAR
STARTCHAR 323e
ENCODING 12862
SWIDTH 960 0
DWIDTH 12 0
BBX 12 12 0 -2
BITMAP
1000
17e0
1400
2400
27c0
6640
a540
2580
2880
2980
3240
2c20
ENDCHAR
STARTCHAR 323f
ENCODING 12863
SWIDTH 960 0
DWIDTH 12 0
BBX 12 12 0 -2
BITMAP
1000
1ff0
1040
2040
2f40
6940
a940
2940
2f40
2040
2040
20c0
ENDCHAR
STARTCHAR 3240
ENCODING 12864
SWIDTH 960 0
DWIDTH 12 0
BBX 12 12 0 -2
BITMAP
2800
2800
28e0
5ea0
4aa0
caa0
4aa0
4aa0
52a0
52a0
62e0
4c00
ENDCHAR
STARTCHAR 3241
ENCODING 12865
SWIDTH 960 0
DWIDTH 12 0
BBX 12 12 0 -2
BITMAP
1000
1fe0
1280
2280
2fe0
6aa0
aaa0
2aa0
2aa0
2aa0
2fe0
2800
ENDCHAR
STARTCHAR 3242
ENCODING 12866
SWIDTH 960 0
DWIDTH 12 0
BBX 12 12 0 -2
BITMAP
2200
2200
3fc0
4200
4200
dfe0
4200
4200
5fc0
4200
4200
7fe0
ENDCHAR
STARTCHAR 3243
ENCODING 12867
SWIDTH 960 0
DWIDTH 12 0
BBX 12 12 0 -2
BITMAP
2000
2000
21e0
fd20
2520
2520
2520
2520
2520
4520
45e0
9800
ENDCHAR
STARTCHAR 3244
ENCODING 12868
SWIDTH 960 0
DWIDTH 12 0
BBX 12 12 0 -2
BITMAP
0000
ffe0
0080
3e80
2280
2280
2280
3e80
2080
0080
0080
0180
ENDCHAR
STARTCHAR 3245
ENCODING 12869
SWIDTH 960 0
DWIDTH 12 0
BBX 12 12 0 -2
BITMAP
0400
ffe0
0400
3f80
2080
7fc0
0900
ffe0
1000
fbe0
2a20
dbe0
ENDCHAR
STARTCHAR 3246
ENCODING 12870
SWIDTH 960 0
DWIDTH 12 0
BBX 12 12 0 -2
BITMAP
0000
ffe0
0800
3f80
2080
3f80
2080
3f80
1f00
7100
0e00
f1e0
ENDCHAR
STARTCHAR 3247
ENCODING 12871
SWIDTH 960 0
DWIDTH 12 0
BBX 12 12 0 -2
BITMAP
4100
4fe0
5820
f7c0
5100
5f20
52c0
9d80
f2c0
2ca0
4080
8300
ENDCHAR
STARTCHAR 3248
ENCODING 12872
SWIDTH 960 0
DWIDTH 12 0
BBX 12 12 0 -2
BITMAP
0400
ffe0
8020
bfa0
0800
1540
6b40
1680
6a80
1240
6220
0c00
ENDCHAR
STARTCHAR 3249
ENCODING 12873
SWIDTH 960 0
DWIDTH 12 0
BBX 12 12 0 -2
BITMAP
0400
ffe0
8820
9f20
1100
1f00
1100
ffe0
28c0
dfb0
0880
3300
ENDCHAR
STARTCHAR 324a
ENCODING 12874
SWIDTH 960 0
DWIDTH 12 0
BBX 12 12 0 -2
BITMAP
1840
e240
2140
2040
fa40
3140
6840
60f0
a740
2040
2040
2040
ENDCHAR
STARTCHAR 324b
ENCODING 12875
SWIDTH 960 0
DWIDTH 12 0
BBX 12 12 0 -2
BITMAP
0ee0
ea20
aa20
aee0
a800
e9e0
ae20
a8a0
a840
ee40
08a0
0910
ENDCHAR
STARTCHAR 324c
ENCODING 12876
SWIDTH 960 0
DWIDTH 12 0
BBX 12 12 0 -2
BITMAP
0000
3fc0
2440
3fc0
2440
3fc0
0400
7fe0
0e00
3580
c460
0400
ENDCHAR
STARTCHAR 324d
ENCODING 12877
SWIDTH 960 0
DWIDTH 12 0
BBX 12 12 0 -2
BITMAP
2000
fbc0
2a40
2a40
4a40
b3c0
0400
ffe0
0e00
3580
c460
0400
ENDCHAR
STARTCHAR 324e
ENCODING 12878
SWIDTH 960 0
DWIDTH 12 0
BBX 12 12 0 -2
BITMAP
0100
fd00
e9e0
aaa0
eac0
0c80
f880
0980
e940
aa40
ec20
1810
ENDCHAR
STARTCHAR 324f
ENCODING 12879
SWIDTH 960 0
DWIDTH 12 0
BBX 12 12 0 -2
BITMAP
4000
2fe0
0040
8040
4f40
0940
0940
2f40
4040
4040
8040
80c0
ENDCHAR
STARTCHAR 3250
ENCODING 12880
SWIDTH 960 0
DWIDTH 12 0
BBX 12 12 0 -2
BITMAP
0400
0400
0440
2440
2480
4500
4400
0600
0a00
0900
3080
c060
ENDCHAR
STARTCHAR 3251
ENCODING 12881
SWIDTH 960 0
DWIDTH 12 0
BBX 12 12 0 -2
BITMAP
0000
0fe0
f040
2740
2540
2540
f540
2740
2040
3040
c040
00c0
ENDCHAR
STARTCHAR 3252
ENCODING 12882
SWIDTH 960 0
DWIDTH 12 0
BBX 12 12 0 -2
BITMAP
27c0
2440
f5c0
1540
2540
2fe0
7820
aba0
2aa0
2aa0
2ba0
2860
ENDCHAR
STARTCHAR 3253
ENCODING 12883
SWIDTH 960 0
DWIDTH 12 0
BBX 12 12 0 -2
BITMAP
0180
7e00
0400
0400
ffe0
0400
0e00
1500
2480
c460
0400
0400
ENDCHAR
STARTCHAR 3254
ENCODING 12884
SWIDTH 960 0
DWIDTH 12 0
BBX 12 12 0 -2
BITMAP
3100
efe0
2820
2fc0
fa00
3320
6d40
b380
ad40
3120
2100
2600
ENDCHAR
STARTCHAR 3255
ENCODING 12885
SWIDTH 960 0
DWIDTH 12 0
BBX 12 12 0 -2
BITMAP
2100
7be0
9480
7fe0
4420
5fa0
4420
5fa0
50a0
5fa0
4020
7fe0
ENDCHAR
STARTCHAR 3256
ENCODING 12886
SWIDTH 960 0
DWIDTH 12 0
BBX 12 12 0 -2
BITMAP
1100
1100
ffe0
1900
0a00
1220
32c0
5300
9200
1220
1220
11e0
ENDCHAR
STARTCHAR 3257
ENCODING 12887
SWIDTH 960 0
DWIDTH 12 0
BBX 12 12 0 -2
BITMAP
1100
ffe0
1100
0000
ffe0
0080
3e80
2280
2280
3e80
0080
0180
ENDCHAR
STARTCHAR 3258
ENCODING 12888
SWIDTH 960 0
DWIDTH 12 0
BBX 12 12 0 -2
BITMAP
1100
ffe0
1100
2100
21e0
fd20
2520
2520
2520
4520
45e0
9800
ENDCHAR
STARTCHAR 3259
ENCODING 12889
SWIDTH 960 0
DWIDTH 12 0
BBX 12 12 0 -2
BITMAP
1100
ffe0
0900
2000
3fe0
4080
5e80
d280
5280
5e80
4080
4180
ENDCHAR
STARTCHAR 325a
ENCODING 12890
SWIDTH 960 0
DWIDTH 12 0
BBX 12 12 0 -2
BITMAP
1100
ffe0
1100
7fc0
2480
ffe0
2480
7fc0
0400
ffe0
0400
0400
ENDCHAR
STARTCHAR 325b
ENCODING 12891
SWIDTH 960 0
DWIDTH 12 0
BBX 12 12 0 -2
BITMAP
1100
ffe0
1100
3f80
2480
3f80
2480
ffe0
0e00
3580
c460
0400
ENDCHAR
STARTCHAR 325c
ENCODING 12892
SWIDTH 960 0
DWIDTH 12 0
BBX 12 12 0 -2
BITMAP
2000
27e0
2520
ff60
ac00
ace0
ff20
24a0
3440
2f40
3ca0
c520
ENDCHAR
STARTCHAR 325d
ENCODING 12893
SWIDTH 960 0
DWIDTH 12 0
BBX 12 12 0 -2
BITMAP
77e0
0520
f7e0
0520
7520
07e0
7100
0fe0
f380
9540
9920
f100
ENDCHAR
STARTCHAR 325e
ENCODING 12894
SWIDTH 960 0
DWIDTH 12 0
BBX 12 12 0 -2
BITMAP
0880
3fe0
e880
bfc0
aa80
bfe0
aa80
bfc0
e200
3fe0
0200
0200
ENDCHAR
STARTCHAR 325f
ENCODING 12895
SWIDTH 960 0
DWIDTH 12 0
BBX 12 12 0 -2
BITMAP
0a60
3380
d220
3fe0
2080
3f80
2080
3f80
2080
3f80
3180
c040
ENDCHAR
STARTCHAR 3260
ENCODING 12896
SWIDTH 960 0
DWIDTH 12 0
BBX 12 12 0 -2
BITMAP
0800
48e0
3ea0
0aa0
0aa0
eaa0
2aa0
2aa0
2ae0
3600
5800
87f0
ENDCHAR
STARTCHAR 3261
ENCODING 12897
SWIDTH 960 0
DWIDTH 12 0
BBX 12 12 0 -2
BITMAP
07c0
4440
25c0
0540
0fe0
e820
2ba0
2aa0
2ba0
2860
5800
87f0
ENDCHAR
STARTCHAR 3262
ENCODING 12898
SWIDTH 960 0
DWIDTH 12 0
BBX 12 12 0 -2
BITMAP
7fc0
0400
ffe0
8420
b5a0
0000
7bc0
4840
7bc0
4140
7880
4360
ENDCHAR
STARTCHAR 3263
ENCODING 12899
SWIDTH 960 0
DWIDTH 12 0
BBX 12 12 0 -2
BITMAP
2100
2100
2fe0
fa40
aa40
aa80
f980
3100
2980
3a80
c440
0820
ENDCHAR
STARTCHAR 3264
ENCODING 12900
SWIDTH 960 0
DWIDTH 12 0
BBX 12 12 0 -2
BITMAP
2500
3940
2920
2900
7fe0
4900
cd40
4940
5880
69a0
4a60
5820
ENDCHAR
STARTCHAR 3265
ENCODING 12901
SWIDTH 960 0
DWIDTH 12 0
BBX 12 12 0 -2
BITMAP
0280
2cc0
24a0
2480
2fe0
ac80
aea0
aca0
ac40
fcc0
0560
0c20
ENDCHAR
STARTCHAR 3266
ENCODING 12902
SWIDTH 960 0
DWIDTH 12 0
BBX 12 12 0 -2
BITMAP
0a00
7280
1240
1200
ffe0
1240
1240
1d40
f180
12a0
1460
3020
ENDCHAR
STARTCHAR 3267
ENCODING 12903
SWIDTH 960 0
DWIDTH 12 0
BBX 12 12 0 -2
BITMAP
0000
1fc0
1100
1100
1100
ffe0
0300
0500
0900
3100
c100
0300
ENDCHAR
STARTCHAR 3268
ENCODING 12904
SWIDTH 960 0
DWIDTH 12 0
BBX 12 12 0 -2
BITMAP
0000
ffe0
0400
3f80
a4a0
a4a0
bfa0
a4a0
a4a0
bfa0
8020
ffe0
ENDCHAR
STARTCHAR 3269
ENCODING 12905
SWIDTH 960 0
DWIDTH 12 0
BBX 12 12 0 -2
BITMAP
0080
fc80
9080
9080
fc80
8480
fc80
9140
9140
9140
fe20
0410
ENDCHAR
STARTCHAR 326a
ENCODING 12906
SWIDTH 960 0
DWIDTH 12 0
BBX 12 12 0 -2
BITMAP
1100
ffe0
1100
7fe0
2100
2100
ffe0
0500
0900
3100
c100
0300
ENDCHAR
STARTCHAR 326b
ENCODING 12907
SWIDTH 960 0
DWIDTH 12 0
BBX 12 12 0 -2
BITMAP
0280
2cc0
24a0
fc80
afe0
ac80
fea0
24a0
2c40
3cc0
c560
0c20
ENDCHAR
STARTCHAR 326c
ENCODING 12908
SWIDTH 960 0
DWIDTH 12 0
BBX 12 12 0 -2
BITMAP
2000
fbe0
2a20
4a20
9be0
3f80
2080
3f80
2080
3f80
1100
e0c0
ENDCHAR
STARTCHAR 326d
ENCODING 12909
SWIDTH 960 0
DWIDTH 12 0
BBX 12 12 0 -2
BITMAP
0240
fa80
57e0
5480
fc80
17c0
3480
3480
57c0
9480
1480
37e0
ENDCHAR
STARTCHAR 326e
ENCODING 12910
SWIDTH 960 0
DWIDTH 12 0
BBX 12 12 0 -2
BITMAP
2280
34c0
4ca0
f480
5fe0
7480
56a0
7ca0
4440
54c0
5d60
ec20
ENDCHAR
STARTCHAR 326f
ENCODING 12911
SWIDTH 960 0
DWIDTH 12 0
BBX 12 12 0 -2
BITMAP
2000
fbe0
2a20
4be0
9800
3fc0
2400
3f80
2400
3fe0
4aa0
90c0
ENDCHAR
STARTCHAR 3270
ENCODING 12912
SWIDTH 960 0
DWIDTH 12 0
BBX 12 12 0 -2
BITMAP
0400
0400
0a00
1100
2080
d160
1100
1100
1100
2100
2100
4100
ENDCHAR
STARTCHAR 3271
ENCODING 12913
SWIDTH 960 0
DWIDTH 12 0
BBX 12 12 0 -2
BITMAP
0400
0400
0a00
1100
3f80
c060
0000
7fc0
0a00
1300
7c80
0080
ENDCHAR
STARTCHAR 3272
ENCODING 12914
SWIDTH 960 0
DWIDTH 12 0
BBX 12 12 0 -2
BITMAP
2000
3fe0
4920
9220
7cc0
55e0
7e80
5480
7ff0
4480
4480
8c80
ENDCHAR
STARTCHAR 3273
ENCODING 12915
SWIDTH 960 0
DWIDTH 12 0
BBX 12 12 0 -2
BITMAP
0000
7fe0
4020
4020
4f20
4920
4920
4f20
4020
4020
7fe0
0000
ENDCHAR
STARTCHAR 3274
ENCODING 12916
SWIDTH 960 0
DWIDTH 12 0
BBX 12 12 0 -2
BITMAP
2100
2200
2fc0
f940
2fc0
2940
2fc0
2340
3ba0
c5e0
0920
30e0
ENDCHAR
STARTCHAR 3275
ENCODING 12917
SWIDTH 960 0
DWIDTH 12 0
BBX 12 12 0 -2
BITMAP
0100
2fe0
2100
2fe0
faa0
2fe0
2100
3ff0
2d40
d480
2740
0c20
ENDCHAR
STARTCHAR 3276
ENCODING 12918
SWIDTH 960 0
DWIDTH 12 0
BBX 12 12 0 -2
BITMAP
0000
efe0
2820
2ba0
4aa0
eaa0
2ba0
a820
6fe0
2000
5800
87e0
ENDCHAR
STARTCHAR 3277
ENCODING 12919
SWIDTH 960 0
DWIDTH 12 0
BBX 12 12 0 -2
BITMAP
2200
2200
2fc0
2240
7240
6fe0
a200
2300
2300
2480
2840
3020
ENDCHAR
STARTCHAR 3278
ENCODING 12920
SWIDTH 960 0
DWIDTH 12 0
BBX 12 12 0 -2
BITMAP
2fc0
2440
2280
2100
7280
6c60
a100
2100
2fc0
2100
2100
3fe0
ENDCHAR
STARTCHAR 3279
ENCODING 12921
SWIDTH 960 0
DWIDTH 12 0
BBX 12 12 0 -2
BITMAP
2200
23e0
2400
2fc0
6540
7540
a7e0
2940
2940
2fe0
2040
2180
ENDCHAR
STARTCHAR 327a
ENCODING 12922
SWIDTH 960 0
DWIDTH 12 0
BBX 12 12 0 -2
BITMAP
2000
27e0
2480
24a0
65a0
75c0
6e80
a480
2880
2940
3640
3820
ENDCHAR
STARTCHAR 327b
ENCODING 12923
SWIDTH 960 0
DWIDTH 12 0
BBX 12 12 0 -2
BITMAP
2100
2fe0
2100
3fe0
6aa0
6fe0
a100
3ff0
2540
2c80
3740
2c20
ENDCHAR
STARTCHAR 327c
ENCODING 12924
SWIDTH 960 0
DWIDTH 12 0
BBX 12 12 0 -2
BITMAP
0280
0240
ffe0
0200
2a40
2a40
fe80
2980
2900
4aa0
8c60
0820
ENDCHAR
STARTCHAR 327d
ENCODING 12925
SWIDTH 960 0
DWIDTH 12 0
BBX 12 12 0 -2
BITMAP
2000
27e0
2420
f420
27e0
2000
3fe0
e120
2120
2220
2420
68c0
ENDCHAR
STARTCHAR 327e
ENCODING 12926
SWIDTH 960 0
DWIDTH 12 0
BBX 12 12 0 -2
BITMAP
0200
fa00
0be0
0a40
fc40
8640
8a80
8100
8980
7a80
0440
1820
ENDCHAR
STARTCHAR 3321
ENCODING 13089
SWIDTH 960 0
DWIDTH 12 0
BBX 12 12 0 -2
BITMAP
2040
4040
f940
aa40
f940
aa40
f860
37c0
3a40
5e40
5120
8fe0
ENDCHAR
STARTCHAR 3322
ENCODING 13090
SWIDTH 960 0
DWIDTH 12 0
BBX 12 12 0 -2
BITMAP
0400
e7e0
a400
afc0
b540
e540
bfe0
a940
a940
efe0
0040
0180
ENDCHAR
STARTCHAR 3323
ENCODING 13091
SWIDTH 960 0
DWIDTH 12 0
BBX 12 12 0 -2
BITMAP
2060
2050
2ff0
f040
2540
7540
6fd0
6550
a520
a960
3090
2110
ENDCHAR
STARTCHAR 3324
ENCODING 13092
SWIDTH 960 0
DWIDTH 12 0
BBX 12 12 0 -2
BITMAP
4400
27e0
0400
8fc0
5540
0540
07e0
2940
4940
4fe0
8040
8180
ENDCHAR
STARTCHAR 3325
ENCODING 13093
SWIDTH 960 0
DWIDTH 12 0
BBX 12 12 0 -2
BITMAP
0000
3fe0
2200
2240
2a40
2a40
3280
2200
4500
4500
8880
3060
ENDCHAR
STARTCHAR 3326
ENCODING 13094
SWIDTH 960 0
DWIDTH 12 0
BBX 12 12 0 -2
BITMAP
0000
3fc0
2440
3fc0
2440
3fc0
0a00
3180
c960
0900
1100
2100
ENDCHAR
STARTCHAR 3327
ENCODING 13095
SWIDTH 960 0
DWIDTH 12 0
BBX 12 12 0 -2
BITMAP
4200
4260
7b80
4200
5a20
e5e0
0800
3f80
2080
3f80
2080
3f80
ENDCHAR
STARTCHAR 3328
ENCODING 13096
SWIDTH 960 0
DWIDTH 12 0
BBX 12 12 0 -2
BITMAP
2100
2100
d280
5440
2ba0
5000
ffe0
2200
b280
a480
af40
2040
ENDCHAR
STARTCHAR 3329
ENCODING 13097
SWIDTH 960 0
DWIDTH 12 0
BBX 12 12 0 -2
BITMAP
1080
ffe0
1100
1500
0a00
1100
2980
c960
0900
1100
1100
2100
ENDCHAR
STARTCHAR 332a
ENCODING 13098
SWIDTH 960 0
DWIDTH 12 0
BBX 12 12 0 -2
BITMAP
3be0
d0a0
7d40
57e0
7c80
47e0
8c80
3f80
2480
3f80
04c0
ff20
ENDCHAR
STARTCHAR 332b
ENCODING 13099
SWIDTH 960 0
DWIDTH 12 0
BBX 12 12 0 -2
BITMAP
fbe0
8a20
fbe0
8a20
fbe0
8020
bfa0
8a20
bfa0
9220
a220
8260
ENDCHAR
STARTCHAR 332c
ENCODING 13100
SWIDTH 960 0
DWIDTH 12 0
BBX 12 12 0 -2
BITMAP
0900
e920
afc0
a900
c920
ace0
b200
afc0
e840
8fc0
8840
8fc0
ENDCHAR
STARTCHAR 332d
ENCODING 13101
SWIDTH 960 0
DWIDTH 12 0
BBX 12 12 0 -2
BITMAP
0000
3f80
2080
2080
3f80
2080
3f80
2080
2080
3f80
1b00
60c0
ENDCHAR
STARTCHAR 332e
ENCODING 13102
SWIDTH 960 0
DWIDTH 12 0
BBX 12 12 0 -2
BITMAP
2000
abc0
fa40
0240
fa40
0240
fa40
8a40
fa40
5240
7c40
c870
ENDCHAR
STARTCHAR 332f
ENCODING 13103
SWIDTH 960 0
DWIDTH 12 0
BBX 12 12 0 -2
BITMAP
1100
1100
fd00
27e0
5120
d120
2920
4920
9220
2a20
4420
88c0
ENDCHAR
STARTCHAR 3330
ENCODING 13104
SWIDTH 960 0
DWIDTH 12 0
BBX 12 12 0 -2
BITMAP
2100
2100
3d00
2500
4500
6580
9940
0920
1100
1100
2100
4100
ENDCHAR
STARTCHAR 3331
ENCODING 13105
SWIDTH 960 0
DWIDTH 12 0
BBX 12 12 0 -2
BITMAP
0100
0100
ffe0
9100
9240
9680
9100
9240
9c80
f380
0640
1820
ENDCHAR
STARTCHAR 3332
ENCODING 13106
SWIDTH 960 0
DWIDTH 12 0
BBX 12 12 0 -2
BITMAP
0400
ffe0
8420
bfa0
0400
3f80
0400
7fc0
0000
3f80
2080
3f80
ENDCHAR
STARTCHAR 3333
ENCODING 13107
SWIDTH 960 0
DWIDTH 12 0
BBX 12 12 0 -2
BITMAP
4440
7fc0
0000
7fe0
4200
5fc0
4200
7fe0
4200
5fc0
8200
3fe0
ENDCHAR
STARTCHAR 3334
ENCODING 13108
SWIDTH 960 0
DWIDTH 12 0
BBX 12 12 0 -2
BITMAP
2000
2ee0
2aa0
2ea0
7aa0
6bf0
ae40
2c40
2ac0
2ed0
3950
2230
ENDCHAR
STARTCHAR 3335
ENCODING 13109
SWIDTH 960 0
DWIDTH 12 0
BBX 12 12 0 -2
BITMAP
2000
2ee0
2aa0
fea0
2aa0
6bf0
7e40
6c40
aac0
aed0
2950
2230
ENDCHAR
STARTCHAR 3336
ENCODING 13110
SWIDTH 960 0
DWIDTH 12 0
BBX 12 12 0 -2
BITMAP
4000
3fe0
1100
97c0
5100
1fe0
1100
3100
57c0
5100
9100
afe0
ENDCHAR
STARTCHAR 3337
ENCODING 13111
SWIDTH 960 0
DWIDTH 12 0
BBX 12 12 0 -2
BITMAP
0000
f7c0
2440
27c0
4440
7fe0
d040
5fe0
5240
5140
7040
00c0
ENDCHAR
STARTCHAR 3338
ENCODING 13112
SWIDTH 960 0
DWIDTH 12 0
BBX 12 12 0 -2
BITMAP
1100
ffe0
1100
0400
7fc0
0400
ffe0
1080
7fc0
2aa0
2a80
ffe0
ENDCHAR
STARTCHAR 3339
ENCODING 13113
SWIDTH 960 0
DWIDTH 12 0
BBX 12 12 0 -2
BITMAP
2400
25e0
5e00
a5e0
2440
5f40
4440
df40
4440
4740
5840
40c0
ENDCHAR
STARTCHAR 333a
ENCODING 13114
SWIDTH 960 0
DWIDTH 12 0
BBX 12 12 0 -2
BITMAP
3880
0080
ffe0
0100
7140
0240
7580
0120
7a40
4c80
4940
7e20
ENDCHAR
STARTCHAR 333b
ENCODING 13115
SWIDTH 960 0
DWIDTH 12 0
BBX 12 12 0 -2
BITMAP
2540
3540
4fc0
8800
ffe0
2000
7fc0
2440
afc0
7440
3a80
c7e0
ENDCHAR
STARTCHAR 333c
ENCODING 13116
SWIDTH 960 0
DWIDTH 12 0
BBX 12 12 0 -2
BITMAP
7880
4880
5fe0
fd00
8500
7a40
4d80
7920
4a40
7c80
4940
5e20
ENDCHAR
STARTCHAR 333d
ENCODING 13117
SWIDTH 960 0
DWIDTH 12 0
BBX 12 12 0 -2
BITMAP
4000
3fc0
1240
9fc0
5240
1240
1fc0
2200
5fc0
4200
8200
bfe0
ENDCHAR
STARTCHAR 333e
ENCODING 13118
SWIDTH 960 0
DWIDTH 12 0
BBX 12 12 0 -2
BITMAP
7dc0
1140
ff20
55c0
7d40
9e80
8560
ffe0
1480
3fc0
d0a0
1f80
ENDCHAR
STARTCHAR 333f
ENCODING 13119
SWIDTH 960 0
DWIDTH 12 0
BBX 12 12 0 -2
BITMAP
2100
2100
27c0
f900
a900
afe0
f900
2100
37c0
2900
3900
c7e0
ENDCHAR
STARTCHAR 3340
ENCODING 13120
SWIDTH 960 0
DWIDTH 12 0
BBX 12 12 0 -2
BITMAP
0fe0
2000
27c0
2440
fc40
27c0
2440
2c40
37c0
e000
0000
1fe0
ENDCHAR
STARTCHAR 3341
ENCODING 13121
SWIDTH 960 0
DWIDTH 12 0
BBX 12 12 0 -2
BITMAP
2100
2100
2fe0
f100
27e0
6520
7520
6d20
a520
a560
2100
2100
ENDCHAR
STARTCHAR 3342
ENCODING 13122
SWIDTH 960 0
DWIDTH 12 0
BBX 12 12 0 -2
BITMAP
2000
23e0
2200
fbe0
aa80
aa80
fae0
32a0
2b20
3d20
ca20
04c0
ENDCHAR
STARTCHAR 3343
ENCODING 13123
SWIDTH 960 0
DWIDTH 12 0
BBX 12 12 0 -2
BITMAP
2100
2100
51e0
4a20
fb20
2520
f920
22a0
b3a0
68a0
3020
c0c0
ENDCHAR
STARTCHAR 3344
ENCODING 13124
SWIDTH 960 0
DWIDTH 12 0
BBX 12 12 0 -2
BITMAP
1020
7d20
1520
ff20
1520
ff20
5520
7d20
5520
7c20
1e20
e060
ENDCHAR
STARTCHAR 3345
ENCODING 13125
SWIDTH 960 0
DWIDTH 12 0
BBX 12 12 0 -2
BITMAP
0440
e440
aee0
a440
bff0
a540
ad60
afe0
f7d0
9550
2550
0640
ENDCHAR
STARTCHAR 3346
ENCODING 13126
SWIDTH 960 0
DWIDTH 12 0
BBX 12 12 0 -2
BITMAP
0800
0f80
1080
2900
4600
0900
1080
3fc0
d0a0
1080
1080
1f80
ENDCHAR
STARTCHAR 3347
ENCODING 13127
SWIDTH 960 0
DWIDTH 12 0
BBX 12 12 0 -2
BITMAP
0400
7fe0
4800
7fe0
5d20
5540
5d80
7d60
4920
bf20
89c0
1900
ENDCHAR
STARTCHAR 3348
ENCODING 13128
SWIDTH 960 0
DWIDTH 12 0
BBX 12 12 0 -2
BITMAP
2100
2100
2fe0
f800
2900
2900
3900
ea80
2a40
2ae0
3720
6020
ENDCHAR
STARTCHAR 3349
ENCODING 13129
SWIDTH 960 0
DWIDTH 12 0
BBX 12 12 0 -2
BITMAP
2a20
2540
2fe0
f820
27c0
2440
37c0
e440
27c0
2280
24a0
6860
ENDCHAR
STARTCHAR 334a
ENCODING 13130
SWIDTH 960 0
DWIDTH 12 0
BBX 12 12 0 -2
BITMAP
2200
23c0
2240
f640
2980
6140
7220
6fd0
a240
a240
2240
23c0
ENDCHAR
STARTCHAR 334b
ENCODING 13131
SWIDTH 960 0
DWIDTH 12 0
BBX 12 12 0 -2
BITMAP
2100
2100
2fe0
f200
2280
7680
6900
6240
ac80
a180
2240
2c20
ENDCHAR
STARTCHAR 334c
ENCODING 13132
SWIDTH 960 0
DWIDTH 12 0
BBX 12 12 0 -2
BITMAP
2380
fa80
2280
7aa0
0460
f800
8bc0
7040
5280
5900
5280
8c40
ENDCHAR
STARTCHAR 334d
ENCODING 13133
SWIDTH 960 0
DWIDTH 12 0
BBX 12 12 0 -2
BITMAP
9480
7fe0
4500
a880
2fe0
3900
6fe0
a900
2fe0
2480
c300
5ce0
ENDCHAR
STARTCHAR 334e
ENCODING 13134
SWIDTH 960 0
DWIDTH 12 0
BBX 12 12 0 -2
BITMAP
0100
ffe0
2a20
2280
47e0
7c80
d7c0
5480
57c0
5480
7480
07e0
ENDCHAR
STARTCHAR 334f
ENCODING 13135
SWIDTH 960 0
DWIDTH 12 0
BBX 12 12 0 -2
BITMAP
3280
efe0
2280
f500
27e0
6d00
77c0
6500
afe0
a480
2300
2ce0
ENDCHAR
STARTCHAR 3350
ENCODING 13136
SWIDTH 960 0
DWIDTH 12 0
BBX 12 12 0 -2
BITMAP
2880
1500
ffe0
a0a0
bfa0
2080
3f80
2080
3f80
0a00
3220
c1e0
ENDCHAR
STARTCHAR 3351
ENCODING 13137
SWIDTH 960 0
DWIDTH 12 0
BBX 12 12 0 -2
BITMAP
0800
1f00
2200
ffc0
2440
3fc0
2440
3fc0
2040
2040
2040
40c0
ENDCHAR
STARTCHAR 3352
ENCODING 13138
SWIDTH 960 0
DWIDTH 12 0
BBX 12 12 0 -2
BITMAP
1100
1100
7fc0
1100
ffe0
2a80
2a80
6ec0
aaa0
2a80
4c80
4c80
ENDCHAR
STARTCHAR 3353
ENCODING 13139
SWIDTH 960 0
DWIDTH 12 0
BBX 12 12 0 -2
BITMAP
2100
f100
2fe0
fa80
ac40
f8a0
ac80
fa80
2100
fa80
2440
2820
ENDCHAR
STARTCHAR 3354
ENCODING 13140
SWIDTH 960 0
DWIDTH 12 0
BBX 12 12 0 -2
BITMAP
1000
ffc0
7d40
4540
7d80
0140
7d20
0920
fd20
11c0
1100
3100
ENDCHAR
STARTCHAR 3355
ENCODING 13141
SWIDTH 960 0
DWIDTH 12 0
BBX 12 12 0 -2
BITMAP
fbe0
8a20
fbe0
8a20
ffe0
9220
ac20
9220
bf20
d2a0
9e20
8060
ENDCHAR
STARTCHAR 3356
ENCODING 13142
SWIDTH 960 0
DWIDTH 12 0
BBX 12 12 0 -2
BITMAP
efe0
a000
afc0
c840
afc0
a000
afe0
aaa0
ece0
8ba0
8920
8960
ENDCHAR
STARTCHAR 3357
ENCODING 13143
SWIDTH 960 0
DWIDTH 12 0
BBX 12 12 0 -2
BITMAP
1100
ffe0
1100
1f00
0400
7fc0
4440
7fc0
0400
ffe0
0400
0400
ENDCHAR
STARTCHAR 3358
ENCODING 13144
SWIDTH 960 0
DWIDTH 12 0
BBX 12 12 0 -2
BITMAP
2440
1280
ffe0
8020
9f20
0200
0400
7fe0
0400
0400
0400
0c00
ENDCHAR
STARTCHAR 3359
ENCODING 13145
SWIDTH 960 0
DWIDTH 12 0
BBX 12 12 0 -2
BITMAP
0180
3e00
2000
3fc0
2100
2100
ffe0
0400
4440
4440
4440
7fc0
ENDCHAR
STARTCHAR 335a
ENCODING 13146
SWIDTH 960 0
DWIDTH 12 0
BBX 12 12 0 -2
BITMAP
0800
9f20
5140
1f00
31c0
df20
0400
ffe0
0e00
3580
c460
0400
ENDCHAR
STARTCHAR 335b
ENCODING 13147
SWIDTH 960 0
DWIDTH 12 0
BBX 12 12 0 -2
BITMAP
1000
ffe0
8500
7be0
4a20
53e0
b220
4be0
fe20
4be0
4940
7a20
ENDCHAR
STARTCHAR 335c
ENCODING 13148
SWIDTH 960 0
DWIDTH 12 0
BBX 12 12 0 -2
BITMAP
0000
ffe0
a900
fbe0
0220
7be0
0220
ffe0
2220
7be0
0920
3610
ENDCHAR
STARTCHAR 335d
ENCODING 13149
SWIDTH 960 0
DWIDTH 12 0
BBX 12 12 0 -2
BITMAP
2240
2240
2f40
f240
2fc0
2260
3250
ef50
2240
2340
2c40
6040
ENDCHAR
STARTCHAR 335e
ENCODING 13150
SWIDTH 960 0
DWIDTH 12 0
BBX 12 12 0 -2
BITMAP
4200
4200
7be0
5480
8900
0400
ffe0
0100
2100
1100
1200
ffe0
ENDCHAR
STARTCHAR 335f
ENCODING 13151
SWIDTH 960 0
DWIDTH 12 0
BBX 12 12 0 -2
BITMAP
2fe0
2aa0
2fa0
f940
2f40
6aa0
7f20
6100
a7c0
a100
2100
2fe0
ENDCHAR
STARTCHAR 3360
ENCODING 13152
SWIDTH 960 0
DWIDTH 12 0
BBX 12 12 0 -2
BITMAP
2000
2fe0
2540
f7c0
2540
77c0
6800
6fe0
a540
a7c0
2540
2fe0
ENDCHAR
STARTCHAR 3361
ENCODING 13153
SWIDTH 960 0
DWIDTH 12 0
BBX 12 12 0 -2
BITMAP
2000
27e0
2420
f7e0
2400
67e0
7480
6fe0
a480
27d0
2890
2870
ENDCHAR
STARTCHAR 3362
ENCODING 13154
SWIDTH 960 0
DWIDTH 12 0
BBX 12 12 0 -2
BITMAP
21c0
3e40
5240
fa50
af60
fae0
af40
fa40
12a0
6aa0
5320
8a10
ENDCHAR
STARTCHAR 3363
ENCODING 13155
SWIDTH 960 0
DWIDTH 12 0
BBX 12 12 0 -2
BITMAP
4200
2cc0
0840
0ec0
8840
4fc0
0400
27e0
4820
5520
84a0
80c0
ENDCHAR
STARTCHAR 3364
ENCODING 13156
SWIDTH 960 0
DWIDTH 12 0
BBX 12 12 0 -2
BITMAP
1020
ff20
9320
7d20
1120
7d20
1120
ff20
0120
7c20
4420
7c60
ENDCHAR
STARTCHAR 3365
ENCODING 13157
SWIDTH 960 0
DWIDTH 12 0
BBX 12 12 0 -2
BITMAP
0fc0
e840
afc0
a840
afc0
a400
a7e0
e920
1e20
28a0
07a0
00c0
ENDCHAR
STARTCHAR 3366
ENCODING 13158
SWIDTH 960 0
DWIDTH 12 0
BBX 12 12 0 -2
BITMAP
2100
2100
2280
2280
7440
6ba0
b000
27c0
2440
2440
2440
27c0
ENDCHAR
STARTCHAR 3367
ENCODING 13159
SWIDTH 960 0
DWIDTH 12 0
BBX 12 12 0 -2
BITMAP
20c0
2f00
2100
f100
2fe0
2100
3100
e7c0
2440
2440
2440
67c0
ENDCHAR
STARTCHAR 3368
ENCODING 13160
SWIDTH 960 0
DWIDTH 12 0
BBX 12 12 0 -2
BITMAP
40c0
2f00
0200
8200
5fe0
0200
0200
2fc0
4840
4840
8840
8fc0
ENDCHAR
STARTCHAR 3369
ENCODING 13161
SWIDTH 960 0
DWIDTH 12 0
BBX 12 12 0 -2
BITMAP
4fc0
2840
0fc0
8840
4fc0
0400
0fe0
34a0
4720
44a0
83a0
80c0
ENDCHAR
STARTCHAR 336a
ENCODING 13162
SWIDTH 960 0
DWIDTH 12 0
BBX 12 12 0 -2
BITMAP
47c0
2440
05c0
8540
5ff0
1450
17d0
2440
47c0
4440
8440
84c0
ENDCHAR
STARTCHAR 336b
ENCODING 13163
SWIDTH 960 0
DWIDTH 12 0
BBX 12 12 0 -2
BITMAP
1100
ffe0
1100
3f80
2080
3f80
2080
3fe0
3320
dca0
0fa0
00c0
ENDCHAR
STARTCHAR 336c
ENCODING 13164
SWIDTH 960 0
DWIDTH 12 0
BBX 12 12 0 -2
BITMAP
27c0
2440
f7c0
1440
27c0
2a00
77e0
aca0
3720
24a0
23a0
20c0
ENDCHAR
STARTCHAR 336d
ENCODING 13165
SWIDTH 960 0
DWIDTH 12 0
BBX 12 12 0 -2
BITMAP
2100
ffe0
2920
ffc0
a900
ffc0
a900
ffe0
2000
ffc0
2440
27c0
ENDCHAR
STARTCHAR 336e
ENCODING 13166
SWIDTH 960 0
DWIDTH 12 0
BBX 12 12 0 -2
BITMAP
0000
1f80
1080
1080
1f80
1080
1080
1f80
1080
1080
1080
7fe0
ENDCHAR
STARTCHAR 336f
ENCODING 13167
SWIDTH 960 0
DWIDTH 12 0
BBX 12 12 0 -2
BITMAP
2000
37e0
54a0
ffa0
af40
fca0
af10
f880
13e0
6880
5080
87f0
ENDCHAR
STARTCHAR 3370
ENCODING 13168
SWIDTH 960 0
DWIDTH 12 0
BBX 12 12 0 -2
BITMAP
0100
0100
f100
9100
9fe0
9100
9100
9100
9100
f100
0100
0100
ENDCHAR
STARTCHAR 3371
ENCODING 13169
SWIDTH 960 0
DWIDTH 12 0
BBX 12 12 0 -2
BITMAP
2480
3fe0
2480
f200
2300
6520
6dc0
7500
a500
a500
2520
24e0
ENDCHAR
STARTCHAR 3372
ENCODING 13170
SWIDTH 960 0
DWIDTH 12 0
BBX 12 12 0 -2
BITMAP
2480
2fe0
2480
ffe0
2540
6fe0
7540
6fe0
a100
afe0
2100
2100
ENDCHAR
STARTCHAR 3373
ENCODING 13171
SWIDTH 960 0
DWIDTH 12 0
BBX 12 12 0 -2
BITMAP
5200
fa00
53e0
7420
2ba0
f8a0
a8a0
fba0
22c0
fa00
2220
21e0
ENDCHAR
STARTCHAR 3374
ENCODING 13172
SWIDTH 960 0
DWIDTH 12 0
BBX 12 12 0 -2
BITMAP
2100
2500
27c0
fd00
2900
6fe0
7100
6b80
a380
a540
2920
2100
ENDCHAR
STARTCHAR 3375
ENCODING 13173
SWIDTH 960 0
DWIDTH 12 0
BBX 12 12 0 -2
BITMAP
1400
6fc0
4a40
4e40
4a40
7bc0
4e40
0000
0a00
1220
2220
c1e0
ENDCHAR
STARTCHAR 3376
ENCODING 13174
SWIDTH 960 0
DWIDTH 12 0
BBX 12 12 0 -2
BITMAP
0400
ffe0
9520
6ec0
0400
7fc0
2480
7fc0
4440
7fc0
0420
03e0
ENDCHAR
STARTCHAR 3377
ENCODING 13175
SWIDTH 960 0
DWIDTH 12 0
BBX 12 12 0 -2
BITMAP
1100
ffe0
1280
4fc0
2200
8fc0
4a40
0fc0
2a40
4fc0
4a40
8ac0
ENDCHAR
STARTCHAR 3378
ENCODING 13176
SWIDTH 960 0
DWIDTH 12 0
BBX 12 12 0 -2
BITMAP
0a00
1100
2a80
c460
1b00
e0e0
3f80
0400
7fc0
2480
1500
ffe0
ENDCHAR
STARTCHAR 3379
ENCODING 13177
SWIDTH 960 0
DWIDTH 12 0
BBX 12 12 0 -2
BITMAP
2280
27e0
5280
4fe0
faa0
27e0
faa0
27e0
b280
66c0
3aa0
c280
ENDCHAR
STARTCHAR 337a
ENCODING 13178
SWIDTH 960 0
DWIDTH 12 0
BBX 12 12 0 -2
BITMAP
0100
05e0
e500
bff0
a920
ad60
aba0
afe0
e920
8ba0
0d60
0fe0
ENDCHAR
STARTCHAR 337b
ENCODING 13179
SWIDTH 960 0
DWIDTH 12 0
BBX 12 12 0 -2
BITMAP
0100
fbc0
aa40
abc0
fa00
abe0
aa00
fbe0
2020
2560
2520
28c0
ENDCHAR
STARTCHAR 337c
ENCODING 13180
SWIDTH 960 0
DWIDTH 12 0
BBX 12 12 0 -2
BITMAP
2000
2fe0
2100
f200
27c0
6440
7440
67c0
a440
a440
2440
27c0
ENDCHAR
STARTCHAR 337d
ENCODING 13181
SWIDTH 960 0
DWIDTH 12 0
BBX 12 12 0 -2
BITMAP
1100
ffe0
1100
7f80
1100
0a00
ffe0
0c40
1480
2400
c400
0c00
ENDCHAR
STARTCHAR 337e
ENCODING 13182
SWIDTH 960 0
DWIDTH 12 0
BBX 12 12 0 -2
BITMAP
1100
ffe0
1500
ffe0
8020
7fc0
2080
3f80
2080
3f80
0000
ffe0
ENDCHAR
STARTCHAR 3421
ENCODING 13345
SWIDTH 960 0
DWIDTH 12 0
BBX 12 12 0 -2
BITMAP
0400
f5e0
2d20
2620
ffe0
8480
eee0
2e20
3520
2420
2420
c4c0
ENDCHAR
STARTCHAR 3422
ENCODING 13346
SWIDTH 960 0
DWIDTH 12 0
BBX 12 12 0 -2
BITMAP
0020
0520
0520
0520
c920
2920
1120
1920
2520
2420
4020
8060
ENDCHAR
STARTCHAR 3423
ENCODING 13347
SWIDTH 960 0
DWIDTH 12 0
BBX 12 12 0 -2
BITMAP
1100
ffe0
1100
0840
0a40
ca40
2a40
1240
1240
2a40
4840
80c0
ENDCHAR
STARTCHAR 3424
ENCODING 13348
SWIDTH 960 0
DWIDTH 12 0
BBX 12 12 0 -2
BITMAP
0000
ffc0
1000
1000
1f00
1100
1900
1500
2120
2720
3920
c0e0
ENDCHAR
STARTCHAR 3425
ENCODING 13349
SWIDTH 960 0
DWIDTH 12 0
BBX 12 12 0 -2
BITMAP
2200
fa00
23e0
fc00
8bc0
f840
8880
f900
2200
fc20
2420
23e0
ENDCHAR
STARTCHAR 3426
ENCODING 13350
SWIDTH 960 0
DWIDTH 12 0
BBX 12 12 0 -2
BITMAP
1000
1fc0
1840
2840
2840
6fc0
a000
2a80
2a80
2aa0
32a0
2060
ENDCHAR
STARTCHAR 3427
ENCODING 13351
SWIDTH 960 0
DWIDTH 12 0
BBX 12 12 0 -2
BITMAP
0000
ffe0
80a0
fca0
03e0
fc80
2a80
2a80
2880
49a0
4820
87e0
ENDCHAR
STARTCHAR 3428
ENCODING 13352
SWIDTH 960 0
DWIDTH 12 0
BBX 12 12 0 -2
BITMAP
0400
ffe0
9220
ffa0
1200
7f80
1200
ffc0
2900
4480
9860
0600
ENDCHAR
STARTCHAR 3429
ENCODING 13353
SWIDTH 960 0
DWIDTH 12 0
BBX 12 12 0 -2
BITMAP
0020
7d20
1120
1120
1120
fd20
1120
1120
1120
1020
1020
1060
ENDCHAR
STARTCHAR 342a
ENCODING 13354
SWIDTH 960 0
DWIDTH 12 0
BBX 12 12 0 -2
BITMAP
4900
fd00
4900
7fe0
4920
7920
4920
fd20
a920
cd20
8220
7cc0
ENDCHAR
STARTCHAR 342b
ENCODING 13355
SWIDTH 960 0
DWIDTH 12 0
BBX 12 12 0 -2
BITMAP
4100
7d00
4900
7fe0
9120
7d20
d120
7d20
5120
7d20
5220
7cc0
ENDCHAR
STARTCHAR 342c
ENCODING 13356
SWIDTH 960 0
DWIDTH 12 0
BBX 12 12 0 -2
BITMAP
0400
2480
1500
7fc0
0a00
ffe0
1100
3f80
c160
1f00
1040
0fc0
ENDCHAR
STARTCHAR 342d
ENCODING 13357
SWIDTH 960 0
DWIDTH 12 0
BBX 12 12 0 -2
BITMAP
0200
03c0
e480
afe0
aaa0
aaa0
ace0
a920
fff0
0280
0460
1810
ENDCHAR
STARTCHAR 342e
ENCODING 13358
SWIDTH 960 0
DWIDTH 12 0
BBX 12 12 0 -2
BITMAP
0440
2fe0
2440
27c0
f440
27c0
2440
3fe0
2a80
cec0
0800
07e0
ENDCHAR
STARTCHAR 342f
ENCODING 13359
SWIDTH 960 0
DWIDTH 12 0
BBX 12 12 0 -2
BITMAP
0400
7fc0
0900
1a00
0600
3980
1080
ffe0
2940
6b40
3180
ce60
ENDCHAR
STARTCHAR 3430
ENCODING 13360
SWIDTH 960 0
DWIDTH 12 0
BBX 12 12 0 -2
BITMAP
0400
ffe0
8020
9f20
0000
0000
ffe0
0a00
0a00
1220
2220
c1e0
ENDCHAR
STARTCHAR 3431
ENCODING 13361
SWIDTH 960 0
DWIDTH 12 0
BBX 12 12 0 -2
BITMAP
0400
ffe0
8020
9f20
1100
1100
1f00
1000
1f80
1080
1080
1f80
ENDCHAR
STARTCHAR 3432
ENCODING 13362
SWIDTH 960 0
DWIDTH 12 0
BBX 12 12 0 -2
BITMAP
0400
ffe0
9120
7fc0
1100
3f80
2080
3f80
2080
3f80
1a20
e1e0
ENDCHAR
STARTCHAR 3433
ENCODING 13363
SWIDTH 960 0
DWIDTH 12 0
BBX 12 12 0 -2
BITMAP
0000
7fc0
0400
0400
0400
ffe0
0400
0400
0400
0400
0400
0400
ENDCHAR
STARTCHAR 3434
ENCODING 13364
SWIDTH 960 0
DWIDTH 12 0
BBX 12 12 0 -2
BITMAP
2080
f880
2140
fa20
8fd0
f880
8880
ffe0
2080
f880
2080
2080
ENDCHAR
STARTCHAR 3435
ENCODING 13365
SWIDTH 960 0
DWIDTH 12 0
BBX 12 12 0 -2
BITMAP
0400
3f80
2480
3f80
0400
7fc0
4440
7fc0
0400
5240
90a0
0f80
ENDCHAR
STARTCHAR 3436
ENCODING 13366
SWIDTH 960 0
DWIDTH 12 0
BBX 12 12 0 -2
BITMAP
0240
7fe0
4200
7d40
4140
7ca0
a560
3e20
0400
5240
90a0
0f80
ENDCHAR
STARTCHAR 3437
ENCODING 13367
SWIDTH 960 0
DWIDTH 12 0
BBX 12 12 0 -2
BITMAP
23e0
22a0
2fe0
7540
6fc0
a7e0
a420
27e0
2420
27e0
2240
2c20
ENDCHAR
STARTCHAR 3438
ENCODING 13368
SWIDTH 960 0
DWIDTH 12 0
BBX 12 12 0 -2
BITMAP
40a0
4fe0
6880
5fa0
ce40
cac0
df60
6220
4500
54a0
6420
43e0
ENDCHAR
STARTCHAR 3439
ENCODING 13369
SWIDTH 960 0
DWIDTH 12 0
BBX 12 12 0 -2
BITMAP
2200
23c0
2480
ffe0
2aa0
2aa0
3ce0
e920
3ff0
2180
2240
6c30
ENDCHAR
STARTCHAR 343a
ENCODING 13370
SWIDTH 960 0
DWIDTH 12 0
BBX 12 12 0 -2
BITMAP
0100
7d00
11e0
fe40
4a40
7c40
4940
7940
4c80
7980
ca40
0c20
ENDCHAR
STARTCHAR 343b
ENCODING 13371
SWIDTH 960 0
DWIDTH 12 0
BBX 12 12 0 -2
BITMAP
2440
2440
2fe0
fc40
2440
6440
77c0
6c40
a440
a440
2440
27c0
ENDCHAR
STARTCHAR 343c
ENCODING 13372
SWIDTH 960 0
DWIDTH 12 0
BBX 12 12 0 -2
BITMAP
2000
2fe0
2000
f7c0
2440
6440
77c0
6c40
a440
a7c0
2000
2fe0
ENDCHAR
STARTCHAR 343d
ENCODING 13373
SWIDTH 960 0
DWIDTH 12 0
BBX 12 12 0 -2
BITMAP
2100
2fe0
2820
ffe0
2440
6440
77c0
6c00
a7e0
a420
2420
27e0
ENDCHAR
STARTCHAR 343e
ENCODING 13374
SWIDTH 960 0
DWIDTH 12 0
BBX 12 12 0 -2
BITMAP
2200
fa00
2200
7be0
0520
7540
0100
f900
3280
aa80
a440
6820
ENDCHAR
STARTCHAR 343f
ENCODING 13375
SWIDTH 960 0
DWIDTH 12 0
BBX 12 12 0 -2
BITMAP
4100
7d00
5100
7de0
aaa0
7cc0
5080
fc80
5180
7d40
5240
7c20
ENDCHAR
STARTCHAR 3440
ENCODING 13376
SWIDTH 960 0
DWIDTH 12 0
BBX 12 12 0 -2
BITMAP
4000
3fc0
0200
8200
4200
3fe0
0200
2200
4200
4200
8200
8200
ENDCHAR
STARTCHAR 3441
ENCODING 13377
SWIDTH 960 0
DWIDTH 12 0
BBX 12 12 0 -2
BITMAP
8900
7fe0
0900
1fc0
9240
5fc0
0200
3fc0
4200
5fc0
8580
b860
ENDCHAR
STARTCHAR 3442
ENCODING 13378
SWIDTH 960 0
DWIDTH 12 0
BBX 12 12 0 -2
BITMAP
5de0
3520
1de0
9520
5de0
1020
17a0
34a0
57a0
54a0
97a0
9060
ENDCHAR
STARTCHAR 3443
ENCODING 13379
SWIDTH 960 0
DWIDTH 12 0
BBX 12 12 0 -2
BITMAP
4800
2fc0
1200
afe0
4500
0fe0
1900
2fc0
4900
4fc0
8900
8fe0
ENDCHAR
STARTCHAR 3444
ENCODING 13380
SWIDTH 960 0
DWIDTH 12 0
BBX 12 12 0 -2
BITMAP
1fc0
f540
3fc0
2000
ffe0
2840
2fc0
3640
cd80
1480
2460
0400
ENDCHAR
STARTCHAR 3445
ENCODING 13381
SWIDTH 960 0
DWIDTH 12 0
BBX 12 12 0 -2
BITMAP
1080
1080
1080
ffe0
1080
1080
1f80
1080
1080
1080
1080
1f80
ENDCHAR
STARTCHAR 3446
ENCODING 13382
SWIDTH 960 0
DWIDTH 12 0
BBX 12 12 0 -2
BITMAP
fa00
a200
fbe0
8c00
f800
a3c0
f800
0000
7fc0
4a40
4a40
ffe0
ENDCHAR
STARTCHAR 3447
ENCODING 13383
SWIDTH 960 0
DWIDTH 12 0
BBX 12 12 0 -2
BITMAP
00c0
7f00
0800
ffe0
1000
ffe0
3080
5f80
9080
1f80
1080
1f80
ENDCHAR
STARTCHAR 3448
ENCODING 13384
SWIDTH 960 0
DWIDTH 12 0
BBX 12 12 0 -2
BITMAP
4200
7be0
9480
2100
7fc0
0400
0400
ffe0
0400
0400
0400
0400
ENDCHAR
STARTCHAR 3449
ENCODING 13385
SWIDTH 960 0
DWIDTH 12 0
BBX 12 12 0 -2
BITMAP
4100
7de0
9240
ffe0
8020
9f20
1100
1f00
1000
1f80
1080
1f80
ENDCHAR
STARTCHAR 344a
ENCODING 13386
SWIDTH 960 0
DWIDTH 12 0
BBX 12 12 0 -2
BITMAP
4100
7df0
9240
7be0
4a20
7be0
4e20
79e0
4f20
4920
4f20
4060
ENDCHAR
STARTCHAR 344b
ENCODING 13387
SWIDTH 960 0
DWIDTH 12 0
BBX 12 12 0 -2
BITMAP
20c0
2740
d280
5fe0
2200
57e0
fa00
23c0
b540
a580
aa40
2420
ENDCHAR
STARTCHAR 344c
ENCODING 13388
SWIDTH 960 0
DWIDTH 12 0
BBX 12 12 0 -2
BITMAP
2000
2000
3fc0
4400
8400
ffe0
0400
4440
4440
4440
7fc0
4040
ENDCHAR
STARTCHAR 344d
ENCODING 13389
SWIDTH 960 0
DWIDTH 12 0
BBX 12 12 0 -2
BITMAP
2080
f940
2220
fc10
8fe0
f920
8da0
fb60
2120
fb60
25a0
2120
ENDCHAR
STARTCHAR 344e
ENCODING 13390
SWIDTH 960 0
DWIDTH 12 0
BBX 12 12 0 -2
BITMAP
7be0
4880
4880
4880
7ff0
4880
4880
7880
4880
4880
4880
9880
ENDCHAR
STARTCHAR 344f
ENCODING 13391
SWIDTH 960 0
DWIDTH 12 0
BBX 12 12 0 -2
BITMAP
4e80
e8e0
ae80
eb00
ae00
f8e0
ae00
e000
afc0
a540
a540
afe0
ENDCHAR
STARTCHAR 3450
ENCODING 13392
SWIDTH 960 0
DWIDTH 12 0
BBX 12 12 0 -2
BITMAP
1100
ffe0
1100
0400
ffe0
8020
3f80
0000
ffe0
0a00
3220
c1e0
ENDCHAR
STARTCHAR 3451
ENCODING 13393
SWIDTH 960 0
DWIDTH 12 0
BBX 12 12 0 -2
BITMAP
43e0
7e20
5220
7fe0
aa20
7fe0
5220
ffe0
5140
7d40
5250
7c30
ENDCHAR
STARTCHAR 3452
ENCODING 13394
SWIDTH 960 0
DWIDTH 12 0
BBX 12 12 0 -2
BITMAP
e100
0fe0
f100
0fc0
f940
0fc0
e940
0fc0
f380
9540
9920
f100
ENDCHAR
STARTCHAR 3453
ENCODING 13395
SWIDTH 960 0
DWIDTH 12 0
BBX 12 12 0 -2
BITMAP
0000
3f80
2480
ffe0
4900
7f80
2080
3f80
2080
3f80
1980
6060
ENDCHAR
STARTCHAR 3454
ENCODING 13396
SWIDTH 960 0
DWIDTH 12 0
BBX 12 12 0 -2
BITMAP
0fc0
4b40
3fe0
0000
0fc0
e840
2fc0
2720
2ac0
2260
5b00
87f0
ENDCHAR
STARTCHAR 3455
ENCODING 13397
SWIDTH 960 0
DWIDTH 12 0
BBX 12 12 0 -2
BITMAP
2740
2470
5740
4d80
ff00
2470
ff00
2000
b3e0
6aa0
32a0
c7f0
ENDCHAR
STARTCHAR 3456
ENCODING 13398
SWIDTH 960 0
DWIDTH 12 0
BBX 12 12 0 -2
BITMAP
fbe0
8a20
fbe0
8a20
fbe0
8020
9f20
9120
9f20
9120
9f20
8060
ENDCHAR
STARTCHAR 3457
ENCODING 13399
SWIDTH 960 0
DWIDTH 12 0
BBX 12 12 0 -2
BITMAP
fbe0
8a20
fbe0
8a20
fbe0
8420
bfa0
8420
8e20
9520
a4a0
8460
ENDCHAR
STARTCHAR 3458
ENCODING 13400
SWIDTH 960 0
DWIDTH 12 0
BBX 12 12 0 -2
BITMAP
fbe0
8a20
fbe0
8a20
fbe0
8a20
bfa0
8420
bfa0
8a20
9120
a060
ENDCHAR
STARTCHAR 3459
ENCODING 13401
SWIDTH 960 0
DWIDTH 12 0
BBX 12 12 0 -2
BITMAP
0200
e3c0
a440
a880
c100
abe0
aa20
aa20
abe0
ca20
8a20
8be0
ENDCHAR
STARTCHAR 345a
ENCODING 13402
SWIDTH 960 0
DWIDTH 12 0
BBX 12 12 0 -2
BITMAP
2080
fbe0
20a0
fff0
8a20
fbe0
8840
fbe0
2240
fff0
2040
2040
ENDCHAR
STARTCHAR 345b
ENCODING 13403
SWIDTH 960 0
DWIDTH 12 0
BBX 12 12 0 -2
BITMAP
2100
27e0
5420
7bc0
ce40
7a40
4bc0
7a00
53e0
4a20
5620
e3e0
ENDCHAR
STARTCHAR 345c
ENCODING 13404
SWIDTH 960 0
DWIDTH 12 0
BBX 12 12 0 -2
BITMAP
2100
2fe0
5820
8bc0
fa40
2240
fbc0
2200
7be0
4a20
4a20
7be0
ENDCHAR
STARTCHAR 345d
ENCODING 13405
SWIDTH 960 0
DWIDTH 12 0
BBX 12 12 0 -2
BITMAP
1000
1000
1000
ff00
1100
1100
5100
3100
1900
2520
4520
80e0
ENDCHAR
STARTCHAR 345e
ENCODING 13406
SWIDTH 960 0
DWIDTH 12 0
BBX 12 12 0 -2
BITMAP
0400
0a00
1100
2e80
c060
7f80
0200
0400
3f80
2080
2080
3f80
ENDCHAR
STARTCHAR 345f
ENCODING 13407
SWIDTH 960 0
DWIDTH 12 0
BBX 12 12 0 -2
BITMAP
4440
4440
7fc0
0000
7fe0
4000
5fc0
4200
7fe0
4200
8200
0200
ENDCHAR
STARTCHAR 3460
ENCODING 13408
SWIDTH 960 0
DWIDTH 12 0
BBX 12 12 0 -2
BITMAP
4440
7fc0
0200
7fe0
5d00
49f0
7e20
56a0
5cc0
5440
bca0
8720
ENDCHAR
STARTCHAR 3461
ENCODING 13409
SWIDTH 960 0
DWIDTH 12 0
BBX 12 12 0 -2
BITMAP
0000
0fc0
f000
2000
2000
ffe0
2500
2500
3500
c900
1120
20e0
ENDCHAR
STARTCHAR 3462
ENCODING 13410
SWIDTH 960 0
DWIDTH 12 0
BBX 12 12 0 -2
BITMAP
0200
3fe0
a780
6480
2780
6ee0
aaa0
2ee0
2100
5120
5120
9fe0
ENDCHAR
STARTCHAR 3463
ENCODING 13411
SWIDTH 960 0
DWIDTH 12 0
BBX 12 12 0 -2
BITMAP
0000
f7c0
9440
97c0
f440
9440
97c0
f420
9540
9480
f740
0c20
ENDCHAR
STARTCHAR 3464
ENCODING 13412
SWIDTH 960 0
DWIDTH 12 0
BBX 12 12 0 -2
BITMAP
0400
4440
4440
7fc0
0000
ffe0
1000
1000
3fc0
5040
9040
1fc0
ENDCHAR
STARTCHAR 3465
ENCODING 13413
SWIDTH 960 0
DWIDTH 12 0
BBX 12 12 0 -2
BITMAP
0000
ffc0
b400
6c00
b7e0
2680
2280
fa80
8a80
fa80
8aa0
fc60
ENDCHAR
STARTCHAR 3466
ENCODING 13414
SWIDTH 960 0
DWIDTH 12 0
BBX 12 12 0 -2
BITMAP
0000
7fe0
4a80
7fe0
5480
57e0
5f80
5080
9f80
9080
1f80
39c0
ENDCHAR
STARTCHAR 3467
ENCODING 13415
SWIDTH 960 0
DWIDTH 12 0
BBX 12 12 0 -2
BITMAP
0000
7fe0
4a40
4be0
5680
5680
73e0
5280
53e0
9280
9280
13e0
ENDCHAR
STARTCHAR 3468
ENCODING 13416
SWIDTH 960 0
DWIDTH 12 0
BBX 12 12 0 -2
BITMAP
0000
07e0
f900
03e0
0220
ffe0
5220
57e0
5220
5be0
5140
8620
ENDCHAR
STARTCHAR 3469
ENCODING 13417
SWIDTH 960 0
DWIDTH 12 0
BBX 12 12 0 -2
BITMAP
1000
ffe0
4900
33e0
7e20
4be0
7220
4be0
7220
8be0
9140
6620
ENDCHAR
STARTCHAR 346a
ENCODING 13418
SWIDTH 960 0
DWIDTH 12 0
BBX 12 12 0 -2
BITMAP
0000
7ff0
4880
7de0
6520
7de0
6520
7de0
5920
75e0
51a0
b610
ENDCHAR
STARTCHAR 346b
ENCODING 13419
SWIDTH 960 0
DWIDTH 12 0
BBX 12 12 0 -2
BITMAP
0400
0400
0a00
1100
2480
c460
0400
2780
2400
2400
2400
ffe0
ENDCHAR
STARTCHAR 346c
ENCODING 13420
SWIDTH 960 0
DWIDTH 12 0
BBX 12 12 0 -2
BITMAP
1100
1100
1fe0
2100
2100
6fe0
a040
2440
2280
2100
2680
3860
ENDCHAR
STARTCHAR 346d
ENCODING 13421
SWIDTH 960 0
DWIDTH 12 0
BBX 12 12 0 -2
BITMAP
0800
1f00
6200
0400
3fe0
2000
2f80
2880
4880
49a0
8820
07e0
ENDCHAR
STARTCHAR 346e
ENCODING 13422
SWIDTH 960 0
DWIDTH 12 0
BBX 12 12 0 -2
BITMAP
0400
ffe0
0400
7fc0
2080
3f80
1100
ffe0
0000
3f80
2080
3f80
ENDCHAR
STARTCHAR 346f
ENCODING 13423
SWIDTH 960 0
DWIDTH 12 0
BBX 12 12 0 -2
BITMAP
0000
7bc0
4a40
7bc0
0400
ffe0
0a00
3180
fbe0
4a40
4a40
7bc0
ENDCHAR
STARTCHAR 3470
ENCODING 13424
SWIDTH 960 0
DWIDTH 12 0
BBX 12 12 0 -2
BITMAP
1100
7fc0
1100
1f00
1100
1f00
1100
ffe0
2480
df60
0400
7fc0
ENDCHAR
STARTCHAR 3471
ENCODING 13425
SWIDTH 960 0
DWIDTH 12 0
BBX 12 12 0 -2
BITMAP
0400
7fc0
0a00
1100
6080
ffe0
0080
3e80
2280
3e80
0080
0180
ENDCHAR
STARTCHAR 3472
ENCODING 13426
SWIDTH 960 0
DWIDTH 12 0
BBX 12 12 0 -2
BITMAP
4100
4fe0
5100
ffc0
5440
57c0
5280
9fe0
f000
2fc0
4440
87c0
ENDCHAR
STARTCHAR 3473
ENCODING 13427
SWIDTH 960 0
DWIDTH 12 0
BBX 12 12 0 -2
BITMAP
0400
ffe0
8420
7f80
0a00
3100
ffe0
0080
3e80
2280
3e80
0180
ENDCHAR
STARTCHAR 3474
ENCODING 13428
SWIDTH 960 0
DWIDTH 12 0
BBX 12 12 0 -2
BITMAP
0100
2100
2fe0
a900
a900
afe0
aa40
aa40
a980
f880
0340
0c20
ENDCHAR
STARTCHAR 3475
ENCODING 13429
SWIDTH 960 0
DWIDTH 12 0
BBX 12 12 0 -2
BITMAP
1880
0700
7880
0800
ffe0
1200
3fc0
5240
9240
1380
1200
0200
ENDCHAR
STARTCHAR 3476
ENCODING 13430
SWIDTH 960 0
DWIDTH 12 0
BBX 12 12 0 -2
BITMAP
2480
5540
a680
5540
f5c0
1440
ffe0
2440
2280
5120
46a0
b860
ENDCHAR
STARTCHAR 3477
ENCODING 13431
SWIDTH 960 0
DWIDTH 12 0
BBX 12 12 0 -2
BITMAP
0000
3f80
0080
3f80
2000
2040
1fc0
0400
5240
5220
9090
0f80
ENDCHAR
STARTCHAR 3478
ENCODING 13432
SWIDTH 960 0
DWIDTH 12 0
BBX 12 12 0 -2
BITMAP
2000
2fe0
2920
f7c0
2100
2fe0
3920
efe0
2100
2ff0
2100
6100
ENDCHAR
STARTCHAR 3479
ENCODING 13433
SWIDTH 960 0
DWIDTH 12 0
BBX 12 12 0 -2
BITMAP
2000
23c0
2240
fa40
2240
6240
7240
6a40
a240
a450
2450
2830
ENDCHAR
STARTCHAR 347a
ENCODING 13434
SWIDTH 960 0
DWIDTH 12 0
BBX 12 12 0 -2
BITMAP
2200
27e0
fa40
2fe0
2240
3bc0
2a40
2bc0
4a40
4fe0
8940
3620
ENDCHAR
STARTCHAR 347b
ENCODING 13435
SWIDTH 960 0
DWIDTH 12 0
BBX 12 12 0 -2
BITMAP
0000
7fe0
4a80
7a80
4a80
4fe0
7980
4180
5280
5aa0
64a0
8860
ENDCHAR
STARTCHAR 347c
ENCODING 13436
SWIDTH 960 0
DWIDTH 12 0
BBX 12 12 0 -2
BITMAP
2400
25e0
ff20
2520
3de0
2520
3d20
25e0
ff20
2a20
4620
8460
ENDCHAR
STARTCHAR 347d
ENCODING 13437
SWIDTH 960 0
DWIDTH 12 0
BBX 12 12 0 -2
BITMAP
2440
2440
2fe0
f440
27c0
7440
6fc0
6440
afe0
a280
2440
2840
ENDCHAR
STARTCHAR 347e
ENCODING 13438
SWIDTH 960 0
DWIDTH 12 0
BBX 12 12 0 -2
BITMAP
0400
ffe0
1900
7fc0
2480
ffe0
2480
ffe0
0e00
3580
c460
0400
ENDCHAR
STARTCHAR 3521
ENCODING 13601
SWIDTH 960 0
DWIDTH 12 0
BBX 12 12 0 -2
BITMAP
2240
2480
2fc0
f5a0
2fe0
6140
7fe0
6940
ad80
aaa0
3160
2620
ENDCHAR
STARTCHAR 3522
ENCODING 13602
SWIDTH 960 0
DWIDTH 12 0
BBX 12 12 0 -2
BITMAP
2f80
2080
af80
a080
bfe0
b220
afe0
2a40
2a40
4ac0
4200
8200
ENDCHAR
STARTCHAR 3523
ENCODING 13603
SWIDTH 960 0
DWIDTH 12 0
BBX 12 12 0 -2
BITMAP
2380
fa80
5280
54a0
f860
27c0
e840
3640
d980
3480
d140
3620
ENDCHAR
STARTCHAR 3524
ENCODING 13604
SWIDTH 960 0
DWIDTH 12 0
BBX 12 12 0 -2
BITMAP
2000
3fc0
2000
5f00
8000
7f80
0480
3480
0880
14a0
2060
c020
ENDCHAR
STARTCHAR 3525
ENCODING 13605
SWIDTH 960 0
DWIDTH 12 0
BBX 12 12 0 -2
BITMAP
5000
3fc0
1000
af80
4000
1f80
0080
2080
40a0
40a0
8060
8020
ENDCHAR
STARTCHAR 3526
ENCODING 13606
SWIDTH 960 0
DWIDTH 12 0
BBX 12 12 0 -2
BITMAP
2480
5540
a680
5540
f5c0
1440
ffe0
7c40
5680
7d20
56a0
7c60
ENDCHAR
STARTCHAR 3527
ENCODING 13607
SWIDTH 960 0
DWIDTH 12 0
BBX 12 12 0 -2
BITMAP
2040
2780
f400
1400
17e0
2480
7480
ac80
2480
2880
2880
3080
ENDCHAR
STARTCHAR 3528
ENCODING 13608
SWIDTH 960 0
DWIDTH 12 0
BBX 12 12 0 -2
BITMAP
0380
7c00
0400
ffe0
0e00
3580
df60
0200
7fc0
0400
0400
0c00
ENDCHAR
STARTCHAR 3529
ENCODING 13609
SWIDTH 960 0
DWIDTH 12 0
BBX 12 12 0 -2
BITMAP
1240
e180
2640
2fe0
f500
27c0
6d40
7540
a540
a5c0
2100
2100
ENDCHAR
STARTCHAR 352a
ENCODING 13610
SWIDTH 960 0
DWIDTH 12 0
BBX 12 12 0 -2
BITMAP
2000
27c0
d040
5040
2040
53c0
fa00
2200
b200
aa20
a220
21e0
ENDCHAR
STARTCHAR 352b
ENCODING 13611
SWIDTH 960 0
DWIDTH 12 0
BBX 12 12 0 -2
BITMAP
1540
5540
5f70
84a0
2b20
24a0
4aa0
df40
4440
56c0
6520
4610
ENDCHAR
STARTCHAR 352c
ENCODING 13612
SWIDTH 960 0
DWIDTH 12 0
BBX 12 12 0 -2
BITMAP
27c0
2440
fc40
27c0
2440
ffc0
2440
27c0
3280
4a80
44a0
8860
ENDCHAR
STARTCHAR 352d
ENCODING 13613
SWIDTH 960 0
DWIDTH 12 0
BBX 12 12 0 -2
BITMAP
7000
07c0
f840
0040
7840
03c0
7a00
0200
fa00
8a20
8a20
f9e0
ENDCHAR
STARTCHAR 352e
ENCODING 13614
SWIDTH 960 0
DWIDTH 12 0
BBX 12 12 0 -2
BITMAP
0400
3f80
2480
ffe0
0000
3f80
2080
3f80
2080
3f80
1180
6040
ENDCHAR
STARTCHAR 352f
ENCODING 13615
SWIDTH 960 0
DWIDTH 12 0
BBX 12 12 0 -2
BITMAP
1000
13c0
7c40
1040
ffc0
1200
5200
5e20
7220
51e0
8c00
83f0
ENDCHAR
STARTCHAR 3530
ENCODING 13616
SWIDTH 960 0
DWIDTH 12 0
BBX 12 12 0 -2
BITMAP
2200
fa00
2200
ff80
aa80
fa80
aa80
fa80
2280
fca0
24a0
2860
ENDCHAR
STARTCHAR 3531
ENCODING 13617
SWIDTH 960 0
DWIDTH 12 0
BBX 12 12 0 -2
BITMAP
27e0
a520
afc0
7100
27e0
fd20
57e0
5520
5fe0
5100
8fe0
0100
ENDCHAR
STARTCHAR 3532
ENCODING 13618
SWIDTH 960 0
DWIDTH 12 0
BBX 12 12 0 -2
BITMAP
2000
3380
4a80
b680
4a80
7a80
4a80
7a80
5280
4aa0
54a0
e860
ENDCHAR
STARTCHAR 3533
ENCODING 13619
SWIDTH 960 0
DWIDTH 12 0
BBX 12 12 0 -2
BITMAP
0100
f7c0
a100
f280
a460
ffe0
a040
ff40
0d40
af40
8840
30c0
ENDCHAR
STARTCHAR 3534
ENCODING 13620
SWIDTH 960 0
DWIDTH 12 0
BBX 12 12 0 -2
BITMAP
0400
0800
3f80
2480
3f80
2480
3f80
0a80
0b40
13c0
2220
c1e0
ENDCHAR
STARTCHAR 3535
ENCODING 13621
SWIDTH 960 0
DWIDTH 12 0
BBX 12 12 0 -2
BITMAP
0800
1f00
2200
ff80
2480
3f80
2480
7fc0
4440
7fc0
0420
03e0
ENDCHAR
STARTCHAR 3536
ENCODING 13622
SWIDTH 960 0
DWIDTH 12 0
BBX 12 12 0 -2
BITMAP
2900
2500
2200
5f80
4480
c7c0
4840
5fe0
6020
4aa0
5220
40c0
ENDCHAR
STARTCHAR 3537
ENCODING 13623
SWIDTH 960 0
DWIDTH 12 0
BBX 12 12 0 -2
BITMAP
2480
3fe0
2200
4fc0
4200
ffe0
4d40
5fe0
4540
5ca0
4560
4c20
ENDCHAR
STARTCHAR 3538
ENCODING 13624
SWIDTH 960 0
DWIDTH 12 0
BBX 12 12 0 -2
BITMAP
4100
4100
57e0
f900
5100
57c0
5040
9240
f180
2980
4240
8c20
ENDCHAR
STARTCHAR 3539
ENCODING 13625
SWIDTH 960 0
DWIDTH 12 0
BBX 12 12 0 -2
BITMAP
0400
ffe0
8020
9f20
1100
1100
1f00
1100
1f00
1100
1100
ffe0
ENDCHAR
STARTCHAR 353a
ENCODING 13626
SWIDTH 960 0
DWIDTH 12 0
BBX 12 12 0 -2
BITMAP
1d00
1140
7d20
5500
53e0
5d00
4120
54a0
74c0
56a0
9960
6220
ENDCHAR
STARTCHAR 353b
ENCODING 13627
SWIDTH 960 0
DWIDTH 12 0
BBX 12 12 0 -2
BITMAP
2100
2100
2fe0
f100
2100
2fc0
3040
e280
2180
2180
2240
6c20
ENDCHAR
STARTCHAR 353c
ENCODING 13628
SWIDTH 960 0
DWIDTH 12 0
BBX 12 12 0 -2
BITMAP
51e0
5e20
5140
f280
4fe0
50a0
5ec0
f480
5ee0
4680
4b80
d260
ENDCHAR
STARTCHAR 353d
ENCODING 13629
SWIDTH 960 0
DWIDTH 12 0
BBX 12 12 0 -2
BITMAP
4a00
4a00
fe00
4be0
7d20
4d40
7900
4900
fd00
5280
4c40
9820
ENDCHAR
STARTCHAR 353e
ENCODING 13630
SWIDTH 960 0
DWIDTH 12 0
BBX 12 12 0 -2
BITMAP
2280
afe0
a100
f7e0
a100
afe0
34a0
efe0
24a0
2e50
25b0
2c10
ENDCHAR
STARTCHAR 353f
ENCODING 13631
SWIDTH 960 0
DWIDTH 12 0
BBX 12 12 0 -2
BITMAP
47e0
7840
4280
4980
3fe0
4120
7940
9500
7dc0
2700
5580
8860
ENDCHAR
STARTCHAR 3540
ENCODING 13632
SWIDTH 960 0
DWIDTH 12 0
BBX 12 12 0 -2
BITMAP
20c0
2780
fc80
0c80
1480
27e0
7480
ac80
2480
2440
2760
2c20
ENDCHAR
STARTCHAR 3541
ENCODING 13633
SWIDTH 960 0
DWIDTH 12 0
BBX 12 12 0 -2
BITMAP
1100
7fe0
0400
3fc0
0400
7fe0
1240
ffe0
1140
7ca0
1360
3020
ENDCHAR
STARTCHAR 3542
ENCODING 13634
SWIDTH 960 0
DWIDTH 12 0
BBX 12 12 0 -2
BITMAP
2280
2fe0
2100
ffe0
a900
afe0
fca0
2ff0
24c0
2ea0
3560
cc20
ENDCHAR
STARTCHAR 3543
ENCODING 13635
SWIDTH 960 0
DWIDTH 12 0
BBX 12 12 0 -2
BITMAP
7100
0fe0
f820
07c0
7440
0440
77c0
0440
f7c0
9440
9440
ffe0
ENDCHAR
STARTCHAR 3544
ENCODING 13636
SWIDTH 960 0
DWIDTH 12 0
BBX 12 12 0 -2
BITMAP
7240
0fe0
f100
07c0
7100
0fe0
74a0
0ff0
f4c0
9ea0
9560
fc20
ENDCHAR
STARTCHAR 3545
ENCODING 13637
SWIDTH 960 0
DWIDTH 12 0
BBX 12 12 0 -2
BITMAP
2400
2400
27e0
fa20
2aa0
2720
3fa0
e220
2720
2aa0
2220
62c0
ENDCHAR
STARTCHAR 3546
ENCODING 13638
SWIDTH 960 0
DWIDTH 12 0
BBX 12 12 0 -2
BITMAP
1100
ffe0
1100
2000
3fe0
44a0
9520
7fe0
0e20
1520
64a0
04c0
ENDCHAR
STARTCHAR 3547
ENCODING 13639
SWIDTH 960 0
DWIDTH 12 0
BBX 12 12 0 -2
BITMAP
5200
fa00
53e0
7520
2560
fba0
afe0
f920
23a0
fd60
2120
20c0
ENDCHAR
STARTCHAR 3548
ENCODING 13640
SWIDTH 960 0
DWIDTH 12 0
BBX 12 12 0 -2
BITMAP
0400
0400
ffe0
0400
0400
7fc0
0000
3f80
2080
2080
2080
3f80
ENDCHAR
STARTCHAR 3549
ENCODING 13641
SWIDTH 960 0
DWIDTH 12 0
BBX 12 12 0 -2
BITMAP
0400
0400
f7e0
9800
9000
9fc0
9080
9300
f400
0820
0820
07e0
ENDCHAR
STARTCHAR 354a
ENCODING 13642
SWIDTH 960 0
DWIDTH 12 0
BBX 12 12 0 -2
BITMAP
0400
ffe0
a4a0
bea0
a520
be40
af80
a200
ffe0
0500
0880
3060
ENDCHAR
STARTCHAR 354b
ENCODING 13643
SWIDTH 960 0
DWIDTH 12 0
BBX 12 12 0 -2
BITMAP
2100
2100
2fe0
f100
2100
67c0
7000
6fc0
a440
a440
2440
27c0
ENDCHAR
STARTCHAR 354c
ENCODING 13644
SWIDTH 960 0
DWIDTH 12 0
BBX 12 12 0 -2
BITMAP
27c0
2280
2fe0
f340
2d00
6fe0
7aa0
6ce0
aba0
aaa0
2ba0
2860
ENDCHAR
STARTCHAR 354d
ENCODING 13645
SWIDTH 960 0
DWIDTH 12 0
BBX 12 12 0 -2
BITMAP
7100
0100
ffe0
0100
7100
0fc0
7000
07c0
f440
9440
9440
f7c0
ENDCHAR
STARTCHAR 354e
ENCODING 13646
SWIDTH 960 0
DWIDTH 12 0
BBX 12 12 0 -2
BITMAP
0100
f900
2100
21e0
4100
7900
c900
4fc0
4c40
4c40
7c40
07c0
ENDCHAR
STARTCHAR 354f
ENCODING 13647
SWIDTH 960 0
DWIDTH 12 0
BBX 12 12 0 -2
BITMAP
2400
2400
27c0
f500
2900
6100
77e0
6900
a100
a100
2100
2100
ENDCHAR
STARTCHAR 3550
ENCODING 13648
SWIDTH 960 0
DWIDTH 12 0
BBX 12 12 0 -2
BITMAP
01c0
3e00
0400
ffe0
1500
64c0
0a00
3580
d560
0e00
75c0
0400
ENDCHAR
STARTCHAR 3551
ENCODING 13649
SWIDTH 960 0
DWIDTH 12 0
BBX 12 12 0 -2
BITMAP
2000
21e0
fd20
2120
2120
fd20
2120
2920
4dc0
7500
c500
0100
ENDCHAR
STARTCHAR 3552
ENCODING 13650
SWIDTH 960 0
DWIDTH 12 0
BBX 12 12 0 -2
BITMAP
0400
ffe0
8820
8f20
1100
6a00
0600
3980
dfe0
1080
1080
1f80
ENDCHAR
STARTCHAR 3553
ENCODING 13651
SWIDTH 960 0
DWIDTH 12 0
BBX 12 12 0 -2
BITMAP
0400
e4e0
bfa0
a4a0
e4a0
bfa0
a4a0
eaa0
abc0
bd80
a080
a080
ENDCHAR
STARTCHAR 3554
ENCODING 13652
SWIDTH 960 0
DWIDTH 12 0
BBX 12 12 0 -2
BITMAP
0400
07c0
0400
7fe0
4420
5f80
4440
5fc0
5000
5fc0
9000
1fc0
ENDCHAR
STARTCHAR 3555
ENCODING 13653
SWIDTH 960 0
DWIDTH 12 0
BBX 12 12 0 -2
BITMAP
0440
4280
2fe0
0100
0920
e920
2fe0
2900
2100
2200
5800
87f0
ENDCHAR
STARTCHAR 3556
ENCODING 13654
SWIDTH 960 0
DWIDTH 12 0
BBX 12 12 0 -2
BITMAP
0000
0180
3e00
2000
2000
3fc0
2100
2100
2100
2100
2100
ffe0
ENDCHAR
STARTCHAR 3557
ENCODING 13655
SWIDTH 960 0
DWIDTH 12 0
BBX 12 12 0 -2
BITMAP
0800
0800
0f00
1100
1100
2200
4200
0400
0a00
1100
2080
c060
ENDCHAR
STARTCHAR 3558
ENCODING 13656
SWIDTH 960 0
DWIDTH 12 0
BBX 12 12 0 -2
BITMAP
2400
2400
2400
5f80
4480
c480
4480
4480
4880
48a0
50a0
6060
ENDCHAR
STARTCHAR 3559
ENCODING 13657
SWIDTH 960 0
DWIDTH 12 0
BBX 12 12 0 -2
BITMAP
1100
1100
1100
3fe0
2100
6380
a380
2540
2920
3110
2100
2100
ENDCHAR
STARTCHAR 355a
ENCODING 13658
SWIDTH 960 0
DWIDTH 12 0
BBX 12 12 0 -2
BITMAP
0000
3f80
0880
0900
09c0
1440
1440
1280
2180
2180
4640
9820
ENDCHAR
STARTCHAR 355b
ENCODING 13659
SWIDTH 960 0
DWIDTH 12 0
BBX 12 12 0 -2
BITMAP
0000
0fc0
f240
9280
92e0
9220
9320
9540
f480
04c0
0920
1610
ENDCHAR
STARTCHAR 355c
ENCODING 13660
SWIDTH 960 0
DWIDTH 12 0
BBX 12 12 0 -2
BITMAP
0400
ffe0
8020
9f20
1100
1100
1f00
0800
3f80
2080
2080
3f80
ENDCHAR
STARTCHAR 355d
ENCODING 13661
SWIDTH 960 0
DWIDTH 12 0
BBX 12 12 0 -2
BITMAP
1f80
0080
0080
3f80
2000
2000
3fc0
0040
0040
0040
0080
0700
ENDCHAR
STARTCHAR 355e
ENCODING 13662
SWIDTH 960 0
DWIDTH 12 0
BBX 12 12 0 -2
BITMAP
1000
1f00
2200
7f80
0080
1f80
0080
7f80
4400
5240
90a0
0f80
ENDCHAR
STARTCHAR 355f
ENCODING 13663
SWIDTH 960 0
DWIDTH 12 0
BBX 12 12 0 -2
BITMAP
1900
1500
fde0
1240
9240
5540
5880
3580
5580
9240
1440
3820
ENDCHAR
STARTCHAR 3560
ENCODING 13664
SWIDTH 960 0
DWIDTH 12 0
BBX 12 12 0 -2
BITMAP
2000
2fe0
2200
fa00
2200
67c0
7440
6840
a040
a040
2040
2180
ENDCHAR
STARTCHAR 3561
ENCODING 13665
SWIDTH 960 0
DWIDTH 12 0
BBX 12 12 0 -2
BITMAP
0400
0500
0480
ffe0
0400
4640
2680
0d00
3480
c440
0420
0c00
ENDCHAR
STARTCHAR 3562
ENCODING 13666
SWIDTH 960 0
DWIDTH 12 0
BBX 12 12 0 -2
BITMAP
4000
3f80
0480
8500
45c0
0440
0a40
2a80
4900
4980
9240
ac20
ENDCHAR
STARTCHAR 3563
ENCODING 13667
SWIDTH 960 0
DWIDTH 12 0
BBX 12 12 0 -2
BITMAP
4200
2200
0200
9fe0
4040
0840
0840
2440
4480
4480
8480
9fe0
ENDCHAR
STARTCHAR 3564
ENCODING 13668
SWIDTH 960 0
DWIDTH 12 0
BBX 12 12 0 -2
BITMAP
0800
0f00
1100
6600
0980
3460
c400
1440
6d80
0a00
3100
c0e0
ENDCHAR
STARTCHAR 3565
ENCODING 13669
SWIDTH 960 0
DWIDTH 12 0
BBX 12 12 0 -2
BITMAP
0100
f180
2140
2fe0
f100
2920
27c0
2380
3540
e930
0100
0300
ENDCHAR
STARTCHAR 3566
ENCODING 13670
SWIDTH 960 0
DWIDTH 12 0
BBX 12 12 0 -2
BITMAP
0400
ffe0
9220
9220
1240
25c0
4400
7f00
0900
0920
1120
60e0
ENDCHAR
STARTCHAR 3567
ENCODING 13671
SWIDTH 960 0
DWIDTH 12 0
BBX 12 12 0 -2
BITMAP
0400
ffe0
8a20
73e0
1000
7be0
4820
79e0
4a00
fbe0
2820
d8c0
ENDCHAR
STARTCHAR 3568
ENCODING 13672
SWIDTH 960 0
DWIDTH 12 0
BBX 12 12 0 -2
BITMAP
4200
7be0
9480
2100
7e00
1200
1380
1080
2900
4600
9b00
60c0
ENDCHAR
STARTCHAR 3569
ENCODING 13673
SWIDTH 960 0
DWIDTH 12 0
BBX 12 12 0 -2
BITMAP
2000
2780
d480
5500
25c0
5640
fd40
2580
b480
a940
aa40
3420
ENDCHAR
STARTCHAR 356a
ENCODING 13674
SWIDTH 960 0
DWIDTH 12 0
BBX 12 12 0 -2
BITMAP
2040
2240
d240
5240
2240
5240
fa40
a2f0
af40
a840
a040
2040
ENDCHAR
STARTCHAR 356b
ENCODING 13675
SWIDTH 960 0
DWIDTH 12 0
BBX 12 12 0 -2
BITMAP
2100
2100
d280
5440
2fc0
5020
f800
27c0
b440
ac40
a440
27c0
ENDCHAR
STARTCHAR 356c
ENCODING 13676
SWIDTH 960 0
DWIDTH 12 0
BBX 12 12 0 -2
BITMAP
4000
4fc0
4840
4840
4840
4fc0
4840
4840
4840
4840
4fc0
4000
ENDCHAR
STARTCHAR 356d
ENCODING 13677
SWIDTH 960 0
DWIDTH 12 0
BBX 12 12 0 -2
BITMAP
0400
2400
2400
3fc0
4400
8400
0400
ffe0
0400
0400
0400
0400
ENDCHAR
STARTCHAR 356e
ENCODING 13678
SWIDTH 960 0
DWIDTH 12 0
BBX 12 12 0 -2
BITMAP
0400
0400
7fc0
0400
0400
ffe0
0400
0900
0880
1380
7c40
0040
ENDCHAR
STARTCHAR 356f
ENCODING 13679
SWIDTH 960 0
DWIDTH 12 0
BBX 12 12 0 -2
BITMAP
0000
3fc0
2040
3fc0
2200
3fe0
2200
2200
5fc0
5040
9040
1fc0
ENDCHAR
STARTCHAR 3570
ENCODING 13680
SWIDTH 960 0
DWIDTH 12 0
BBX 12 12 0 -2
BITMAP
0000
7fe0
4000
4000
7fc0
4040
4040
7fc0
4000
4000
4000
7fe0
ENDCHAR
STARTCHAR 3571
ENCODING 13681
SWIDTH 960 0
DWIDTH 12 0
BBX 12 12 0 -2
BITMAP
2000
27e0
2400
f400
27c0
2440
3440
e7c0
2400
2400
2400
67e0
ENDCHAR
STARTCHAR 3572
ENCODING 13682
SWIDTH 960 0
DWIDTH 12 0
BBX 12 12 0 -2
BITMAP
2000
24e0
24a0
f6a0
2aa0
2aa0
3aa0
e6a0
2320
2530
2880
7070
ENDCHAR
STARTCHAR 3573
ENCODING 13683
SWIDTH 960 0
DWIDTH 12 0
BBX 12 12 0 -2
BITMAP
4880
2480
ffe0
1200
3f00
4880
bf60
0400
7f80
0400
0400
1800
ENDCHAR
STARTCHAR 3574
ENCODING 13684
SWIDTH 960 0
DWIDTH 12 0
BBX 12 12 0 -2
BITMAP
4fe0
2800
8fc0
4840
0fc0
2800
4fe0
8400
ffe0
0e00
3580
c460
ENDCHAR
STARTCHAR 3575
ENCODING 13685
SWIDTH 960 0
DWIDTH 12 0
BBX 12 12 0 -2
BITMAP
0400
0780
0400
7fe0
4820
7f80
4840
47c0
6a80
5b00
8a00
7fe0
ENDCHAR
STARTCHAR 3576
ENCODING 13686
SWIDTH 960 0
DWIDTH 12 0
BBX 12 12 0 -2
BITMAP
7400
0400
f7c0
0900
7100
0100
7fe0
0100
f100
9100
9100
f100
ENDCHAR
STARTCHAR 3577
ENCODING 13687
SWIDTH 960 0
DWIDTH 12 0
BBX 12 12 0 -2
BITMAP
0000
f7e0
9400
9400
f7c0
2440
a440
bfc0
a400
ac00
b400
c7e0
ENDCHAR
STARTCHAR 3578
ENCODING 13688
SWIDTH 960 0
DWIDTH 12 0
BBX 12 12 0 -2
BITMAP
2000
27e0
5420
4fe0
f480
27e0
fc80
2480
b7e0
6a20
3220
c3e0
ENDCHAR
STARTCHAR 3579
ENCODING 13689
SWIDTH 960 0
DWIDTH 12 0
BBX 12 12 0 -2
BITMAP
4200
23c0
0480
9900
4fe0
0920
0fe0
2920
4fe0
4000
8aa0
9250
ENDCHAR
STARTCHAR 357a
ENCODING 13690
SWIDTH 960 0
DWIDTH 12 0
BBX 12 12 0 -2
BITMAP
28e0
4fa0
aaa0
63a0
aae0
2f80
2080
7fc0
0000
ffe0
1500
64c0
ENDCHAR
STARTCHAR 357b
ENCODING 13691
SWIDTH 960 0
DWIDTH 12 0
BBX 12 12 0 -2
BITMAP
0800
0f00
1100
2200
7fc0
a440
3fc0
2440
3fc0
0000
4a40
8920
ENDCHAR
STARTCHAR 357c
ENCODING 13692
SWIDTH 960 0
DWIDTH 12 0
BBX 12 12 0 -2
BITMAP
0400
ffe0
3f80
2080
3f80
0000
7fc0
0100
0600
0400
0400
0c00
ENDCHAR
STARTCHAR 357d
ENCODING 13693
SWIDTH 960 0
DWIDTH 12 0
BBX 12 12 0 -2
BITMAP
0400
ffe0
3f80
2080
3f80
0000
3f80
0200
ffe0
0400
0400
0c00
ENDCHAR
STARTCHAR 357e
ENCODING 13694
SWIDTH 960 0
DWIDTH 12 0
BBX 12 12 0 -2
BITMAP
0400
ffe0
0000
3f80
2080
2080
3f80
0400
2480
2440
4440
0c00
ENDCHAR
STARTCHAR 3621
ENCODING 13857
SWIDTH 960 0
DWIDTH 12 0
BBX 12 12 0 -2
BITMAP
1240
1240
1240
2fe0
2240
6240
a240
3ff0
2000
2240
2420
2820
ENDCHAR
STARTCHAR 3622
ENCODING 13858
SWIDTH 960 0
DWIDTH 12 0
BBX 12 12 0 -2
BITMAP
2200
2200
3fc0
5240
4a80
ca00
7fe0
4200
4300
4480
4840
7020
ENDCHAR
STARTCHAR 3623
ENCODING 13859
SWIDTH 960 0
DWIDTH 12 0
BBX 12 12 0 -2
BITMAP
17c0
1100
2fe0
2280
2c60
6380
a280
2fe0
2ba0
2aa0
2ba0
2860
ENDCHAR
STARTCHAR 3624
ENCODING 13860
SWIDTH 960 0
DWIDTH 12 0
BBX 12 12 0 -2
BITMAP
0200
5a40
4440
4640
4940
5040
7fc0
0a00
0a00
1220
2220
c1e0
ENDCHAR
STARTCHAR 3625
ENCODING 13861
SWIDTH 960 0
DWIDTH 12 0
BBX 12 12 0 -2
BITMAP
1100
ffc0
5280
ffe0
0000
7bc0
4a40
7bc0
2a80
2aa0
4ca0
8860
ENDCHAR
STARTCHAR 3626
ENCODING 13862
SWIDTH 960 0
DWIDTH 12 0
BBX 12 12 0 -2
BITMAP
1100
1100
1100
7fc0
1100
1100
1100
ffe0
0100
1080
2040
c040
ENDCHAR
STARTCHAR 3627
ENCODING 13863
SWIDTH 960 0
DWIDTH 12 0
BBX 12 12 0 -2
BITMAP
0080
40a0
50a0
4920
4520
4220
4520
48a0
70a0
4020
7fe0
4000
ENDCHAR
STARTCHAR 3628
ENCODING 13864
SWIDTH 960 0
DWIDTH 12 0
BBX 12 12 0 -2
BITMAP
4200
4fc0
4240
f240
4440
4980
4880
7fe0
54a0
54a0
6520
4e60
ENDCHAR
STARTCHAR 3629
ENCODING 13865
SWIDTH 960 0
DWIDTH 12 0
BBX 12 12 0 -2
BITMAP
0000
ffe0
8000
bfc0
8400
8400
9f80
8400
8400
bfc0
8000
ffe0
ENDCHAR
STARTCHAR 362a
ENCODING 13866
SWIDTH 960 0
DWIDTH 12 0
BBX 12 12 0 -2
BITMAP
2000
cee0
8aa0
aea0
aaa0
aaa0
aea0
a8a0
ece0
2a80
5d80
8080
ENDCHAR
STARTCHAR 362b
ENCODING 13867
SWIDTH 960 0
DWIDTH 12 0
BBX 12 12 0 -2
BITMAP
0080
f480
9480
9480
9480
9480
9480
94e0
f780
8c80
0080
0080
ENDCHAR
STARTCHAR 362c
ENCODING 13868
SWIDTH 960 0
DWIDTH 12 0
BBX 12 12 0 -2
BITMAP
0380
3c00
0400
ffc0
1f00
3180
df60
7fc0
5f40
5140
5f40
40c0
ENDCHAR
STARTCHAR 362d
ENCODING 13869
SWIDTH 960 0
DWIDTH 12 0
BBX 12 12 0 -2
BITMAP
4200
5fc0
4880
4500
ffe0
4880
4f80
4880
7f80
c500
0920
30e0
ENDCHAR
STARTCHAR 362e
ENCODING 13870
SWIDTH 960 0
DWIDTH 12 0
BBX 12 12 0 -2
BITMAP
0100
2100
2fe0
2120
ad40
ab80
afe0
a900
a900
fa80
0440
1820
ENDCHAR
STARTCHAR 362f
ENCODING 13871
SWIDTH 960 0
DWIDTH 12 0
BBX 12 12 0 -2
BITMAP
0200
f280
1440
1fe0
f120
87c0
f540
17c0
1540
1120
21e0
ce20
ENDCHAR
STARTCHAR 3630
ENCODING 13872
SWIDTH 960 0
DWIDTH 12 0
BBX 12 12 0 -2
BITMAP
0000
ffe0
2940
2fc0
e940
8fc0
ffe0
2940
2fc0
2940
2fc0
dfe0
ENDCHAR
STARTCHAR 3631
ENCODING 13873
SWIDTH 960 0
DWIDTH 12 0
BBX 12 12 0 -2
BITMAP
2100
2100
2100
6fc0
6100
b100
bfe0
2200
2280
2480
27c0
3c40
ENDCHAR
STARTCHAR 3632
ENCODING 13874
SWIDTH 960 0
DWIDTH 12 0
BBX 12 12 0 -2
BITMAP
0780
fc80
2480
2680
3da0
e4a0
0860
1400
5240
5220
90a0
0f80
ENDCHAR
STARTCHAR 3633
ENCODING 13875
SWIDTH 960 0
DWIDTH 12 0
BBX 12 12 0 -2
BITMAP
1100
1100
7fc0
1100
1100
ffe0
1100
2880
eae0
2940
4940
1800
ENDCHAR
STARTCHAR 3634
ENCODING 13876
SWIDTH 960 0
DWIDTH 12 0
BBX 12 12 0 -2
BITMAP
2100
2100
2fe0
f100
2520
2540
3fe0
e100
2100
2280
2440
7820
ENDCHAR
STARTCHAR 3635
ENCODING 13877
SWIDTH 960 0
DWIDTH 12 0
BBX 12 12 0 -2
BITMAP
2100
2500
f900
2be0
fe40
2640
7940
9180
1c80
f180
1240
3c20
ENDCHAR
STARTCHAR 3636
ENCODING 13878
SWIDTH 960 0
DWIDTH 12 0
BBX 12 12 0 -2
BITMAP
27c0
2100
2fe0
f280
2440
6ba0
7280
6fe0
aba0
aaa0
2ba0
2860
ENDCHAR
STARTCHAR 3637
ENCODING 13879
SWIDTH 960 0
DWIDTH 12 0
BBX 12 12 0 -2
BITMAP
4000
2fc0
0840
8840
4840
0fc0
0500
2500
4500
4920
8920
90e0
ENDCHAR
STARTCHAR 3638
ENCODING 13880
SWIDTH 960 0
DWIDTH 12 0
BBX 12 12 0 -2
BITMAP
9000
5fe0
2100
6100
a100
2fc0
3100
6100
a100
2100
2100
cfe0
ENDCHAR
STARTCHAR 3639
ENCODING 13881
SWIDTH 960 0
DWIDTH 12 0
BBX 12 12 0 -2
BITMAP
9200
5200
2fc0
7240
aa80
2a00
3fe0
6200
a200
2500
2880
d060
ENDCHAR
STARTCHAR 363a
ENCODING 13882
SWIDTH 960 0
DWIDTH 12 0
BBX 12 12 0 -2
BITMAP
47c0
4100
77e0
a280
ac60
2380
f280
2fe0
5ba0
4aa0
8ba0
0860
ENDCHAR
STARTCHAR 363b
ENCODING 13883
SWIDTH 960 0
DWIDTH 12 0
BBX 12 12 0 -2
BITMAP
0400
e400
a7e0
a820
f0a0
ada0
aaa0
eda0
a8a0
afa0
a020
a0c0
ENDCHAR
STARTCHAR 363c
ENCODING 13884
SWIDTH 960 0
DWIDTH 12 0
BBX 12 12 0 -2
BITMAP
0400
3f80
0480
2980
fbe0
2920
da60
3f80
2080
3f80
2080
2180
ENDCHAR
STARTCHAR 363d
ENCODING 13885
SWIDTH 960 0
DWIDTH 12 0
BBX 12 12 0 -2
BITMAP
1000
6fc0
4a40
7fc0
4a40
4e40
7bc0
4e40
ffe0
0900
1080
6040
ENDCHAR
STARTCHAR 363e
ENCODING 13886
SWIDTH 960 0
DWIDTH 12 0
BBX 12 12 0 -2
BITMAP
1100
ffe0
1100
3f80
0400
ffe0
3b80
ce60
7fc0
4e40
4a40
4ec0
ENDCHAR
STARTCHAR 363f
ENCODING 13887
SWIDTH 960 0
DWIDTH 12 0
BBX 12 12 0 -2
BITMAP
4000
4ee0
aaa0
6ea0
2ac0
4ea0
a890
ec90
2a90
2de0
4980
8080
ENDCHAR
STARTCHAR 3640
ENCODING 13888
SWIDTH 960 0
DWIDTH 12 0
BBX 12 12 0 -2
BITMAP
2100
27c0
5280
4fe0
f440
27c0
fc40
27c0
b280
6a80
34a0
c860
ENDCHAR
STARTCHAR 3641
ENCODING 13889
SWIDTH 960 0
DWIDTH 12 0
BBX 12 12 0 -2
BITMAP
2ee0
daa0
6ec0
fca0
2aa0
4dc0
ffe0
1100
ffe0
3f80
2080
3f80
ENDCHAR
STARTCHAR 3642
ENCODING 13890
SWIDTH 960 0
DWIDTH 12 0
BBX 12 12 0 -2
BITMAP
2ee0
daa0
6ec0
fca0
2aa0
5dc0
0680
3f80
d160
1f00
1280
39c0
ENDCHAR
STARTCHAR 3643
ENCODING 13891
SWIDTH 960 0
DWIDTH 12 0
BBX 12 12 0 -2
BITMAP
2900
fde0
4520
f6c0
5540
7fa0
2200
3fc0
2200
3fe0
52a0
88c0
ENDCHAR
STARTCHAR 3644
ENCODING 13892
SWIDTH 960 0
DWIDTH 12 0
BBX 12 12 0 -2
BITMAP
2300
2c00
29e0
4920
4920
c920
4920
4920
4b20
5dc0
4100
4100
ENDCHAR
STARTCHAR 3645
ENCODING 13893
SWIDTH 960 0
DWIDTH 12 0
BBX 12 12 0 -2
BITMAP
23e0
2420
b940
6480
1fe0
10a0
1e80
6ae0
5e80
8a80
9580
2460
ENDCHAR
STARTCHAR 3646
ENCODING 13894
SWIDTH 960 0
DWIDTH 12 0
BBX 12 12 0 -2
BITMAP
0400
7f80
0400
2500
ffc0
2100
0000
ffe0
1200
1240
2240
c1c0
ENDCHAR
STARTCHAR 3647
ENCODING 13895
SWIDTH 960 0
DWIDTH 12 0
BBX 12 12 0 -2
BITMAP
0200
1fc0
e200
aa80
bfe0
e880
a000
bfe0
e500
8520
0920
30e0
ENDCHAR
STARTCHAR 3648
ENCODING 13896
SWIDTH 960 0
DWIDTH 12 0
BBX 12 12 0 -2
BITMAP
0a00
2a80
ffe0
1100
7fc0
0400
3f80
0400
ffe0
1500
2480
4440
ENDCHAR
STARTCHAR 3649
ENCODING 13897
SWIDTH 960 0
DWIDTH 12 0
BBX 12 12 0 -2
BITMAP
0000
3fc0
2040
3fc0
2000
3fe0
2020
2f20
4920
4920
8f20
00c0
ENDCHAR
STARTCHAR 364a
ENCODING 13898
SWIDTH 960 0
DWIDTH 12 0
BBX 12 12 0 -2
BITMAP
0900
0900
0900
7fe0
4920
4920
7fe0
4920
4920
4920
4920
7fe0
ENDCHAR
STARTCHAR 364b
ENCODING 13899
SWIDTH 960 0
DWIDTH 12 0
BBX 12 12 0 -2
BITMAP
2000
2fe0
2200
f400
2ee0
6120
7da0
7540
b540
bda0
2300
2fe0
ENDCHAR
STARTCHAR 364c
ENCODING 13900
SWIDTH 960 0
DWIDTH 12 0
BBX 12 12 0 -2
BITMAP
0000
7fc0
0400
0400
0400
0400
3f80
0400
0500
0480
0480
ffe0
ENDCHAR
STARTCHAR 364d
ENCODING 13901
SWIDTH 960 0
DWIDTH 12 0
BBX 12 12 0 -2
BITMAP
2000
2fe0
2820
fba0
2820
6ba0
7aa0
6aa0
aba0
a820
2820
2860
ENDCHAR
STARTCHAR 364e
ENCODING 13902
SWIDTH 960 0
DWIDTH 12 0
BBX 12 12 0 -2
BITMAP
20c0
af00
7100
2100
f100
2fe0
7100
6900
a100
a100
2100
2100
ENDCHAR
STARTCHAR 364f
ENCODING 13903
SWIDTH 960 0
DWIDTH 12 0
BBX 12 12 0 -2
BITMAP
2280
2fe0
2280
4fe0
4920
cfe0
4100
4fe0
4100
47c0
4100
4fe0
ENDCHAR
STARTCHAR 3650
ENCODING 13904
SWIDTH 960 0
DWIDTH 12 0
BBX 12 12 0 -2
BITMAP
2900
fd00
2900
7fe0
5520
7d20
1120
7d20
1120
7920
1e20
f4c0
ENDCHAR
STARTCHAR 3651
ENCODING 13905
SWIDTH 960 0
DWIDTH 12 0
BBX 12 12 0 -2
BITMAP
2200
2200
27e0
f420
2820
3620
20a0
3320
2c20
c020
0020
00c0
ENDCHAR
STARTCHAR 3652
ENCODING 13906
SWIDTH 960 0
DWIDTH 12 0
BBX 12 12 0 -2
BITMAP
0400
0400
0400
7fc0
4440
4440
4440
4440
4580
0400
0400
0400
ENDCHAR
STARTCHAR 3653
ENCODING 13907
SWIDTH 960 0
DWIDTH 12 0
BBX 12 12 0 -2
BITMAP
2200
27c0
5440
4fc0
fc40
27c0
f900
27e0
b520
6d20
3560
c100
ENDCHAR
STARTCHAR 3654
ENCODING 13908
SWIDTH 960 0
DWIDTH 12 0
BBX 12 12 0 -2
BITMAP
0080
0300
3c00
2000
3fe0
2200
2200
2200
2200
4200
4200
8200
ENDCHAR
STARTCHAR 3655
ENCODING 13909
SWIDTH 960 0
DWIDTH 12 0
BBX 12 12 0 -2
BITMAP
1a00
6200
4200
43e0
7d20
5540
5900
5100
5300
5280
9440
1820
ENDCHAR
STARTCHAR 3656
ENCODING 13910
SWIDTH 960 0
DWIDTH 12 0
BBX 12 12 0 -2
BITMAP
2200
2200
5200
4be0
fd20
2540
f900
2100
b180
6a80
3440
c820
ENDCHAR
STARTCHAR 3657
ENCODING 13911
SWIDTH 960 0
DWIDTH 12 0
BBX 12 12 0 -2
BITMAP
fbe0
2080
fbe0
2080
f7e0
0e00
3180
df60
0000
3f80
0100
0600
ENDCHAR
STARTCHAR 3658
ENCODING 13912
SWIDTH 960 0
DWIDTH 12 0
BBX 12 12 0 -2
BITMAP
2100
ffe0
3300
2d80
6540
a120
3f80
0000
ffe0
2480
c440
0c00
ENDCHAR
STARTCHAR 3659
ENCODING 13913
SWIDTH 960 0
DWIDTH 12 0
BBX 12 12 0 -2
BITMAP
0400
0b00
3fc0
c930
2640
2940
3fc0
0400
7fe0
4520
5fa0
40a0
ENDCHAR
STARTCHAR 365a
ENCODING 13914
SWIDTH 960 0
DWIDTH 12 0
BBX 12 12 0 -2
BITMAP
4200
7be0
9480
7900
4fe0
7920
4920
4920
7920
4a20
4a20
9cc0
ENDCHAR
STARTCHAR 365b
ENCODING 13915
SWIDTH 960 0
DWIDTH 12 0
BBX 12 12 0 -2
BITMAP
0000
7de0
5020
7d40
7c80
5140
7e20
3180
0e40
ffe0
1520
6480
ENDCHAR
STARTCHAR 365c
ENCODING 13916
SWIDTH 960 0
DWIDTH 12 0
BBX 12 12 0 -2
BITMAP
1100
ffe0
1100
01c0
3e00
2000
3fe0
2200
2200
4200
4200
8200
ENDCHAR
STARTCHAR 365d
ENCODING 13917
SWIDTH 960 0
DWIDTH 12 0
BBX 12 12 0 -2
BITMAP
0900
fff0
0900
7fe0
4320
5c20
4420
7fe0
4e20
75a0
4420
7fe0
ENDCHAR
STARTCHAR 365e
ENCODING 13918
SWIDTH 960 0
DWIDTH 12 0
BBX 12 12 0 -2
BITMAP
2100
2100
fa80
0a80
1440
2ba0
7000
afc0
2040
2080
2080
2100
ENDCHAR
STARTCHAR 365f
ENCODING 13919
SWIDTH 960 0
DWIDTH 12 0
BBX 12 12 0 -2
BITMAP
4480
5fe0
e480
2fc0
34a0
4fe0
6000
ffe0
4940
4920
5120
4300
ENDCHAR
STARTCHAR 3660
ENCODING 13920
SWIDTH 960 0
DWIDTH 12 0
BBX 12 12 0 -2
BITMAP
7240
0fe0
f240
07c0
7540
07c0
7100
0fc0
f100
97c0
9100
ffe0
ENDCHAR
STARTCHAR 3661
ENCODING 13921
SWIDTH 960 0
DWIDTH 12 0
BBX 12 12 0 -2
BITMAP
0060
4780
2400
0400
07e0
e480
2480
2480
2880
3080
5800
87f0
ENDCHAR
STARTCHAR 3662
ENCODING 13922
SWIDTH 960 0
DWIDTH 12 0
BBX 12 12 0 -2
BITMAP
0400
0400
0a00
1100
3f80
c460
0400
7fc0
0400
2480
1500
ffe0
ENDCHAR
STARTCHAR 3663
ENCODING 13923
SWIDTH 960 0
DWIDTH 12 0
BBX 12 12 0 -2
BITMAP
0200
0300
e500
a480
afc0
b020
a000
afc0
a080
e080
0100
0200
ENDCHAR
STARTCHAR 3664
ENCODING 13924
SWIDTH 960 0
DWIDTH 12 0
BBX 12 12 0 -2
BITMAP
2000
27c0
5440
4fc0
f440
27c0
fd20
2540
b480
6c80
3740
cc20
ENDCHAR
STARTCHAR 3665
ENCODING 13925
SWIDTH 960 0
DWIDTH 12 0
BBX 12 12 0 -2
BITMAP
0800
0800
0800
7f00
0900
0900
0900
0900
1100
1120
2120
40e0
ENDCHAR
STARTCHAR 3666
ENCODING 13926
SWIDTH 960 0
DWIDTH 12 0
BBX 12 12 0 -2
BITMAP
1000
1fc0
1840
2840
2fc0
6840
afc0
2840
3fe0
2280
2440
3820
ENDCHAR
STARTCHAR 3667
ENCODING 13927
SWIDTH 960 0
DWIDTH 12 0
BBX 12 12 0 -2
BITMAP
1000
1000
3fe0
2020
5f20
9120
1120
1120
1f20
0020
0020
00c0
ENDCHAR
STARTCHAR 3668
ENCODING 13928
SWIDTH 960 0
DWIDTH 12 0
BBX 12 12 0 -2
BITMAP
0000
7fe0
4080
4080
5900
4500
4200
4500
4880
5000
7fe0
4000
ENDCHAR
STARTCHAR 3669
ENCODING 13929
SWIDTH 960 0
DWIDTH 12 0
BBX 12 12 0 -2
BITMAP
9400
6400
47e0
a820
2820
37a0
64a0
a4a0
27a0
2020
2020
c0c0
ENDCHAR
STARTCHAR 366a
ENCODING 13930
SWIDTH 960 0
DWIDTH 12 0
BBX 12 12 0 -2
BITMAP
0200
fa00
23c0
2240
f440
2480
2880
2180
3940
c240
0420
1820
ENDCHAR
STARTCHAR 366b
ENCODING 13931
SWIDTH 960 0
DWIDTH 12 0
BBX 12 12 0 -2
BITMAP
4000
47e0
7c00
a400
a7c0
2440
7c40
27c0
3400
4c00
4400
87e0
ENDCHAR
STARTCHAR 366c
ENCODING 13932
SWIDTH 960 0
DWIDTH 12 0
BBX 12 12 0 -2
BITMAP
1100
ffe0
1100
1500
0400
ffe0
0400
0400
3f80
2080
2080
3f80
ENDCHAR
STARTCHAR 366d
ENCODING 13933
SWIDTH 960 0
DWIDTH 12 0
BBX 12 12 0 -2
BITMAP
2000
7be0
4a00
7a20
4b20
7ac0
4e40
faa0
1aa0
2b00
ca00
1be0
ENDCHAR
STARTCHAR 366e
ENCODING 13934
SWIDTH 960 0
DWIDTH 12 0
BBX 12 12 0 -2
BITMAP
0000
ffe0
a440
f440
a540
f480
a480
fd40
0d20
ae00
8c00
37e0
ENDCHAR
STARTCHAR 366f
ENCODING 13935
SWIDTH 960 0
DWIDTH 12 0
BBX 12 12 0 -2
BITMAP
0040
f880
a300
f200
a3e0
f240
a240
fa40
0a40
aa40
8a40
37f0
ENDCHAR
STARTCHAR 3670
ENCODING 13936
SWIDTH 960 0
DWIDTH 12 0
BBX 12 12 0 -2
BITMAP
0200
fa00
a3e0
f420
a7a0
faa0
a2a0
faa0
0ba0
a820
8820
30c0
ENDCHAR
STARTCHAR 3671
ENCODING 13937
SWIDTH 960 0
DWIDTH 12 0
BBX 12 12 0 -2
BITMAP
3f00
2100
3f00
2100
3f00
2100
3f00
0000
ffe0
1200
2180
c040
ENDCHAR
STARTCHAR 3672
ENCODING 13938
SWIDTH 960 0
DWIDTH 12 0
BBX 12 12 0 -2
BITMAP
3f80
2480
3f80
2480
ffe0
8a20
9720
b8a0
1460
5240
90a0
0f80
ENDCHAR
STARTCHAR 3673
ENCODING 13939
SWIDTH 960 0
DWIDTH 12 0
BBX 12 12 0 -2
BITMAP
0400
0780
7fe0
4440
5fc0
6880
6f80
7f00
4100
7fe0
8880
b040
ENDCHAR
STARTCHAR 3674
ENCODING 13940
SWIDTH 960 0
DWIDTH 12 0
BBX 12 12 0 -2
BITMAP
0200
0500
ef80
b040
afa0
a880
af80
af80
aa40
e980
0cc0
3820
ENDCHAR
STARTCHAR 3675
ENCODING 13941
SWIDTH 960 0
DWIDTH 12 0
BBX 12 12 0 -2
BITMAP
0400
ffe0
9220
9220
1240
21c0
4000
3fc0
0400
0400
0400
ffe0
ENDCHAR
STARTCHAR 3676
ENCODING 13942
SWIDTH 960 0
DWIDTH 12 0
BBX 12 12 0 -2
BITMAP
2000
2fc0
2a40
4fc0
4a40
cfc0
4200
5fe0
52a0
53a0
5ca0
5060
ENDCHAR
STARTCHAR 3677
ENCODING 13943
SWIDTH 960 0
DWIDTH 12 0
BBX 12 12 0 -2
BITMAP
0400
ffe0
8020
bfa0
2480
3f80
2480
7fc0
4540
5f40
4140
40c0
ENDCHAR
STARTCHAR 3678
ENCODING 13944
SWIDTH 960 0
DWIDTH 12 0
BBX 12 12 0 -2
BITMAP
0fc0
4a40
2fc0
0a40
0fc0
e200
2fe0
2aa0
2fa0
28e0
5800
87f0
ENDCHAR
STARTCHAR 3679
ENCODING 13945
SWIDTH 960 0
DWIDTH 12 0
BBX 12 12 0 -2
BITMAP
0000
efc0
aa40
afc0
ca40
afc0
a200
bfe0
b2a0
d3a0
9ca0
9060
ENDCHAR
STARTCHAR 367a
ENCODING 13946
SWIDTH 960 0
DWIDTH 12 0
BBX 12 12 0 -2
BITMAP
0400
0400
7fc0
4440
7fc0
0400
ffe0
8420
ffe0
0400
0400
0400
ENDCHAR
STARTCHAR 367b
ENCODING 13947
SWIDTH 960 0
DWIDTH 12 0
BBX 12 12 0 -2
BITMAP
2880
2ee0
3540
f440
2ee0
6aa0
7ea0
6aa0
aea0
a8e0
2e80
2a80
ENDCHAR
STARTCHAR 367c
ENCODING 13948
SWIDTH 960 0
DWIDTH 12 0
BBX 12 12 0 -2
BITMAP
2220
22a0
52a0
4aa0
faa0
22a0
faa0
22a0
b2a0
6aa0
3220
c420
ENDCHAR
STARTCHAR 367d
ENCODING 13949
SWIDTH 960 0
DWIDTH 12 0
BBX 12 12 0 -2
BITMAP
7fe0
4020
7fe0
5240
4a80
5fc0
5040
5fc0
5040
5fc0
9040
10c0
ENDCHAR
STARTCHAR 367e
ENCODING 13950
SWIDTH 960 0
DWIDTH 12 0
BBX 12 12 0 -2
BITMAP
0000
7fe0
4020
7fe0
4200
5240
5240
5fc0
4200
6220
a220
3fe0
ENDCHAR
STARTCHAR 3721
ENCODING 14113
SWIDTH 960 0
DWIDTH 12 0
BBX 12 12 0 -2
BITMAP
2000
2fe0
2820
ffe0
2880
2aa0
3aa0
ebe0
2880
2ca0
34a0
67e0
ENDCHAR
STARTCHAR 3722
ENCODING 14114
SWIDTH 960 0
DWIDTH 12 0
BBX 12 12 0 -2
BITMAP
0400
ffe0
90a0
3f80
e0e0
3f80
2200
3240
3fc0
4200
a240
3fc0
ENDCHAR
STARTCHAR 3723
ENCODING 14115
SWIDTH 960 0
DWIDTH 12 0
BBX 12 12 0 -2
BITMAP
0400
04c0
f700
1600
2580
c460
0c00
3f80
2080
3f80
2080
3f80
ENDCHAR
STARTCHAR 3724
ENCODING 14116
SWIDTH 960 0
DWIDTH 12 0
BBX 12 12 0 -2
BITMAP
5280
fa80
5280
74a0
2aa0
fac0
aa80
fa80
2280
faa0
22a0
2260
ENDCHAR
STARTCHAR 3725
ENCODING 14117
SWIDTH 960 0
DWIDTH 12 0
BBX 12 12 0 -2
BITMAP
5f40
8480
bf40
55a0
ffe0
44a0
ffc0
44a0
3f80
2080
2080
3f80
ENDCHAR
STARTCHAR 3726
ENCODING 14118
SWIDTH 960 0
DWIDTH 12 0
BBX 12 12 0 -2
BITMAP
0400
ffe0
8a20
71c0
4200
2fc0
8200
5fe0
0200
2fc0
4200
bfe0
ENDCHAR
STARTCHAR 3727
ENCODING 14119
SWIDTH 960 0
DWIDTH 12 0
BBX 12 12 0 -2
BITMAP
2240
4b80
fa20
4de0
7800
4a40
7b80
4a20
89e0
0000
5240
8920
ENDCHAR
STARTCHAR 3728
ENCODING 14120
SWIDTH 960 0
DWIDTH 12 0
BBX 12 12 0 -2
BITMAP
0000
efc0
aa40
afc0
ca40
afc0
a000
bfe0
aa40
c980
8a40
9c20
ENDCHAR
STARTCHAR 3729
ENCODING 14121
SWIDTH 960 0
DWIDTH 12 0
BBX 12 12 0 -2
BITMAP
0800
0f00
3100
c600
1980
e460
2480
1500
ffe0
0e00
3580
c460
ENDCHAR
STARTCHAR 372a
ENCODING 14122
SWIDTH 960 0
DWIDTH 12 0
BBX 12 12 0 -2
BITMAP
0000
ffe0
0a00
7fc0
4a40
7fc0
0400
ffe0
0e00
3580
c460
0400
ENDCHAR
STARTCHAR 372b
ENCODING 14123
SWIDTH 960 0
DWIDTH 12 0
BBX 12 12 0 -2
BITMAP
2380
2280
d380
5000
2ee0
5aa0
fee0
2100
afe0
ab80
a540
2920
ENDCHAR
STARTCHAR 372c
ENCODING 14124
SWIDTH 960 0
DWIDTH 12 0
BBX 12 12 0 -2
BITMAP
3f80
1100
0e00
3180
ffc0
4a40
3580
ce40
ffe0
0e00
3580
c460
ENDCHAR
STARTCHAR 372d
ENCODING 14125
SWIDTH 960 0
DWIDTH 12 0
BBX 12 12 0 -2
BITMAP
2140
2640
5240
4a50
f7d0
22e0
f640
2740
aaa0
72a0
3b20
c210
ENDCHAR
STARTCHAR 372e
ENCODING 14126
SWIDTH 960 0
DWIDTH 12 0
BBX 12 12 0 -2
BITMAP
7d00
1100
ffe0
5520
7d20
5520
7d20
1220
fcc0
4080
5240
8920
ENDCHAR
STARTCHAR 372f
ENCODING 14127
SWIDTH 960 0
DWIDTH 12 0
BBX 12 12 0 -2
BITMAP
0000
7f80
0880
ffe0
0880
0880
7f80
1000
3f80
5080
9080
1f80
ENDCHAR
STARTCHAR 3730
ENCODING 14128
SWIDTH 960 0
DWIDTH 12 0
BBX 12 12 0 -2
BITMAP
1100
ffe0
1100
7fc0
0400
ffe0
2480
3f80
2480
ffe0
5240
8920
ENDCHAR
STARTCHAR 3731
ENCODING 14129
SWIDTH 960 0
DWIDTH 12 0
BBX 12 12 0 -2
BITMAP
7220
02a0
faa0
02a0
72a0
02a0
72a0
02a0
f2a0
92a0
9420
f420
ENDCHAR
STARTCHAR 3732
ENCODING 14130
SWIDTH 960 0
DWIDTH 12 0
BBX 12 12 0 -2
BITMAP
0220
7d40
27e0
fe80
2480
7fe0
2080
3c80
67e0
6480
a480
3c80
ENDCHAR
STARTCHAR 3733
ENCODING 14131
SWIDTH 960 0
DWIDTH 12 0
BBX 12 12 0 -2
BITMAP
ffe0
8420
bfa0
0400
7fc0
4440
7fc0
4440
7fc0
0400
ffe0
0400
ENDCHAR
STARTCHAR 3734
ENCODING 14132
SWIDTH 960 0
DWIDTH 12 0
BBX 12 12 0 -2
BITMAP
0000
7de0
2520
ff40
2580
7d40
2120
3d20
6520
65c0
a500
3d00
ENDCHAR
STARTCHAR 3735
ENCODING 14133
SWIDTH 960 0
DWIDTH 12 0
BBX 12 12 0 -2
BITMAP
1100
1100
7d00
1100
fd80
1140
1120
7d20
1100
1f00
e100
0100
ENDCHAR
STARTCHAR 3736
ENCODING 14134
SWIDTH 960 0
DWIDTH 12 0
BBX 12 12 0 -2
BITMAP
2000
23c0
fa40
2a40
2a40
5bc0
8000
ffe0
1440
3280
dd80
3060
ENDCHAR
STARTCHAR 3737
ENCODING 14135
SWIDTH 960 0
DWIDTH 12 0
BBX 12 12 0 -2
BITMAP
2000
23c0
fa40
0a80
1300
2280
7240
aa20
2220
22c0
2200
2200
ENDCHAR
STARTCHAR 3738
ENCODING 14136
SWIDTH 960 0
DWIDTH 12 0
BBX 12 12 0 -2
BITMAP
10c0
1f00
1240
2c80
2300
6240
afa0
2100
2540
2520
2920
2100
ENDCHAR
STARTCHAR 3739
ENCODING 14137
SWIDTH 960 0
DWIDTH 12 0
BBX 12 12 0 -2
BITMAP
2000
2fe0
2100
53c0
5640
dbc0
5240
53c0
5640
4fc0
4340
4c20
ENDCHAR
STARTCHAR 373a
ENCODING 14138
SWIDTH 960 0
DWIDTH 12 0
BBX 12 12 0 -2
BITMAP
0020
fd20
4920
4920
4920
ff20
4920
4920
4920
4820
4820
8860
ENDCHAR
STARTCHAR 373b
ENCODING 14139
SWIDTH 960 0
DWIDTH 12 0
BBX 12 12 0 -2
BITMAP
0000
3f80
2080
2080
2080
3f80
0a00
0a00
0a00
1220
2220
c1e0
ENDCHAR
STARTCHAR 373c
ENCODING 14140
SWIDTH 960 0
DWIDTH 12 0
BBX 12 12 0 -2
BITMAP
fa00
03e0
7a40
4d40
7880
4140
4620
8000
3f80
2080
2080
3f80
ENDCHAR
STARTCHAR 373d
ENCODING 14141
SWIDTH 960 0
DWIDTH 12 0
BBX 12 12 0 -2
BITMAP
0400
0400
3fc0
0400
0400
7fe0
0400
0400
7fc0
0400
0400
ffe0
ENDCHAR
STARTCHAR 373e
ENCODING 14142
SWIDTH 960 0
DWIDTH 12 0
BBX 12 12 0 -2
BITMAP
0100
f100
2fc0
2100
f100
2fe0
2100
2100
3fc0
e100
0100
1fe0
ENDCHAR
STARTCHAR 373f
ENCODING 14143
SWIDTH 960 0
DWIDTH 12 0
BBX 12 12 0 -2
BITMAP
0020
7f20
2920
2920
ff20
2920
4820
8460
3f80
0400
0400
ffe0
ENDCHAR
STARTCHAR 3740
ENCODING 14144
SWIDTH 960 0
DWIDTH 12 0
BBX 12 12 0 -2
BITMAP
1000
7be0
1120
7d20
1120
1a20
e4c0
0400
ffe0
0a00
3180
c060
ENDCHAR
STARTCHAR 3741
ENCODING 14145
SWIDTH 960 0
DWIDTH 12 0
BBX 12 12 0 -2
BITMAP
0080
fc80
4900
4940
4a40
fc80
4880
4920
4820
4840
4880
8900
ENDCHAR
STARTCHAR 3742
ENCODING 14146
SWIDTH 960 0
DWIDTH 12 0
BBX 12 12 0 -2
BITMAP
2000
2fc0
5040
9680
2100
2280
6d60
a100
2fc0
2100
2100
3fe0
ENDCHAR
STARTCHAR 3743
ENCODING 14147
SWIDTH 960 0
DWIDTH 12 0
BBX 12 12 0 -2
BITMAP
0400
ffe0
0400
3fc0
2440
3fc0
2440
3fc0
1400
5240
90a0
0f80
ENDCHAR
STARTCHAR 3744
ENCODING 14148
SWIDTH 960 0
DWIDTH 12 0
BBX 12 12 0 -2
BITMAP
0400
7fe0
4900
7fc0
4940
7fe0
5a40
67a0
4920
b600
8980
7060
ENDCHAR
STARTCHAR 3745
ENCODING 14149
SWIDTH 960 0
DWIDTH 12 0
BBX 12 12 0 -2
BITMAP
fbc0
2100
ffc0
2100
7fc0
0080
7f80
0080
7f80
5440
92a0
0f80
ENDCHAR
STARTCHAR 3746
ENCODING 14150
SWIDTH 960 0
DWIDTH 12 0
BBX 12 12 0 -2
BITMAP
1900
e3c0
2240
fbc0
2240
7bc0
4a40
7bc0
1400
5240
90a0
0f80
ENDCHAR
STARTCHAR 3747
ENCODING 14151
SWIDTH 960 0
DWIDTH 12 0
BBX 12 12 0 -2
BITMAP
27c0
2440
27c0
f440
27c0
2200
37e0
ec20
37a0
2420
23a0
60c0
ENDCHAR
STARTCHAR 3748
ENCODING 14152
SWIDTH 960 0
DWIDTH 12 0
BBX 12 12 0 -2
BITMAP
2440
27e0
2c80
f7e0
2480
27e0
3480
efe0
2240
2260
2420
68c0
ENDCHAR
STARTCHAR 3749
ENCODING 14153
SWIDTH 960 0
DWIDTH 12 0
BBX 12 12 0 -2
BITMAP
2900
fd00
29e0
2240
7e40
4540
f540
5480
5480
7580
0640
1820
ENDCHAR
STARTCHAR 374a
ENCODING 14154
SWIDTH 960 0
DWIDTH 12 0
BBX 12 12 0 -2
BITMAP
3f80
2080
3f80
2080
ffe0
0000
3f80
2080
3f80
0500
2480
cc40
ENDCHAR
STARTCHAR 374b
ENCODING 14155
SWIDTH 960 0
DWIDTH 12 0
BBX 12 12 0 -2
BITMAP
2100
2100
27c0
f900
2100
6fe0
7100
6900
a7c0
a100
2100
2fe0
ENDCHAR
STARTCHAR 374c
ENCODING 14156
SWIDTH 960 0
DWIDTH 12 0
BBX 12 12 0 -2
BITMAP
43c0
3c40
1240
8a80
4a80
0fc0
0200
3fe0
4200
4300
8480
9860
ENDCHAR
STARTCHAR 374d
ENCODING 14157
SWIDTH 960 0
DWIDTH 12 0
BBX 12 12 0 -2
BITMAP
0100
f900
afc0
a900
a900
ffe0
a900
a900
afc0
f900
0100
0fe0
ENDCHAR
STARTCHAR 374e
ENCODING 14158
SWIDTH 960 0
DWIDTH 12 0
BBX 12 12 0 -2
BITMAP
1240
efe0
2300
24e0
fc40
2780
7420
6fe0
a440
a7c0
2440
27c0
ENDCHAR
STARTCHAR 374f
ENCODING 14159
SWIDTH 960 0
DWIDTH 12 0
BBX 12 12 0 -2
BITMAP
01c0
7e00
0480
2900
1200
0c80
ffc0
0420
2500
2480
4440
0400
ENDCHAR
STARTCHAR 3750
ENCODING 14160
SWIDTH 960 0
DWIDTH 12 0
BBX 12 12 0 -2
BITMAP
2000
27c0
d240
5180
2280
5460
f900
2100
b7c0
a900
a100
2fe0
ENDCHAR
STARTCHAR 3751
ENCODING 14161
SWIDTH 960 0
DWIDTH 12 0
BBX 12 12 0 -2
BITMAP
2480
2480
d6a0
55c0
27e0
5480
fdc0
25c0
b6a0
ac80
a480
27e0
ENDCHAR
STARTCHAR 3752
ENCODING 14162
SWIDTH 960 0
DWIDTH 12 0
BBX 12 12 0 -2
BITMAP
fb80
22a0
fce0
afc0
fa40
2180
fe60
3280
0d00
ffe0
1500
64c0
ENDCHAR
STARTCHAR 3753
ENCODING 14163
SWIDTH 960 0
DWIDTH 12 0
BBX 12 12 0 -2
BITMAP
0000
7fc0
4a40
7fc0
1100
7d00
1180
ff40
1120
7d00
1d00
f100
ENDCHAR
STARTCHAR 3754
ENCODING 14164
SWIDTH 960 0
DWIDTH 12 0
BBX 12 12 0 -2
BITMAP
1100
ffe0
1100
7f80
1300
0c00
3300
c4e0
3f80
0400
0400
ffe0
ENDCHAR
STARTCHAR 3755
ENCODING 14165
SWIDTH 960 0
DWIDTH 12 0
BBX 12 12 0 -2
BITMAP
1200
ffe0
1200
0040
fe40
2a40
2a40
fe40
2a40
4a40
4840
88c0
ENDCHAR
STARTCHAR 3756
ENCODING 14166
SWIDTH 960 0
DWIDTH 12 0
BBX 12 12 0 -2
BITMAP
4880
2480
2500
ffe0
8420
bfa0
2480
2480
3f80
0440
07e0
f820
ENDCHAR
STARTCHAR 3757
ENCODING 14167
SWIDTH 960 0
DWIDTH 12 0
BBX 12 12 0 -2
BITMAP
7100
0100
f900
0100
7fe0
0100
7100
0100
f100
9100
9100
f100
ENDCHAR
STARTCHAR 3758
ENCODING 14168
SWIDTH 960 0
DWIDTH 12 0
BBX 12 12 0 -2
BITMAP
7400
04c0
ff00
0420
73e0
0000
77c0
0440
f7c0
9440
9440
f7c0
ENDCHAR
STARTCHAR 3759
ENCODING 14169
SWIDTH 960 0
DWIDTH 12 0
BBX 12 12 0 -2
BITMAP
2900
fdf0
4620
f540
54c0
7730
0c00
7fe0
0f00
3fc0
2040
3fc0
ENDCHAR
STARTCHAR 375a
ENCODING 14170
SWIDTH 960 0
DWIDTH 12 0
BBX 12 12 0 -2
BITMAP
2000
fbe0
2020
f940
a880
fb60
a880
f880
23e0
f880
2080
27f0
ENDCHAR
STARTCHAR 375b
ENCODING 14171
SWIDTH 960 0
DWIDTH 12 0
BBX 12 12 0 -2
BITMAP
0000
fbe0
0900
53e0
3220
4be0
a220
7be0
2220
2be0
3140
c620
ENDCHAR
STARTCHAR 375c
ENCODING 14172
SWIDTH 960 0
DWIDTH 12 0
BBX 12 12 0 -2
BITMAP
1a00
e7c0
0440
afc0
ac00
07c0
fc00
27e0
f820
22a0
5420
80c0
ENDCHAR
STARTCHAR 375d
ENCODING 14173
SWIDTH 960 0
DWIDTH 12 0
BBX 12 12 0 -2
BITMAP
1100
ffe0
1100
1100
7fc0
0000
ffe0
0400
0900
1380
7c40
0040
ENDCHAR
STARTCHAR 375e
ENCODING 14174
SWIDTH 960 0
DWIDTH 12 0
BBX 12 12 0 -2
BITMAP
0000
4200
2de0
0920
0920
e920
2920
2f20
29c0
2100
5900
87f0
ENDCHAR
STARTCHAR 375f
ENCODING 14175
SWIDTH 960 0
DWIDTH 12 0
BBX 12 12 0 -2
BITMAP
2100
3fe0
5000
fbc0
aa40
fa40
abc0
f880
12c0
6aa0
54a0
8180
ENDCHAR
STARTCHAR 3760
ENCODING 14176
SWIDTH 960 0
DWIDTH 12 0
BBX 12 12 0 -2
BITMAP
1c20
1120
7d20
6520
7920
4120
7d20
5320
6d20
5c20
aa20
1060
ENDCHAR
STARTCHAR 3761
ENCODING 14177
SWIDTH 960 0
DWIDTH 12 0
BBX 12 12 0 -2
BITMAP
2100
f980
2140
f9e0
8f00
f940
8940
f980
2080
f9a0
2260
2420
ENDCHAR
STARTCHAR 3762
ENCODING 14178
SWIDTH 960 0
DWIDTH 12 0
BBX 12 12 0 -2
BITMAP
11c0
fd40
5550
7ff0
5540
fdc0
1230
3f80
0200
ffe0
0200
0600
ENDCHAR
STARTCHAR 3763
ENCODING 14179
SWIDTH 960 0
DWIDTH 12 0
BBX 12 12 0 -2
BITMAP
4900
3d00
15e0
9d40
5640
1e40
0940
3e80
4880
4d40
9640
ac20
ENDCHAR
STARTCHAR 3764
ENCODING 14180
SWIDTH 960 0
DWIDTH 12 0
BBX 12 12 0 -2
BITMAP
0100
e540
a920
afc0
c840
afc0
a840
afc0
c540
8920
9120
8300
ENDCHAR
STARTCHAR 3765
ENCODING 14181
SWIDTH 960 0
DWIDTH 12 0
BBX 12 12 0 -2
BITMAP
2200
25c0
2800
f200
25e0
6c80
7480
6c80
a480
a480
2480
2580
ENDCHAR
STARTCHAR 3766
ENCODING 14182
SWIDTH 960 0
DWIDTH 12 0
BBX 12 12 0 -2
BITMAP
2840
2c40
35e0
5d40
47e0
c840
7240
5fe0
4700
4a80
5260
4200
ENDCHAR
STARTCHAR 3767
ENCODING 14183
SWIDTH 960 0
DWIDTH 12 0
BBX 12 12 0 -2
BITMAP
1000
1000
1000
1fe0
2440
2480
4400
0600
0a00
1100
2080
c060
ENDCHAR
STARTCHAR 3768
ENCODING 14184
SWIDTH 960 0
DWIDTH 12 0
BBX 12 12 0 -2
BITMAP
4200
2200
1fc0
8240
4240
0240
3ff0
2300
4500
4480
8840
b020
ENDCHAR
STARTCHAR 3769
ENCODING 14185
SWIDTH 960 0
DWIDTH 12 0
BBX 12 12 0 -2
BITMAP
49e0
3ea0
08a0
3ca0
8f20
7240
1d00
2640
5fa0
4a80
b240
8200
ENDCHAR
STARTCHAR 376a
ENCODING 14186
SWIDTH 960 0
DWIDTH 12 0
BBX 12 12 0 -2
BITMAP
0400
0400
ffe0
8020
8020
1700
1100
1100
2080
2080
4040
8020
ENDCHAR
STARTCHAR 376b
ENCODING 14187
SWIDTH 960 0
DWIDTH 12 0
BBX 12 12 0 -2
BITMAP
2100
2100
dfe0
5100
2100
57c0
f800
27c0
b440
ac40
a440
27c0
ENDCHAR
STARTCHAR 376c
ENCODING 14188
SWIDTH 960 0
DWIDTH 12 0
BBX 12 12 0 -2
BITMAP
0800
0800
1000
7fc0
4a40
4a40
4a40
4a40
4a40
4a40
ffe0
0000
ENDCHAR
STARTCHAR 376d
ENCODING 14189
SWIDTH 960 0
DWIDTH 12 0
BBX 12 12 0 -2
BITMAP
7200
0200
f200
0fc0
7240
0240
7fe0
0200
f300
9480
9840
f020
ENDCHAR
STARTCHAR 376e
ENCODING 14190
SWIDTH 960 0
DWIDTH 12 0
BBX 12 12 0 -2
BITMAP
0000
1fc0
1040
1040
1fc0
1040
1040
1fc0
1040
2040
2040
40c0
ENDCHAR
STARTCHAR 376f
ENCODING 14191
SWIDTH 960 0
DWIDTH 12 0
BBX 12 12 0 -2
BITMAP
1100
1500
1500
2fc0
2900
7100
bfe0
2100
2100
2100
2100
2100
ENDCHAR
STARTCHAR 3770
ENCODING 14192
SWIDTH 960 0
DWIDTH 12 0
BBX 12 12 0 -2
BITMAP
1100
1280
1440
2ba0
3110
6fe0
a920
2fe0
2300
2280
2440
2820
ENDCHAR
STARTCHAR 3771
ENCODING 14193
SWIDTH 960 0
DWIDTH 12 0
BBX 12 12 0 -2
BITMAP
2240
2a80
3fc0
4200
5fe0
c500
4880
5f40
6120
4f00
4840
47c0
ENDCHAR
STARTCHAR 3772
ENCODING 14194
SWIDTH 960 0
DWIDTH 12 0
BBX 12 12 0 -2
BITMAP
2080
23e0
3ca0
47f0
48a0
dfe0
4480
57e0
4c80
47e0
4a80
51f0
ENDCHAR
STARTCHAR 3773
ENCODING 14195
SWIDTH 960 0
DWIDTH 12 0
BBX 12 12 0 -2
BITMAP
1100
ffe0
0a00
7fc0
0a40
ffe0
0a40
7fc0
1b00
2a80
ca60
0a00
ENDCHAR
STARTCHAR 3774
ENCODING 14196
SWIDTH 960 0
DWIDTH 12 0
BBX 12 12 0 -2
BITMAP
2480
1480
1500
7fc0
0a00
ffe0
1100
3f80
c960
0900
1100
2600
ENDCHAR
STARTCHAR 3775
ENCODING 14197
SWIDTH 960 0
DWIDTH 12 0
BBX 12 12 0 -2
BITMAP
1020
2920
4520
bb20
1120
7d20
5520
7d20
1920
1420
2220
c060
ENDCHAR
STARTCHAR 3776
ENCODING 14198
SWIDTH 960 0
DWIDTH 12 0
BBX 12 12 0 -2
BITMAP
0100
ffe0
b020
afc0
a000
afc0
a840
afc0
e840
0fc0
0000
1fe0
ENDCHAR
STARTCHAR 3777
ENCODING 14199
SWIDTH 960 0
DWIDTH 12 0
BBX 12 12 0 -2
BITMAP
0000
ffe0
9520
bfa0
8420
ffe0
9f20
e2e0
9e20
9120
8f20
ffe0
ENDCHAR
STARTCHAR 3778
ENCODING 14200
SWIDTH 960 0
DWIDTH 12 0
BBX 12 12 0 -2
BITMAP
0000
fbe0
a020
fa40
8940
f880
a140
fe20
0400
3f80
0400
ffe0
ENDCHAR
STARTCHAR 3779
ENCODING 14201
SWIDTH 960 0
DWIDTH 12 0
BBX 12 12 0 -2
BITMAP
4880
5fe0
4500
ffc0
5540
5fe0
5540
9fc0
f500
2d80
5560
8500
ENDCHAR
STARTCHAR 377a
ENCODING 14202
SWIDTH 960 0
DWIDTH 12 0
BBX 12 12 0 -2
BITMAP
0100
77c0
1140
2fe0
4140
77c0
1100
57c0
2100
37e0
4d00
83f0
ENDCHAR
STARTCHAR 377b
ENCODING 14203
SWIDTH 960 0
DWIDTH 12 0
BBX 12 12 0 -2
BITMAP
0400
ffe0
8420
bfa0
0400
ffe0
4a40
7fc0
5400
5240
90a0
0f80
ENDCHAR
STARTCHAR 377c
ENCODING 14204
SWIDTH 960 0
DWIDTH 12 0
BBX 12 12 0 -2
BITMAP
39c0
af00
b940
ae80
b940
87e0
f900
2d40
a520
1240
50a0
8fa0
ENDCHAR
STARTCHAR 377d
ENCODING 14205
SWIDTH 960 0
DWIDTH 12 0
BBX 12 12 0 -2
BITMAP
2480
1500
7fc0
0a00
ffe0
2680
dc60
3f80
0400
7fc0
0400
0c00
ENDCHAR
STARTCHAR 377e
ENCODING 14206
SWIDTH 960 0
DWIDTH 12 0
BBX 12 12 0 -2
BITMAP
2920
2540
27c0
f100
2fe0
2280
3440
ebb0
2080
2780
2440
63c0
ENDCHAR
STARTCHAR 3821
ENCODING 14369
SWIDTH 960 0
DWIDTH 12 0
BBX 12 12 0 -2
BITMAP
2100
2280
2440
ffa0
2100
6fc0
7940
6fc0
a100
a280
2440
3820
ENDCHAR
STARTCHAR 3822
ENCODING 14370
SWIDTH 960 0
DWIDTH 12 0
BBX 12 12 0 -2
BITMAP
2400
27c0
2900
f7e0
2280
37e0
6d00
77c0
a500
a7c0
2500
27e0
ENDCHAR
STARTCHAR 3823
ENCODING 14371
SWIDTH 960 0
DWIDTH 12 0
BBX 12 12 0 -2
BITMAP
0400
ffe0
0500
1a00
ffe0
8920
9ea0
2400
3f80
4400
ffe0
0400
ENDCHAR
STARTCHAR 3824
ENCODING 14372
SWIDTH 960 0
DWIDTH 12 0
BBX 12 12 0 -2
BITMAP
0400
0480
0440
0400
ffe0
0400
0a00
0a00
1100
1100
2080
c060
ENDCHAR
STARTCHAR 3825
ENCODING 14373
SWIDTH 960 0
DWIDTH 12 0
BBX 12 12 0 -2
BITMAP
1080
fcc0
10a0
fc80
cfe0
b480
fc80
9540
fd40
9520
9620
9410
ENDCHAR
STARTCHAR 3826
ENCODING 14374
SWIDTH 960 0
DWIDTH 12 0
BBX 12 12 0 -2
BITMAP
0000
ffe0
2240
2240
4240
7fe0
ca40
4a40
4a40
7c40
0440
0840
ENDCHAR
STARTCHAR 3827
ENCODING 14375
SWIDTH 960 0
DWIDTH 12 0
BBX 12 12 0 -2
BITMAP
0000
ffc0
2440
27c0
4440
77c0
d440
57c0
5280
5280
74a0
0860
ENDCHAR
STARTCHAR 3828
ENCODING 14376
SWIDTH 960 0
DWIDTH 12 0
BBX 12 12 0 -2
BITMAP
23e0
4220
93e0
6000
4be0
fa20
2be0
b220
abe0
aa20
a220
2260
ENDCHAR
STARTCHAR 3829
ENCODING 14377
SWIDTH 960 0
DWIDTH 12 0
BBX 12 12 0 -2
BITMAP
0000
1f80
9080
9f80
9080
9f80
9080
9f80
8000
ffe0
2580
c460
ENDCHAR
STARTCHAR 382a
ENCODING 14378
SWIDTH 960 0
DWIDTH 12 0
BBX 12 12 0 -2
BITMAP
0000
7fe0
0000
7fe0
4020
7fe0
5040
5fc0
5040
5fc0
9040
10c0
ENDCHAR
STARTCHAR 382b
ENCODING 14379
SWIDTH 960 0
DWIDTH 12 0
BBX 12 12 0 -2
BITMAP
0000
3f80
2080
3f80
2080
3f80
2080
3f80
0a00
1220
2220
c1e0
ENDCHAR
STARTCHAR 382c
ENCODING 14380
SWIDTH 960 0
DWIDTH 12 0
BBX 12 12 0 -2
BITMAP
e440
0fe0
f280
0fe0
e2a0
0ff0
e2a0
0fe0
f280
96c0
9aa0
f280
ENDCHAR
STARTCHAR 382d
ENCODING 14381
SWIDTH 960 0
DWIDTH 12 0
BBX 12 12 0 -2
BITMAP
ffe0
a240
f980
8940
fe20
3f80
2080
3f80
2080
3f80
1980
e060
ENDCHAR
STARTCHAR 382e
ENCODING 14382
SWIDTH 960 0
DWIDTH 12 0
BBX 12 12 0 -2
BITMAP
2000
fbe0
2080
f880
a880
ffe0
a880
f880
2080
fc80
2080
2080
ENDCHAR
STARTCHAR 382f
ENCODING 14383
SWIDTH 960 0
DWIDTH 12 0
BBX 12 12 0 -2
BITMAP
0200
4fc0
2a40
1fe0
0000
ef80
2880
2fc0
2840
2fc0
5800
87f0
ENDCHAR
STARTCHAR 3830
ENCODING 14384
SWIDTH 960 0
DWIDTH 12 0
BBX 12 12 0 -2
BITMAP
2080
33e0
5ca0
87f0
74a0
2be0
fe80
2be0
b680
63e0
3580
c8f0
ENDCHAR
STARTCHAR 3831
ENCODING 14385
SWIDTH 960 0
DWIDTH 12 0
BBX 12 12 0 -2
BITMAP
e200
a500
a880
bf60
c200
bfc0
b240
bfc0
c200
8500
8880
9040
ENDCHAR
STARTCHAR 3832
ENCODING 14386
SWIDTH 960 0
DWIDTH 12 0
BBX 12 12 0 -2
BITMAP
0000
fbe0
8900
fbe0
8a20
fbe0
5220
d7e0
da20
53e0
5940
e620
ENDCHAR
STARTCHAR 3833
ENCODING 14387
SWIDTH 960 0
DWIDTH 12 0
BBX 12 12 0 -2
BITMAP
0100
fa80
a440
ffa0
a100
f7c0
a540
ffc0
2900
a980
8a40
3420
ENDCHAR
STARTCHAR 3834
ENCODING 14388
SWIDTH 960 0
DWIDTH 12 0
BBX 12 12 0 -2
BITMAP
2100
3a80
2440
ffa0
8900
dfc0
bd40
afc0
e900
d980
8a40
fc20
ENDCHAR
STARTCHAR 3835
ENCODING 14389
SWIDTH 960 0
DWIDTH 12 0
BBX 12 12 0 -2
BITMAP
0000
1f80
0000
0000
7fe0
0900
0900
0900
1100
1120
2120
40e0
ENDCHAR
STARTCHAR 3836
ENCODING 14390
SWIDTH 960 0
DWIDTH 12 0
BBX 12 12 0 -2
BITMAP
0000
3fe0
2200
2fc0
2840
2fc0
2840
2fc0
4280
5240
a220
0600
ENDCHAR
STARTCHAR 3837
ENCODING 14391
SWIDTH 960 0
DWIDTH 12 0
BBX 12 12 0 -2
BITMAP
2440
1280
7fe0
4100
5f00
49e0
7e40
5540
5e80
54c0
bd20
0620
ENDCHAR
STARTCHAR 3838
ENCODING 14392
SWIDTH 960 0
DWIDTH 12 0
BBX 12 12 0 -2
BITMAP
0000
27e0
2020
4020
c820
2820
1020
2020
2820
4820
f420
04c0
ENDCHAR
STARTCHAR 3839
ENCODING 14393
SWIDTH 960 0
DWIDTH 12 0
BBX 12 12 0 -2
BITMAP
0100
f100
1fe0
1100
f140
8a40
f480
1280
1180
1240
2fa0
c020
ENDCHAR
STARTCHAR 383a
ENCODING 14394
SWIDTH 960 0
DWIDTH 12 0
BBX 12 12 0 -2
BITMAP
40c0
20a0
1fe0
1080
9ea0
50a0
1ec0
3a80
5ac0
5f50
9230
a410
ENDCHAR
STARTCHAR 383b
ENCODING 14395
SWIDTH 960 0
DWIDTH 12 0
BBX 12 12 0 -2
BITMAP
4000
3fe0
1100
97c0
5440
17c0
1440
37c0
5140
5520
a920
c300
ENDCHAR
STARTCHAR 383c
ENCODING 14396
SWIDTH 960 0
DWIDTH 12 0
BBX 12 12 0 -2
BITMAP
0400
0400
ffe0
0800
0900
1100
7200
0c00
0500
0880
1fc0
e040
ENDCHAR
STARTCHAR 383d
ENCODING 14397
SWIDTH 960 0
DWIDTH 12 0
BBX 12 12 0 -2
BITMAP
07e0
fc20
27e0
2420
27e0
fc20
27e0
2280
3280
c490
0890
3070
ENDCHAR
STARTCHAR 383e
ENCODING 14398
SWIDTH 960 0
DWIDTH 12 0
BBX 12 12 0 -2
BITMAP
2100
2100
d7e0
5100
2140
5640
fa80
2100
b180
aa40
afe0
2020
ENDCHAR
STARTCHAR 383f
ENCODING 14399
SWIDTH 960 0
DWIDTH 12 0
BBX 12 12 0 -2
BITMAP
2080
7880
4fe0
6900
5940
4e40
fa80
4900
6940
5a40
4fa0
9820
ENDCHAR
STARTCHAR 3840
ENCODING 14400
SWIDTH 960 0
DWIDTH 12 0
BBX 12 12 0 -2
BITMAP
1f00
0000
ffe0
0000
1f00
0000
1f00
0000
3f80
2080
2080
3f80
ENDCHAR
STARTCHAR 3841
ENCODING 14401
SWIDTH 960 0
DWIDTH 12 0
BBX 12 12 0 -2
BITMAP
7100
07e0
fa40
0240
77e0
0480
7720
0440
f580
9420
98c0
fb00
ENDCHAR
STARTCHAR 3842
ENCODING 14402
SWIDTH 960 0
DWIDTH 12 0
BBX 12 12 0 -2
BITMAP
0000
ef80
a880
af80
c880
a880
9f80
9a40
e980
8a80
8c40
b020
ENDCHAR
STARTCHAR 3843
ENCODING 14403
SWIDTH 960 0
DWIDTH 12 0
BBX 12 12 0 -2
BITMAP
0180
7e00
0480
2480
1500
1400
ffe0
0400
0400
0400
0400
0c00
ENDCHAR
STARTCHAR 3844
ENCODING 14404
SWIDTH 960 0
DWIDTH 12 0
BBX 12 12 0 -2
BITMAP
2000
3fe0
3220
5220
5fe0
d220
57a0
54a0
54a0
57a0
5020
5fe0
ENDCHAR
STARTCHAR 3845
ENCODING 14405
SWIDTH 960 0
DWIDTH 12 0
BBX 12 12 0 -2
BITMAP
0400
0400
0400
ffe0
0400
0400
0400
3f80
2080
2080
2080
3f80
ENDCHAR
STARTCHAR 3846
ENCODING 14406
SWIDTH 960 0
DWIDTH 12 0
BBX 12 12 0 -2
BITMAP
00c0
1f00
e240
b240
aa80
aa00
bfe0
a200
e200
0200
0200
0600
ENDCHAR
STARTCHAR 3847
ENCODING 14407
SWIDTH 960 0
DWIDTH 12 0
BBX 12 12 0 -2
BITMAP
0000
7fe0
4420
4420
7fe0
4420
5fa0
50a0
50a0
5fa0
4020
7fe0
ENDCHAR
STARTCHAR 3848
ENCODING 14408
SWIDTH 960 0
DWIDTH 12 0
BBX 12 12 0 -2
BITMAP
4100
4100
5100
ffe0
5100
5100
5100
97c0
f440
2c40
4440
87c0
ENDCHAR
STARTCHAR 3849
ENCODING 14409
SWIDTH 960 0
DWIDTH 12 0
BBX 12 12 0 -2
BITMAP
0060
f7c0
1540
2540
2540
2540
3540
e540
2540
2520
2560
6bd0
ENDCHAR
STARTCHAR 384a
ENCODING 14410
SWIDTH 960 0
DWIDTH 12 0
BBX 12 12 0 -2
BITMAP
0000
7f80
0080
0080
0080
7f80
4000
4000
4040
4040
4040
3fc0
ENDCHAR
STARTCHAR 384b
ENCODING 14411
SWIDTH 960 0
DWIDTH 12 0
BBX 12 12 0 -2
BITMAP
0200
7fe0
4200
7fe0
5240
5fc0
5240
5fc0
4200
bfe0
8200
0200
ENDCHAR
STARTCHAR 384c
ENCODING 14412
SWIDTH 960 0
DWIDTH 12 0
BBX 12 12 0 -2
BITMAP
0060
f780
1540
1540
f540
8540
f540
1540
15a0
1960
29e0
d650
ENDCHAR
STARTCHAR 384d
ENCODING 14413
SWIDTH 960 0
DWIDTH 12 0
BBX 12 12 0 -2
BITMAP
0000
7fe0
0000
3fc0
2040
2040
3fc0
2000
2000
4000
4000
8000
ENDCHAR
STARTCHAR 384e
ENCODING 14414
SWIDTH 960 0
DWIDTH 12 0
BBX 12 12 0 -2
BITMAP
2100
2100
2200
fbe0
2440
2a40
7a40
4980
4880
4980
7a40
0c20
ENDCHAR
STARTCHAR 384f
ENCODING 14415
SWIDTH 960 0
DWIDTH 12 0
BBX 12 12 0 -2
BITMAP
2100
2100
2100
ffe0
2100
6100
7100
6fc0
a440
a440
2440
27c0
ENDCHAR
STARTCHAR 3850
ENCODING 14416
SWIDTH 960 0
DWIDTH 12 0
BBX 12 12 0 -2
BITMAP
8800
49e0
0920
3f20
89e0
4920
1f20
33e0
5320
5f20
8220
8460
ENDCHAR
STARTCHAR 3851
ENCODING 14417
SWIDTH 960 0
DWIDTH 12 0
BBX 12 12 0 -2
BITMAP
a0c0
6f00
4a80
aa80
2a80
2a80
6a80
aa80
2a80
2b40
2bc0
d620
ENDCHAR
STARTCHAR 3852
ENCODING 14418
SWIDTH 960 0
DWIDTH 12 0
BBX 12 12 0 -2
BITMAP
24e0
b4a0
7fa0
24a0
f4e0
24a0
6ea0
7ae0
aaa0
aea0
2120
2260
ENDCHAR
STARTCHAR 3853
ENCODING 14419
SWIDTH 960 0
DWIDTH 12 0
BBX 12 12 0 -2
BITMAP
2100
2100
f7e0
1280
27c0
2820
7fc0
aa00
23c0
2040
2040
2180
ENDCHAR
STARTCHAR 3854
ENCODING 14420
SWIDTH 960 0
DWIDTH 12 0
BBX 12 12 0 -2
BITMAP
0380
7a80
4a80
4aa0
7c60
4800
4fc0
7840
4a80
4900
4a80
9c60
ENDCHAR
STARTCHAR 3855
ENCODING 14421
SWIDTH 960 0
DWIDTH 12 0
BBX 12 12 0 -2
BITMAP
0000
23e0
2220
fe20
23e0
2220
7a20
4be0
4a20
4a20
7a20
0460
ENDCHAR
STARTCHAR 3856
ENCODING 14422
SWIDTH 960 0
DWIDTH 12 0
BBX 12 12 0 -2
BITMAP
1200
ffc0
1200
00c0
ff80
1a80
2a80
3a80
ea80
2a40
2ac0
77a0
ENDCHAR
STARTCHAR 3857
ENCODING 14423
SWIDTH 960 0
DWIDTH 12 0
BBX 12 12 0 -2
BITMAP
0400
0780
0400
3fe0
2840
3f80
2800
27c0
2500
4520
4920
90e0
ENDCHAR
STARTCHAR 3858
ENCODING 14424
SWIDTH 960 0
DWIDTH 12 0
BBX 12 12 0 -2
BITMAP
6100
0fe0
f280
0440
eba0
0000
e7c0
0200
f3c0
9040
9040
f180
ENDCHAR
STARTCHAR 3859
ENCODING 14425
SWIDTH 960 0
DWIDTH 12 0
BBX 12 12 0 -2
BITMAP
0100
f7e0
9100
9280
f7c0
2820
a7e0
ba00
a3c0
a840
b040
c180
ENDCHAR
STARTCHAR 385a
ENCODING 14426
SWIDTH 960 0
DWIDTH 12 0
BBX 12 12 0 -2
BITMAP
2100
2100
5100
4fe0
f100
2100
f900
2fc0
b440
6c40
3440
c7c0
ENDCHAR
STARTCHAR 385b
ENCODING 14427
SWIDTH 960 0
DWIDTH 12 0
BBX 12 12 0 -2
BITMAP
0000
7fe0
0000
3fc0
2040
3fc0
2880
3fe0
6900
4fc0
4900
8fe0
ENDCHAR
STARTCHAR 385c
ENCODING 14428
SWIDTH 960 0
DWIDTH 12 0
BBX 12 12 0 -2
BITMAP
0000
fbe0
0080
ffe0
8620
ffe0
aa20
bfe0
ea20
bfe0
a940
3e20
ENDCHAR
STARTCHAR 385d
ENCODING 14429
SWIDTH 960 0
DWIDTH 12 0
BBX 12 12 0 -2
BITMAP
2100
f900
27c0
f100
0100
ffc0
8840
fc40
4a80
5100
3a80
c460
ENDCHAR
STARTCHAR 385e
ENCODING 14430
SWIDTH 960 0
DWIDTH 12 0
BBX 12 12 0 -2
BITMAP
0000
3fc0
0400
0400
0400
3f80
0480
0480
0880
0880
0880
7fe0
ENDCHAR
STARTCHAR 385f
ENCODING 14431
SWIDTH 960 0
DWIDTH 12 0
BBX 12 12 0 -2
BITMAP
0000
7fc0
1000
1000
1f00
1100
2100
2100
7e00
0200
0200
ffe0
ENDCHAR
STARTCHAR 3860
ENCODING 14432
SWIDTH 960 0
DWIDTH 12 0
BBX 12 12 0 -2
BITMAP
1000
1fe0
1200
2200
2200
6f80
a280
2480
2480
2480
2480
3fe0
ENDCHAR
STARTCHAR 3861
ENCODING 14433
SWIDTH 960 0
DWIDTH 12 0
BBX 12 12 0 -2
BITMAP
1000
1000
1fc0
2200
4200
0200
ffe0
0200
0200
0200
0200
0200
ENDCHAR
STARTCHAR 3862
ENCODING 14434
SWIDTH 960 0
DWIDTH 12 0
BBX 12 12 0 -2
BITMAP
1f80
5080
5080
5f80
4000
7f80
4080
0080
ffe0
1200
2180
c040
ENDCHAR
STARTCHAR 3863
ENCODING 14435
SWIDTH 960 0
DWIDTH 12 0
BBX 12 12 0 -2
BITMAP
7fc0
0800
0800
7f80
1080
1080
ffe0
0000
3f80
2080
2080
3f80
ENDCHAR
STARTCHAR 3864
ENCODING 14436
SWIDTH 960 0
DWIDTH 12 0
BBX 12 12 0 -2
BITMAP
43c0
4a40
5a40
fbc0
5800
5fc0
5040
9040
ffe0
2a80
4440
8820
ENDCHAR
STARTCHAR 3865
ENCODING 14437
SWIDTH 960 0
DWIDTH 12 0
BBX 12 12 0 -2
BITMAP
2200
2480
4900
a680
2440
5fa0
c220
4780
5c80
4300
4680
7860
ENDCHAR
STARTCHAR 3866
ENCODING 14438
SWIDTH 960 0
DWIDTH 12 0
BBX 12 12 0 -2
BITMAP
5000
50e0
9fa0
a4a0
3fa0
44a0
d7a0
54a0
54a0
57c0
7c80
4080
ENDCHAR
STARTCHAR 3867
ENCODING 14439
SWIDTH 960 0
DWIDTH 12 0
BBX 12 12 0 -2
BITMAP
2000
2fe0
2100
2fc0
6240
7240
aff0
2000
27c0
2440
2440
27c0
ENDCHAR
STARTCHAR 3868
ENCODING 14440
SWIDTH 960 0
DWIDTH 12 0
BBX 12 12 0 -2
BITMAP
2000
2fe0
2100
ffc0
2240
6240
7fe0
6800
a7c0
a440
a440
27c0
ENDCHAR
STARTCHAR 3869
ENCODING 14441
SWIDTH 960 0
DWIDTH 12 0
BBX 12 12 0 -2
BITMAP
2100
2300
2480
fcc0
2b60
6cc0
6fc0
7100
afe0
a960
2fa0
2860
ENDCHAR
STARTCHAR 386a
ENCODING 14442
SWIDTH 960 0
DWIDTH 12 0
BBX 12 12 0 -2
BITMAP
0400
f5e0
4520
5f20
45e0
e520
5f20
53e0
7320
df20
0220
0460
ENDCHAR
STARTCHAR 386b
ENCODING 14443
SWIDTH 960 0
DWIDTH 12 0
BBX 12 12 0 -2
BITMAP
1080
7fe0
1080
1f80
1080
1f80
1080
fff0
1480
2fc0
d8b0
0f80
ENDCHAR
STARTCHAR 386c
ENCODING 14444
SWIDTH 960 0
DWIDTH 12 0
BBX 12 12 0 -2
BITMAP
7000
0fc0
f200
0f80
7480
0480
7fe0
0000
f7c0
9440
9440
f7c0
ENDCHAR
STARTCHAR 386d
ENCODING 14445
SWIDTH 960 0
DWIDTH 12 0
BBX 12 12 0 -2
BITMAP
63c0
0a40
fa40
0bc0
7800
0fc0
7040
0040
ffe0
9280
9240
f420
ENDCHAR
STARTCHAR 386e
ENCODING 14446
SWIDTH 960 0
DWIDTH 12 0
BBX 12 12 0 -2
BITMAP
6280
0fe0
f280
07e0
7680
0be0
7280
07e0
f440
9380
9280
fc60
ENDCHAR
STARTCHAR 386f
ENCODING 14447
SWIDTH 960 0
DWIDTH 12 0
BBX 12 12 0 -2
BITMAP
0200
fae0
57a0
52e0
faa0
afa0
d9a0
89e0
f9a0
8f20
f920
0260
ENDCHAR
STARTCHAR 3870
ENCODING 14448
SWIDTH 960 0
DWIDTH 12 0
BBX 12 12 0 -2
BITMAP
1000
1000
3fe0
2000
5f80
8100
0200
0c00
1000
2020
2020
1fe0
ENDCHAR
STARTCHAR 3871
ENCODING 14449
SWIDTH 960 0
DWIDTH 12 0
BBX 12 12 0 -2
BITMAP
2000
3be0
52a0
fbe0
aaa0
faa0
abe0
f880
13e0
6880
5080
87e0
ENDCHAR
STARTCHAR 3872
ENCODING 14450
SWIDTH 960 0
DWIDTH 12 0
BBX 12 12 0 -2
BITMAP
0400
0400
ffe0
1100
1080
2140
5100
0a00
0400
0a00
3180
c060
ENDCHAR
STARTCHAR 3873
ENCODING 14451
SWIDTH 960 0
DWIDTH 12 0
BBX 12 12 0 -2
BITMAP
1100
1100
1fe0
2280
2440
6ca0
a480
2280
2100
2280
2440
3820
ENDCHAR
STARTCHAR 3874
ENCODING 14452
SWIDTH 960 0
DWIDTH 12 0
BBX 12 12 0 -2
BITMAP
1000
17c0
1040
2fe0
2400
67e0
a900
3100
2fe0
2280
2440
3820
ENDCHAR
STARTCHAR 3875
ENCODING 14453
SWIDTH 960 0
DWIDTH 12 0
BBX 12 12 0 -2
BITMAP
2000
27c0
2040
5fe0
5400
d7c0
5900
5100
5fe0
5280
4440
5820
ENDCHAR
STARTCHAR 3876
ENCODING 14454
SWIDTH 960 0
DWIDTH 12 0
BBX 12 12 0 -2
BITMAP
1100
1100
1fc0
2100
3fe0
6440
afe0
2100
2fc0
2100
2100
2100
ENDCHAR
STARTCHAR 3877
ENCODING 14455
SWIDTH 960 0
DWIDTH 12 0
BBX 12 12 0 -2
BITMAP
0400
4480
2480
2500
0400
7fe0
0a00
0a00
1200
1220
2220
c1e0
ENDCHAR
STARTCHAR 3878
ENCODING 14456
SWIDTH 960 0
DWIDTH 12 0
BBX 12 12 0 -2
BITMAP
1100
1100
1100
2080
2440
4420
8400
0900
0880
1780
7840
0040
ENDCHAR
STARTCHAR 3879
ENCODING 14457
SWIDTH 960 0
DWIDTH 12 0
BBX 12 12 0 -2
BITMAP
0100
0100
f100
2fe0
2120
2120
2120
2920
3220
c220
0420
08c0
ENDCHAR
STARTCHAR 387a
ENCODING 14458
SWIDTH 960 0
DWIDTH 12 0
BBX 12 12 0 -2
BITMAP
1100
1100
fd00
2fe0
4920
8d20
2920
1120
1220
2a20
4420
88c0
ENDCHAR
STARTCHAR 387b
ENCODING 14459
SWIDTH 960 0
DWIDTH 12 0
BBX 12 12 0 -2
BITMAP
2000
2000
3fe0
2420
4420
4420
8a20
0920
17a0
78a0
0020
00c0
ENDCHAR
STARTCHAR 387c
ENCODING 14460
SWIDTH 960 0
DWIDTH 12 0
BBX 12 12 0 -2
BITMAP
0000
7fe0
5080
5f80
5080
5f80
4000
5f80
4100
7fe0
8200
0600
ENDCHAR
STARTCHAR 387d
ENCODING 14461
SWIDTH 960 0
DWIDTH 12 0
BBX 12 12 0 -2
BITMAP
0000
0000
7fe0
4020
4020
4020
4020
4020
4020
4020
7fe0
4020
ENDCHAR
STARTCHAR 387e
ENCODING 14462
SWIDTH 960 0
DWIDTH 12 0
BBX 12 12 0 -2
BITMAP
0400
0800
1000
7fe0
4020
4020
4f20
4920
4920
4f20
4020
4060
ENDCHAR
STARTCHAR 3921
ENCODING 14625
SWIDTH 960 0
DWIDTH 12 0
BBX 12 12 0 -2
BITMAP
01c0
3e00
2000
2000
3fe0
2000
2000
2fc0
4840
4840
8840
0fc0
ENDCHAR
STARTCHAR 3922
ENCODING 14626
SWIDTH 960 0
DWIDTH 12 0
BBX 12 12 0 -2
BITMAP
0400
07c0
e440
afe0
a900
bbe0
aa80
ac80
afe0
e980
0a40
0c20
ENDCHAR
STARTCHAR 3923
ENCODING 14627
SWIDTH 960 0
DWIDTH 12 0
BBX 12 12 0 -2
BITMAP
0100
2100
2fe0
2000
ff80
2480
2480
2480
3480
c4a0
08a0
10e0
ENDCHAR
STARTCHAR 3924
ENCODING 14628
SWIDTH 960 0
DWIDTH 12 0
BBX 12 12 0 -2
BITMAP
2040
2780
2400
f400
27e0
2400
2400
27e0
3620
ca20
0a20
13e0
ENDCHAR
STARTCHAR 3925
ENCODING 14629
SWIDTH 960 0
DWIDTH 12 0
BBX 12 12 0 -2
BITMAP
2000
27c0
2040
f880
5100
5100
5fe0
9100
f100
2900
4100
8300
ENDCHAR
ENDFONT
